<?xml version="1.0" standalone="no"?>
<!DOCTYPE svg PUBLIC "-//W3C//DTD SVG 1.1//EN" "http://www.w3.org/Graphics/SVG/1.1/DTD/svg11.dtd" >
<svg xmlns="http://www.w3.org/2000/svg" xmlns:xlink="http://www.w3.org/1999/xlink" version="1.1">
<metadata>
Created by FontForge 20190801 at Mon Mar  9 18:37:58 2020
 By Unknown
Copyright (c) 2008 by Serge Cortesi. All rights reserved.
</metadata>
<defs>
<font id="Citroen-Blackv4" horiz-adv-x="1308" >
  <font-face 
    font-family="Citroen Black v4"
    font-weight="900"
    font-stretch="normal"
    units-per-em="2048"
    panose-1="0 0 10 0 0 0 0 0 0 0"
    ascent="1536"
    descent="-512"
    x-height="805"
    cap-height="1315"
    bbox="-74 -475 1888 1815"
    underline-thickness="102"
    underline-position="-816"
    unicode-range="U+0020-FB02"
  />
<missing-glyph horiz-adv-x="748" 
d="M68 0v1365h544v-1365h-544zM136 68h408v1229h-408v-1229z" />
    <glyph glyph-name="uniFB01" unicode="fi" horiz-adv-x="1216" 
d="M29 553v252h121v268q0 97 29 171t80.5 118.5t116 67t140.5 22.5q162 0 270 -66l-79 -245q-72 35 -119 35t-75 -28t-28 -85v-258h205v-252h-205v-553h-335v553h-121zM776 0v805h334v-805h-334zM795 1092q0 61 44 103t107 42q61 0 104.5 -42t43.5 -103t-44 -105.5
t-104 -44.5q-63 0 -107 44t-44 106z" />
    <glyph glyph-name="uniFB02" unicode="fl" horiz-adv-x="1265" 
d="M29 553v252h121v268q0 97 29 171t80.5 118.5t116 67t140.5 22.5q162 0 270 -66l-79 -245q-72 35 -119 35t-75 -28t-28 -85v-258h205v-252h-205v-553h-335v553h-121zM786 389v1047h332v-1051q0 -81 32 -105t112 -10v-274q-249 -19 -362.5 74.5t-113.5 318.5z" />
    <glyph glyph-name=".notdef" horiz-adv-x="748" 
d="M68 0v1365h544v-1365h-544zM136 68h408v1229h-408v-1229z" />
    <glyph glyph-name="glyph1" horiz-adv-x="0" 
 />
    <glyph glyph-name="glyph2" horiz-adv-x="682" 
 />
    <glyph glyph-name="space" unicode=" " horiz-adv-x="450" 
 />
    <glyph glyph-name="exclam" unicode="!" horiz-adv-x="602" 
d="M127 369v948h348v-948h-348zM133 143q0 70 47 116t119 46t119 -46t47 -116t-47 -115.5t-119 -45.5t-119 45.5t-47 115.5z" />
    <glyph glyph-name="quotedbl" unicode="&#x22;" horiz-adv-x="835" 
d="M86 1315h295l-35 -557h-225zM455 1315h295l-35 -557h-226z" />
    <glyph glyph-name="numbersign" unicode="#" horiz-adv-x="1255" 
d="M86 295v246h180l33 176h-145v246h190l64 352h274l-64 -352h132l63 352h274l-65 -352h147v-246h-192l-31 -176h178v-246h-225l-53 -295h-273l54 295h-131l-54 -297h-274l53 297h-135zM541 541h131l33 176h-132z" />
    <glyph glyph-name="dollar" unicode="$" horiz-adv-x="1372" 
d="M127 158l164 276q49 -54 138.5 -95t188.5 -56v221q-71 26 -147 57q-262 119 -262 367q0 160 109 266.5t300 134.5v170h230v-166q112 -15 209 -61.5t141 -108.5l-158 -272q-10 49 -63.5 88t-128.5 59v-237l135 -56q134 -60 197.5 -148t62.5 -212q0 -161 -104 -266
t-291 -133v-217h-230v208q-146 12 -274.5 59.5t-216.5 121.5zM569 963q0 -36 49 -68v139q-49 -21 -49 -71zM848 289q53 20 53 65q0 35 -53 64v-129z" />
    <glyph glyph-name="percent" unicode="%" horiz-adv-x="1419" 
d="M31 1004q0 146 98 242.5t246 96.5t246 -96.5t98 -242.5q0 -88 -35 -156l272 516l209 -88l-411 -782q45 72 120.5 112.5t169.5 40.5q149 0 247 -96t98 -244q0 -146 -98 -242t-247 -96q-148 0 -246 96t-98 242q0 73 29 142l-268 -508l-209 92l424 801q-43 -78 -123 -123
t-178 -45q-149 0 -246.5 96t-97.5 242zM295 1004q0 -41 24 -71t56 -30t55 29t23 72q0 42 -23.5 73t-54.5 31t-55.5 -31.5t-24.5 -72.5zM967 307q0 -41 23 -71.5t54 -30.5t54.5 30.5t23.5 71.5q0 42 -23.5 73.5t-54.5 31.5t-54 -31t-23 -74z" />
    <glyph glyph-name="ampersand" unicode="&#x26;" horiz-adv-x="1636" 
d="M61 434q0 150 78.5 271t225.5 196q-31 114 9.5 215t138 161t226.5 60q142 0 249.5 -58.5t170.5 -152.5l-213 -143q-34 44 -85 70t-95 26q-48 0 -77.5 -27.5t-29.5 -80.5q0 -121 106.5 -246t291.5 -236q30 76 33 138h-158v256h643v-256h-207q-9 -136 -72 -262
q100 -43 224 -86l-84 -302q-167 47 -355 142q-198 -142 -456 -142q-119 0 -220.5 28.5t-178.5 83.5t-121 143.5t-44 201.5zM389 487q0 -108 76.5 -179.5t204.5 -71.5q88 0 166 32q-128 88 -226 186t-151 195q-70 -80 -70 -162z" />
    <glyph glyph-name="quotesingle" unicode="'" horiz-adv-x="466" 
d="M86 1315h295l-35 -557h-225z" />
    <glyph glyph-name="parenleft" unicode="(" horiz-adv-x="626" 
d="M98 567q0 267 43.5 458t184.5 546l202 -88q-153 -391 -153 -916q0 -524 153 -915l-202 -88q-141 355 -184.5 545.5t-43.5 457.5z" />
    <glyph glyph-name="parenright" unicode=")" horiz-adv-x="626" 
d="M98 -348q154 394 154 915q0 522 -154 916l203 88q141 -354 184 -545t43 -459q0 -267 -43 -458t-184 -545z" />
    <glyph glyph-name="asterisk" unicode="*" horiz-adv-x="749" 
d="M102 1110l64 119l141 -90l-6 176h150l-5 -178l138 92l63 -119l-143 -86l143 -90l-63 -119l-138 94l5 -174h-152l8 174l-139 -92l-64 119l140 88z" />
    <glyph glyph-name="plus" unicode="+" horiz-adv-x="1157" 
d="M117 295v299h313v313h297v-313h313v-299h-313v-311h-297v311h-313z" />
    <glyph glyph-name="comma" unicode="," horiz-adv-x="686" 
d="M102 -238l138 449l282 -29l-223 -444z" />
    <glyph glyph-name="hyphen" unicode="-" horiz-adv-x="534" 
d="M0 412v293h535v-293h-535z" />
    <glyph glyph-name="period" unicode="." horiz-adv-x="659" 
d="M164 143q0 70 47 116t119 46t119 -46t47 -116t-47 -115.5t-119 -45.5t-119 45.5t-47 115.5z" />
    <glyph glyph-name="slash" unicode="/" horiz-adv-x="931" 
d="M41 -86l598 1575l252 -78l-602 -1573z" />
    <glyph glyph-name="zero" unicode="0" horiz-adv-x="1148" 
d="M61 657q0 306 139.5 492t368.5 186q153 0 270.5 -84.5t181.5 -238.5t64 -355q0 -309 -140 -493t-376 -184q-235 0 -371.5 182t-136.5 495zM416 662q0 -174 41.5 -270.5t111.5 -96.5q76 0 118 93.5t42 273.5q0 168 -43.5 263t-116.5 95q-72 0 -112.5 -92t-40.5 -266z" />
    <glyph glyph-name="one" unicode="1" horiz-adv-x="1193" 
d="M209 1042q94 7 226.5 96.5t182.5 176.5h265v-1315h-348v846q-127 -74 -236 -96z" />
    <glyph glyph-name="two" unicode="2" horiz-adv-x="1157" 
d="M109 0l2 279q98 84 240 217.5t224 218.5q57 59 81.5 106.5t23.5 98.5q0 44 -35 69t-96 27q-61 0 -116 -36t-95 -101l-225 227q58 105 182 168t270 63q106 2 202 -36.5t159 -108.5q110 -116 110 -279q0 -127 -75 -240t-285 -304l-66 -60h437v-309h-938z" />
    <glyph glyph-name="three" unicode="3" horiz-adv-x="1173" 
d="M104 217l224 199q32 -62 93.5 -99.5t129.5 -37.5q87 0 125.5 32.5t38.5 104.5q0 71 -40.5 101t-137.5 30h-138v293h129q154 0 154 104q0 86 -123 86q-62 0 -114.5 -28.5t-75.5 -77.5l-203 196q60 99 180 158t260 59q195 0 310.5 -99.5t115.5 -268.5q0 -157 -125 -260
q76 -50 119 -132t43 -178q0 -181 -139.5 -301.5t-351.5 -120.5q-313 0 -474 240z" />
    <glyph glyph-name="four" unicode="4" horiz-adv-x="1144" 
d="M47 219v178q113 236 293 492q175 253 350 426h293v-797h115v-299h-115v-219h-332v219h-604zM453 518h198v293q-91 -123 -198 -293z" />
    <glyph glyph-name="five" unicode="5" horiz-adv-x="1171" 
d="M117 129l137 268q70 -54 135 -79t146 -25q80 0 122.5 44.5t42.5 119.5q0 82 -65 128t-166 46q-109 0 -221 -56l-37 17v723h764v-316h-451v-108h29q235 -2 369.5 -119t134.5 -321q0 -210 -146 -343t-374 -131q-236 0 -420 152z" />
    <glyph glyph-name="six" unicode="6" horiz-adv-x="1153" 
d="M86 471q0 245 190 483q104 133 250 240t303 166l115 -277q-93 -48 -158 -90.5t-147 -115.5q84 2 158.5 -21t136 -71t97.5 -131.5t36 -192.5q0 -211 -136 -346t-349 -135q-214 0 -355 140t-141 351zM430 461q0 -82 38.5 -129t104.5 -47q65 0 101.5 46t36.5 130
q0 77 -37 120.5t-101 43.5t-103.5 -45t-39.5 -119z" />
    <glyph glyph-name="seven" unicode="7" horiz-adv-x="1165" 
d="M84 68q64 220 208 478t314 451h-493v318h964v-234q-141 -129 -284 -336t-244 -412.5t-148 -367.5z" />
    <glyph glyph-name="eight" unicode="8" horiz-adv-x="1153" 
d="M86 383q0 101 45 186.5t127 137.5q-113 96 -113 256q0 164 120.5 269t309.5 105q192 0 311.5 -103.5t119.5 -270.5q0 -159 -111 -256q82 -53 126 -136t44 -188q0 -172 -140.5 -289t-349.5 -117q-215 0 -352 113.5t-137 292.5zM436 408q0 -60 38 -98t101 -38
q61 0 100.5 38.5t39.5 97.5q0 67 -37.5 105t-102.5 38q-66 0 -102.5 -37.5t-36.5 -105.5zM467 958q0 -112 108 -112q50 0 79.5 30.5t29.5 81.5q0 46 -31 75.5t-78 29.5q-46 0 -77 -30t-31 -75z" />
    <glyph glyph-name="nine" unicode="9" horiz-adv-x="1153" 
d="M86 854q0 210 135.5 346.5t347.5 136.5q215 0 356.5 -141t141.5 -354q0 -235 -193 -482q-102 -131 -247 -237t-305 -166l-115 297q176 75 285 168q-56 6 -109.5 22.5t-108.5 50.5t-95.5 81t-66.5 119t-26 159zM442 854q0 -76 36.5 -119t99.5 -43q65 0 104 44.5t39 117.5
q0 82 -38.5 129t-104.5 47q-65 0 -100.5 -46t-35.5 -130z" />
    <glyph glyph-name="colon" unicode=":" horiz-adv-x="659" 
d="M164 143q0 70 47 116t119 46t119 -46t47 -116t-47 -115.5t-119 -45.5t-119 45.5t-47 115.5zM164 659q0 70 47 116t119 46t119 -46t47 -116t-47 -115.5t-119 -45.5t-119 45.5t-47 115.5z" />
    <glyph glyph-name="semicolon" unicode=";" horiz-adv-x="700" 
d="M102 -238l138 449l282 -29l-223 -444zM205 659q0 70 47 116t119 46t119 -46t47 -116t-47 -115.5t-119 -45.5t-119 45.5t-47 115.5z" />
    <glyph glyph-name="less" unicode="&#x3c;" horiz-adv-x="1155" 
d="M78 344v211q136 83 377 178q320 132 544 164l56 -293q-95 -12 -244 -55.5t-291 -99.5q139 -54 287.5 -97.5t247.5 -58.5l-56 -293q-224 32 -544 164q-215 85 -377 180z" />
    <glyph glyph-name="equal" unicode="=" horiz-adv-x="1157" 
d="M117 106v297h923v-297h-923zM117 485v299h923v-299h-923z" />
    <glyph glyph-name="greater" unicode="&#x3e;" horiz-adv-x="1163" 
d="M74 293q99 15 247 58.5t287 97.5q-142 56 -290.5 99.5t-243.5 55.5l55 293q105 -15 250.5 -59t294.5 -105q241 -95 377 -178v-211q-162 -95 -377 -180q-149 -61 -294.5 -105t-250.5 -59z" />
    <glyph glyph-name="question" unicode="?" horiz-adv-x="964" 
d="M98 1206q62 57 163.5 94t207.5 37q174 0 285.5 -85t111.5 -222q0 -66 -35.5 -129.5t-86 -113.5t-101 -97.5t-86 -98.5t-35.5 -99q0 -52 31 -123h-287q-3 9 -10.5 29.5t-10.5 31t-7.5 26.5t-6.5 29t-2 27q0 57 29 118.5t70.5 112.5t83.5 96.5t71 84t29 61.5q0 32 -28 52
t-70 20q-93 0 -172 -82zM248 143q0 70 47 116t119 46t119 -46t47 -116t-47 -115.5t-119 -45.5t-119 45.5t-47 115.5z" />
    <glyph glyph-name="at" unicode="@" horiz-adv-x="1384" 
d="M43 657q0 195 89.5 351t243 242.5t339.5 86.5q164 0 305 -78t225 -214.5t84 -299.5q0 -204 -97.5 -334t-248.5 -130q-70 0 -123 28.5t-65 75.5q-58 -104 -189 -104q-111 0 -188.5 90t-77.5 247q0 159 85.5 268t227.5 109q116 0 170 -92l15 80h209l-72 -444
q-14 -88 45 -88q29 0 58 40.5t48 111t19 147.5q0 176 -122.5 294.5t-307.5 118.5q-140 0 -252 -67t-174 -182.5t-62 -256.5q0 -215 143 -360t363 -145q203 0 365 79l63 -149q-94 -54 -210.5 -79.5t-225.5 -25.5q-197 0 -352.5 86.5t-242.5 242t-87 351.5zM567 614
q0 -67 23 -101t63 -34q68 0 105 54t37 135q0 133 -99 133q-56 0 -92.5 -51t-36.5 -136z" />
    <glyph glyph-name="A" unicode="A" 
d="M-8 0q82 349 254 778q115 301 241 537h334q112 -210 242 -537q172 -429 254 -778h-344q-21 83 -70 238h-497q-44 -142 -72 -238h-342zM508 541h293q-94 256 -148 381q-38 -90 -145 -381z" />
    <glyph glyph-name="B" unicode="B" horiz-adv-x="1196" 
d="M127 0v1315h479q196 0 311 -96.5t115 -260.5q0 -158 -151 -243q118 -45 180.5 -130t62.5 -190q0 -177 -125.5 -286t-326.5 -109h-545zM471 279h123q103 0 143.5 30t40.5 103q0 66 -40 92t-156 26h-111v-251zM471 809h102q68 0 94.5 25t26.5 86t-28.5 88.5t-90.5 27.5
h-104v-227z" />
    <glyph glyph-name="C" unicode="C" horiz-adv-x="1292" 
d="M47 670q0 191 86 343t239 237t345 85q129 0 251 -44.5t208 -123.5l-199 -260q-41 43 -109 72t-151 29q-145 -2 -229.5 -92t-84.5 -246q0 -174 85 -268.5t241 -94.5q87 0 157 32t107 89l221 -233q-89 -104 -218.5 -159.5t-282.5 -55.5q-304 0 -485 187.5t-181 502.5z" />
    <glyph glyph-name="D" unicode="D" horiz-adv-x="1318" 
d="M127 0v1315h498q302 0 474.5 -175.5t172.5 -484.5q0 -297 -177.5 -476t-471.5 -179h-496zM475 303h88q192 0 272 80.5t80 273.5q0 186 -84 270.5t-268 84.5h-88v-709z" />
    <glyph glyph-name="E" unicode="E" horiz-adv-x="1044" 
d="M127 0v1315h829v-303h-481v-176h410v-304h-410v-229h520v-303h-868z" />
    <glyph glyph-name="F" unicode="F" horiz-adv-x="989" 
d="M127 0v1315h829v-303h-481v-203h412v-303h-412v-506h-348z" />
    <glyph glyph-name="G" unicode="G" horiz-adv-x="1335" 
d="M47 670q0 296 197.5 479.5t515.5 185.5q143 0 269.5 -44.5t211.5 -123.5l-199 -262q-43 42 -118 74q-73 31 -159 31h-5q-169 0 -263 -90t-94 -250q0 -179 91.5 -280t269.5 -101q69 0 127 18v139h-232v299h580v-604q-67 -70 -210 -115.5t-290 -45.5q-316 0 -504 187.5
t-188 502.5z" />
    <glyph glyph-name="H" unicode="H" horiz-adv-x="1439" 
d="M127 0v1315h348v-475h490v475h348v-1315h-348v537h-490v-537h-348z" />
    <glyph glyph-name="I" unicode="I" horiz-adv-x="602" 
d="M127 0v1315h348v-1315h-348z" />
    <glyph glyph-name="J" unicode="J" horiz-adv-x="602" 
d="M-18 -135q98 13 124.5 46t26.5 140v1264h348v-1272q0 -224 -118 -319q-105 -85 -324 -85q-28 0 -57 1v225z" />
    <glyph glyph-name="K" unicode="K" horiz-adv-x="1300" 
d="M127 0v1315h348v-416l363 416h448l-547 -576q161 -126 318 -336.5t241 -402.5h-387q-81 150 -185.5 288t-207.5 218l-43 -45v-461h-348z" />
    <glyph glyph-name="L" unicode="L" horiz-adv-x="997" 
d="M127 0v1315h348v-1012h488v-303h-836z" />
    <glyph glyph-name="M" unicode="M" horiz-adv-x="1732" 
d="M127 0v1315h422q70 -90 171.5 -276.5t145.5 -293.5q44 106 146 293t172 277h422v-1315h-349v817q-131 -235 -217 -483h-348q-86 248 -217 483v-817h-348z" />
    <glyph glyph-name="N" unicode="N" horiz-adv-x="1540" 
d="M127 0v1339h178q205 -136 410 -317t350 -354v647h348v-1315h-297q-113 219 -268 406.5t-373 384.5v-791h-348z" />
    <glyph glyph-name="O" unicode="O" horiz-adv-x="1421" 
d="M47 672q0 193 84 344.5t235 235t343 83.5q194 0 345.5 -83.5t235.5 -234.5t84 -345q0 -315 -180.5 -503.5t-484.5 -188.5q-302 0 -482 188t-180 504zM403 674q0 -175 84 -281t222 -106q149 0 229 101t80 286q0 159 -85 256.5t-224 97.5q-143 0 -224.5 -93.5t-81.5 -260.5
z" />
    <glyph glyph-name="P" unicode="P" horiz-adv-x="1138" 
d="M127 0v1315h487q242 0 368 -114.5t126 -334.5q0 -209 -131 -327.5t-361 -118.5h-141v-420h-348zM475 709h131q74 0 110 39t36 122t-33.5 119.5t-110.5 36.5h-133v-317z" />
    <glyph glyph-name="Q" unicode="Q" horiz-adv-x="1454" 
d="M47 674q0 192 84 343t235 234.5t343 83.5q194 0 345 -83t234.5 -233.5t83.5 -344.5q0 -187 -65 -332q75 -38 137 -41l-82 -328q-120 17 -277 107q-158 -100 -376 -100q-303 0 -482.5 188t-179.5 506zM401 678q0 -177 85 -284t223 -107q59 0 102 14q-135 145 -178 274
l307 146q3 -51 72 -139q6 46 6 96q0 157 -85.5 253.5t-223.5 96.5q-145 0 -226.5 -92.5t-81.5 -257.5z" />
    <glyph glyph-name="R" unicode="R" horiz-adv-x="1179" 
d="M127 0v1315h465q493 0 493 -428q0 -115 -47 -203t-135 -141q37 -37 96 -123q130 -199 193 -420h-354q-48 133 -127 248q-107 158 -193 207h-43v-455h-348zM475 739h107q79 0 115 35.5t36 114.5t-33.5 110t-113.5 31h-111v-291z" />
    <glyph glyph-name="S" unicode="S" horiz-adv-x="1196" 
d="M53 162l164 276q65 -68 199 -117t246 -49q137 0 137 74q0 25 -17.5 44t-70.5 42l-310 135q-140 62 -202 149t-62 212v5q1 183 135 293q136 110 377 111q128 0 259 -54t186 -122l-146 -248q-46 48 -131 92t-174 44q-68 0 -107.5 -23.5t-39.5 -62.5q0 -51 94 -91l289 -124
q136 -60 200 -148q62 -85 62 -205v-8q0 -190 -142.5 -300t-390.5 -110q-149 0 -305.5 52t-249.5 133z" />
    <glyph glyph-name="T" unicode="T" horiz-adv-x="1036" 
d="M-8 1012v303h1052v-303h-352v-1012h-348v1012h-352z" />
    <glyph glyph-name="U" unicode="U" horiz-adv-x="1320" 
d="M115 522v793h348v-752q0 -164 42.5 -226.5t153.5 -62.5q116 0 157.5 60.5t41.5 228.5v752h348v-793q0 -282 -131.5 -413.5t-415.5 -131.5q-101 0 -183 17.5t-138 46t-97.5 71.5t-65 88t-37.5 103t-18.5 108t-4.5 111z" />
    <glyph glyph-name="V" unicode="V" horiz-adv-x="1245" 
d="M-6 1315h338q33 -168 125 -447t166 -444q73 163 165 443t125 448h338q-22 -178 -101 -419.5t-171 -455t-205 -440.5h-309q-163 326 -302 699.5t-169 615.5z" />
    <glyph glyph-name="W" unicode="W" horiz-adv-x="1769" 
d="M-6 1315h340q28 -269 162 -697q13 -44 53 -161q114 285 151 520h369q38 -238 154 -522q9 30 26.5 85.5t24.5 77.5q129 413 166 697h336q-36 -329 -183 -797q-103 -314 -190 -518h-334q-92 182 -184 459q-90 -271 -185 -459h-331q-92 212 -193 518q-152 497 -182 797z" />
    <glyph glyph-name="X" unicode="X" horiz-adv-x="1376" 
d="M2 1315h449q80 -96 239 -309q147 198 236 309h448q-183 -186 -477 -588q163 -228 289 -427t172 -300h-381q-163 265 -285 442q-112 -162 -282 -442h-383q137 268 458 727q-321 428 -483 588z" />
    <glyph glyph-name="Y" unicode="Y" horiz-adv-x="1196" 
d="M-8 1315h352q56 -150 112.5 -266.5t143.5 -251.5q158 254 252 518h352q-129 -420 -430 -832v-483h-348v479q-142 193 -258 414t-176 422z" />
    <glyph glyph-name="Z" unicode="Z" horiz-adv-x="1069" 
d="M8 0v213q103 196 246.5 418t273.5 381h-434v303h938v-228q-311 -338 -586 -784h615v-303h-1053z" />
    <glyph glyph-name="bracketleft" unicode="[" horiz-adv-x="626" 
d="M96 -369v1905h430v-215h-151v-1475h151v-215h-430z" />
    <glyph glyph-name="backslash" unicode="\" horiz-adv-x="931" 
d="M41 1411l252 78l598 -1575l-248 -76z" />
    <glyph glyph-name="bracketright" unicode="]" horiz-adv-x="626" 
d="M100 -154h152v1475h-152v215h430v-1905h-430v215z" />
    <glyph glyph-name="asciicircum" unicode="^" horiz-adv-x="1257" 
d="M74 504q93 265 225 514q78 149 188 317h267q108 -165 188 -315q145 -276 223 -516h-315q-68 182 -170 377q-33 62 -59 104l-58 -104q-103 -196 -172 -377h-317z" />
    <glyph glyph-name="underscore" unicode="_" horiz-adv-x="1228" 
d="M0 -55h1229v-246h-1229v246z" />
    <glyph glyph-name="a" unicode="a" horiz-adv-x="946" 
d="M39 244q0 89 71 154t205 100q66 18 193 32q-4 34 -33 53t-72 19q-65 0 -141.5 -23t-132.5 -59l-57 221q47 35 155 60.5t211 25.5q410 0 410 -378v-170q0 -131 41 -234l-314 -59l-28 73q-82 -82 -236 -82q-133 0 -202.5 69.5t-69.5 197.5zM356 258q0 -32 23 -52t59 -20
q33 0 57.5 23t32.5 53v107l-61 -17q-111 -29 -111 -94z" />
    <glyph glyph-name="b" unicode="b" horiz-adv-x="1081" 
d="M117 258v1178h334l-9 -703q33 44 93.5 69t130.5 25q67 0 131 -24t120 -71.5t90.5 -130.5t34.5 -189q0 -191 -130 -313t-328 -122q-141 0 -255.5 46t-172.5 114q-39 45 -39 121zM451 346q0 -67 29 -100t91 -33q70 0 102 46.5t32 152.5q0 172 -113 172q-141 0 -141 -146
v-92z" />
    <glyph glyph-name="c" unicode="c" horiz-adv-x="794" 
d="M39 406q0 185 130 303t327 118q156 0 286 -88l-123 -223q-75 51 -139 51q-65 0 -104 -42.5t-39 -118.5q0 -84 35 -127t102 -43q84 0 150 57l122 -209q-126 -107 -315 -107q-192 0 -312 115.5t-120 313.5z" />
    <glyph glyph-name="d" unicode="d" horiz-adv-x="1097" 
d="M39 410q0 197 127.5 307t337.5 110q79 0 139 -14v623h334v-1157q0 -131 41 -234l-313 -59l-25 98q-31 -43 -103.5 -75t-154.5 -32q-175 0 -279 116.5t-104 316.5zM377 410q0 -88 32.5 -142.5t88.5 -54.5q68 0 106.5 41.5t38.5 114.5v86q0 67 -27 98t-100 31
q-139 0 -139 -174z" />
    <glyph glyph-name="e" unicode="e" horiz-adv-x="933" 
d="M39 393q0 198 119 316t313 118q203 0 311.5 -120t108.5 -324v-45h-518q13 -69 60 -102t118 -33q69 0 128 19t89 54l127 -182q-151 -114 -367 -114q-234 0 -361.5 111t-127.5 302zM375 500h211q0 50 -25.5 84t-75.5 34q-46 0 -75 -32.5t-35 -85.5z" />
    <glyph glyph-name="f" unicode="f" horiz-adv-x="669" 
d="M29 553v252h121v268q0 97 29 171t80.5 118.5t116 67t140.5 22.5q162 0 270 -66l-79 -245q-72 35 -119 35t-75 -28t-28 -85v-258h205v-252h-205v-553h-335v553h-121z" />
    <glyph glyph-name="g" unicode="g" horiz-adv-x="1091" 
d="M39 391q0 198 133 317t356 119q114 0 221 -34t175 -91q29 -24 40 -52t11 -81v-594q0 -213 -122.5 -331.5t-342.5 -118.5q-123 0 -246.5 29t-195.5 75l125 254q155 -73 264 -73q88 0 137 41.5t49 115.5v76q-78 -66 -213 -66q-184 0 -287.5 109.5t-103.5 304.5zM377 391
q0 -92 29 -136t90 -44q70 0 108.5 43t38.5 121v119q0 49 -29 69.5t-98 20.5q-139 0 -139 -193z" />
    <glyph glyph-name="h" unicode="h" horiz-adv-x="1099" 
d="M117 0v1436h334v-699q76 90 200 90q157 0 244.5 -96t87.5 -276v-455h-334v403q0 77 -23 108.5t-75 31.5q-100 0 -100 -140v-403h-334z" />
    <glyph glyph-name="i" unicode="i" horiz-adv-x="546" 
d="M106 0v805h334v-805h-334zM125 1092q0 61 44 103t107 42q61 0 104.5 -42t43.5 -103t-44 -105.5t-104 -44.5q-63 0 -107 44t-44 106z" />
    <glyph glyph-name="j" unicode="j" horiz-adv-x="579" 
d="M-55 -213h12q88 0 125 27q41 30 41 108v883h334v-877q0 -227 -121 -319q-99 -76 -299 -76q-44 0 -92 4v250zM141 1092q0 61 44.5 103t107.5 42q61 0 104 -42t43 -103t-43.5 -105.5t-103.5 -44.5q-63 0 -107.5 44t-44.5 106z" />
    <glyph glyph-name="k" unicode="k" horiz-adv-x="1097" 
d="M117 0v1436h334v-850q141 137 215 219h417q-247 -231 -389 -334q272 -239 418 -471h-407q-171 228 -254 309v-309h-334z" />
    <glyph glyph-name="l" unicode="l" horiz-adv-x="595" 
d="M117 389v1047h332v-1051q-1 -81 31 -105q20 -15 60 -15q23 0 52 5v-274q-42 -3 -80 -3q-188 -1 -282 77q-113 94 -113 319z" />
    <glyph glyph-name="m" unicode="m" horiz-adv-x="1568" 
d="M82 723l278 100q50 -55 56 -112q75 116 231 116q161 0 236 -96q48 49 101.5 72.5t139.5 23.5q166 0 247 -87.5t81 -274.5v-465h-334v414q0 82 -16.5 114.5t-59.5 32.5q-46 0 -68 -36t-22 -113v-412h-334v412q0 86 -15.5 118.5t-57.5 32.5q-50 0 -70 -33.5t-20 -117.5
v-412h-332v500q0 123 -41 223z" />
    <glyph glyph-name="n" unicode="n" horiz-adv-x="1105" 
d="M82 723l278 100q50 -55 56 -112q39 53 112 84.5t154 31.5q60 0 113.5 -18t97.5 -53.5t70 -96.5t26 -139v-520h-334v412q0 80 -20 114.5t-72 34.5q-55 0 -80.5 -36t-25.5 -113v-412h-334v500q0 123 -41 223z" />
    <glyph glyph-name="o" unicode="o" horiz-adv-x="1019" 
d="M39 399q0 196 129.5 312t341.5 116t341.5 -116t129.5 -312q0 -197 -128 -309.5t-343 -112.5q-214 0 -342.5 113t-128.5 309zM377 399q0 -92 34 -139t99 -47q133 0 133 186q0 93 -35 143t-98 50q-133 0 -133 -193z" />
    <glyph glyph-name="p" unicode="p" horiz-adv-x="1101" 
d="M82 723l278 100q50 -55 56 -112q42 55 113.5 85.5t152.5 30.5q57 0 110.5 -14t103 -46t86.5 -79t59 -118t22 -158q0 -199 -129 -317t-338 -118q-68 0 -139 15v-445h-334v953q0 123 -41 223zM457 346q0 -133 121 -133q70 0 101.5 46.5t31.5 152.5q0 172 -113 172
q-141 0 -141 -146v-92z" />
    <glyph glyph-name="q" unicode="q" horiz-adv-x="1093" 
d="M39 391q0 195 133 315.5t350 120.5q113 0 225 -33.5t181 -88.5q29 -26 39 -52.5t10 -81.5v-1024h-334v488q-86 -58 -205 -58q-201 0 -300 102.5t-99 311.5zM377 391q0 -92 29 -136t90 -44q70 0 108.5 43t38.5 121v119q0 49 -29 69.5t-98 20.5q-139 0 -139 -193z" />
    <glyph glyph-name="r" unicode="r" horiz-adv-x="749" 
d="M82 723l278 100q50 -55 56 -112q26 58 85 87t120 29q82 0 139 -32l-21 -287q-68 39 -137 39q-64 0 -103.5 -39t-39.5 -113v-395h-336v500q0 123 -41 223z" />
    <glyph glyph-name="s" unicode="s" horiz-adv-x="874" 
d="M41 102l115 168q60 -40 140 -65t134 -25q24 0 40.5 7.5t16.5 21.5q0 11 -9 20t-17.5 13t-28.5 12q-1 0 -81.5 30t-102.5 42q-77 42 -113.5 94.5t-36.5 126.5q0 130 96 205t259 75q241 0 356 -92l-102 -176q-129 70 -240 70q-14 0 -24.5 -8t-10.5 -21q0 -24 27 -35
q29 -12 110.5 -40t108.5 -42q80 -42 118 -94t38 -123q0 -132 -106.5 -210.5t-287.5 -78.5q-109 0 -216.5 35.5t-182.5 89.5z" />
    <glyph glyph-name="t" unicode="t" horiz-adv-x="714" 
d="M0 559v246h111v264h333v-264h189v-246h-189v-278q0 -35 19.5 -52.5t52.5 -17.5q51 0 107 39l65 -195q-126 -78 -282 -78q-141 0 -218 79t-77 220v283h-111z" />
    <glyph glyph-name="u" unicode="u" horiz-adv-x="1091" 
d="M117 340v467h334v-440q0 -59 17.5 -88t66.5 -29q62 0 81 29t19 90v438h334v-528q0 -131 41 -234l-314 -59l-30 75q-89 -86 -209 -86q-161 0 -250.5 94.5t-89.5 270.5z" />
    <glyph glyph-name="v" unicode="v" horiz-adv-x="905" 
d="M0 805h324q12 -82 49.5 -225.5t79.5 -247.5q26 68 52 160.5t49.5 192.5t29.5 120h321q-26 -142 -110 -365t-187 -440h-315q-107 194 -188 421t-105 384z" />
    <glyph glyph-name="w" unicode="w" horiz-adv-x="1331" 
d="M0 805h319q39 -210 109 -418q17 45 50.5 137t43.5 117q12 34 20 39.5t42 5.5h176q36 0 44.5 -6t18.5 -39q46 -150 82 -244q70 207 107 408h319q-31 -171 -107 -399t-161 -406h-309q-56 118 -95 242q-37 -125 -90 -242h-305q-99 206 -170 422t-94 383z" />
    <glyph glyph-name="x" unicode="x" horiz-adv-x="1050" 
d="M0 0q150 237 311 430q-122 164 -301 363v12h381q24 -28 125 -164q12 15 39 50t49.5 62.5t44.5 51.5h398v-12q-126 -126 -314 -359q212 -252 318 -434h-375q-39 60 -152 209q-71 -90 -149 -209h-375z" />
    <glyph glyph-name="y" unicode="y" horiz-adv-x="915" 
d="M-43 -455q101 120 313 459q-103 202 -180 420.5t-102 380.5h329q17 -86 56 -226.5t84 -248.5q77 233 135 475h334q-63 -309 -211 -641q-150 -337 -363 -619h-395z" />
    <glyph glyph-name="z" unicode="z" horiz-adv-x="798" 
d="M4 0v178q116 210 291 379h-268v248h759v-197q-95 -68 -191.5 -164t-170.5 -196h371v-248h-791z" />
    <glyph glyph-name="braceleft" unicode="{" horiz-adv-x="653" 
d="M55 498v172q36 13 52 20.5t39 26.5t32.5 50t9.5 77v395q0 148 78 222.5t213 74.5h111v-215h-58q-35 0 -52 -18t-17 -68v-399q0 -189 -178 -252q178 -63 178 -252v-400q0 -50 17 -68t52 -18h58v-215h-111q-135 0 -213 74.5t-78 222.5v396q0 46 -9.5 77t-32.5 50t-39 26.5
t-52 20.5z" />
    <glyph glyph-name="bar" unicode="|" horiz-adv-x="747" 
d="M221 6v1460h295v-1460h-295z" />
    <glyph glyph-name="braceright" unicode="}" horiz-adv-x="632" 
d="M43 -154h57q35 0 52.5 18.5t17.5 67.5v400q0 189 178 252q-178 63 -178 252v399q0 49 -17.5 67.5t-52.5 18.5h-57v215h111q135 0 212.5 -74.5t77.5 -222.5v-395q0 -31 4.5 -55.5t15.5 -42t20 -28.5t29 -21t30 -14t35 -13v-172q-25 -9 -35 -13t-30 -14t-29 -21t-20 -28.5
t-15.5 -42t-4.5 -55.5v-396q0 -148 -77.5 -222.5t-212.5 -74.5h-111v215z" />
    <glyph glyph-name="asciitilde" unicode="~" horiz-adv-x="1140" 
d="M78 414q22 14 78 92q27 41 46 66t52.5 60t71.5 52.5t80 17.5q92 0 215 -94q32 -28 66.5 -46.5t53.5 -18.5q-1 0 7 18.5t19.5 45.5t12.5 28l82 20l193 -172q-6 -9 -24.5 -41.5t-35.5 -61.5t-46 -66t-57.5 -63t-68 -44.5t-80.5 -18.5q-34 0 -72 13t-55 22.5t-53 30.5
q-12 9 -22 14l-49 33q-64 47 -84 47q1 0 -8.5 -19.5t-22 -44t-15.5 -32.5l-79 -19z" />
    <glyph glyph-name="uni00A0" unicode="&#xa0;" horiz-adv-x="450" 
 />
    <glyph glyph-name="exclamdown" unicode="&#xa1;" horiz-adv-x="575" 
d="M127 -408v875h322v-875h-322zM133 674q0 66 43 107.5t111 41.5q66 0 108.5 -41.5t42.5 -107.5q0 -65 -42.5 -106.5t-108.5 -41.5q-67 0 -110.5 41.5t-43.5 106.5z" />
    <glyph glyph-name="cent" unicode="&#xa2;" horiz-adv-x="825" 
d="M39 403q0 173 103 291t274 144v98h188v-98q105 -20 209 -86l-106 -187l-68 -20q-14 7 -35 14v-317q18 9 23 14l73 -12l117 -176q-75 -75 -213 -101v-119h-188v117q-180 22 -278.5 136.5t-98.5 301.5zM379 399q0 -85 37 -131v254q-37 -40 -37 -123z" />
    <glyph glyph-name="sterling" unicode="&#xa3;" horiz-adv-x="1224" 
d="M94 37q34 140 103 225.5t163 102.5q5 17 5 45q0 43 -17 84h-233v208h125q-37 106 -37 193q0 193 131.5 320.5t331.5 127.5q218 0 330 -130.5t112 -385.5q-75 -8 -215 -20l-80 -6l-55 53l4 53v6q0 47 -31.5 86t-71.5 39q-51 0 -82.5 -41.5t-31.5 -107.5q0 -46 13.5 -98
t35.5 -89h248v-208h-180q2 -14 2 -41q0 -19 -2 -25v-12l-5 -84q106 -47 162 -47q17 0 29.5 27t11.5 73l277 -49q-26 -171 -105.5 -259.5t-208.5 -88.5q-74 0 -215 49q-109 41 -162 41q-58 0 -67 -84z" />
    <glyph glyph-name="yen" unicode="&#xa5;" horiz-adv-x="1312" 
d="M49 1315h352q78 -212 220 -443l32 -55q0 -2 2 -2q9 15 37 57q138 228 217 443h353q-78 -258 -222 -504h189v-225h-326q-9 -11 -22 -33h348v-225h-398v-328h-348v328h-401v225h348q-9 11 -22 33h-326v225h186q-147 259 -219 504z" />
    <glyph glyph-name="brokenbar" unicode="&#xa6;" horiz-adv-x="739" 
d="M221 6v645h297v-645h-297zM221 821v645h297v-645h-297z" />
    <glyph glyph-name="section" unicode="&#xa7;" horiz-adv-x="1087" 
d="M41 526q0 80 82 131q76 43 168 43q95 0 168 -43q25 -14 37 -24q33 -23 47 -23q19 0 55 27l31 20q72 43 168 43q92 0 168 -43q82 -51 82 -131q0 -76 -80 -131q-73 -43 -170 -43q-104 0 -168 45l-25 15q-42 30 -61 30t-56 -28l-13.5 -9t-16.5 -12q-62 -41 -166 -41
q-92 0 -168 43q-82 51 -82 131z" />
    <glyph glyph-name="copyright" unicode="&#xa9;" horiz-adv-x="1378" 
d="M6 659q0 141 53.5 268.5t144.5 220t217.5 146.5t266.5 54t267 -54t218.5 -146.5t145 -220t53.5 -268.5q0 -189 -91 -347.5t-248.5 -250.5t-344.5 -92q-140 0 -266.5 54t-217.5 146t-144.5 220t-53.5 270zM246 659q0 -189 127.5 -318.5t314.5 -129.5q188 0 315 129
t127 319q0 189 -127.5 318t-314.5 129t-314.5 -129t-127.5 -318zM285 664q0 185 117 310.5t290 125.5q159 0 264.5 -100t114.5 -261h-248q7 54 -30.5 89.5t-100.5 35.5q-69 0 -117.5 -58t-48.5 -142q0 -82 49 -140.5t117 -58.5q65 0 102.5 36.5t24.5 88.5h250
q-4 -162 -110 -262.5t-267 -100.5q-172 0 -289.5 126.5t-117.5 310.5z" />
    <glyph glyph-name="ordfeminine" unicode="&#xaa;" horiz-adv-x="702" 
d="M23 551v223h122q-118 45 -118 180q0 78 56 132t161 79l16 4q-57 -10 -94 -28l-70 26l-51 129q29 29 115.5 49.5t171.5 20.5q315 0 315 -274v-127q0 -68 17 -93l-33 -81l-101 -17h127v-223h-634zM295.5 965.5q0.5 -6.5 3.5 -13.5q8 -8 33 -8q42 0 51 37v23l-29 -7
q-29 -7 -44 -16t-14.5 -15.5zM375 774h86l-27 10l-10 13q-28 -16 -49 -23z" />
    <glyph glyph-name="guillemotleft" unicode="&#xab;" horiz-adv-x="1196" 
d="M47 558.5q0 22.5 19 51.5q56 86 178 200t237 194l152 -138q-145 -138 -279 -307q134 -169 279 -307l-152 -137q-116 80 -237.5 193.5t-177.5 199.5q-19 28 -19 50.5zM518 558.5q0 22.5 19 51.5q56 86 178 200t237 194l152 -138q-145 -138 -279 -307q134 -169 279 -307
l-152 -137q-116 80 -237.5 193.5t-177.5 199.5q-19 28 -19 50.5z" />
    <glyph glyph-name="logicalnot" unicode="&#xac;" horiz-adv-x="1114" 
d="M78 489v297h926v-571h-297v274h-629z" />
    <glyph glyph-name="uni00AD" unicode="&#xad;" horiz-adv-x="534" 
d="M0 412v293h535v-293h-535z" />
    <glyph glyph-name="registered" unicode="&#xae;" horiz-adv-x="1380" 
d="M6 659q0 188 91 344t248 245t345 89t345 -89t248 -245t91 -344t-91 -345t-248 -247t-345 -90t-345 90t-248 247t-91 345zM154 659q0 -111 42 -210t113.5 -170t171 -112.5t209.5 -41.5q147 0 270.5 70t195 193t71.5 271q0 147 -71.5 269t-195 192t-270.5 70t-270.5 -70
t-194.5 -192t-71 -269zM389 297v725h305q151 0 237.5 -59t86.5 -177q0 -62 -44 -113t-102 -65q74 -40 122.5 -128t56.5 -183h-242q-17 59 -54.5 125t-76.5 108h-51v-233h-238zM627 715h67q74 0 74 63q0 25 -18 42.5t-54 17.5h-69v-123z" />
    <glyph glyph-name="degree" unicode="&#xb0;" horiz-adv-x="737" 
d="M72 1087q-2 119 84 205t206 86t206.5 -85.5t86.5 -205.5q0 -121 -85.5 -206.5t-207.5 -85.5q-120 0 -205 85.5t-85 206.5zM285 1087q2 -34 24 -55.5t56 -21.5q32 0 53.5 21.5t21.5 55.5q0 32 -23 55t-55 23t-54.5 -23t-22.5 -55z" />
    <glyph glyph-name="plusminus" unicode="&#xb1;" horiz-adv-x="1157" 
d="M117 -10v297h925v-297h-925zM117 514v299h313v225h297v-225h313v-299h-313v-225h-297v225h-313z" />
    <glyph glyph-name="uni00B2" unicode="&#xb2;" horiz-adv-x="772" 
d="M61 1192q44 72 132.5 116t187.5 44q147 0 235.5 -75.5t88.5 -201.5q0 -79 -45 -150t-164 -180h215v-239h-643v166l18 39q103 90 268 260q56 56 56 106q-2 13 -9.5 18t-29.5 5q-39 0 -75 -27t-56 -72z" />
    <glyph glyph-name="uni00B3" unicode="&#xb3;" horiz-adv-x="782" 
d="M61 651l158 170q60 -94 152 -94q35 0 48 10.5t13 36.5q0 30 -15 41.5t-57 11.5h-65l-51 52v176h112q58 0 58 37q0 10 -6.5 13t-32.5 3q-23 0 -52.5 -11t-48.5 -26l-71 6l-101 121q34 67 116.5 108.5t182.5 43.5q131 5 217.5 -64.5t86.5 -179.5q0 -94 -62 -156
q84 -71 84 -186q-1 -120 -97 -196t-245 -76q-109 0 -185.5 38t-138.5 121z" />
    <glyph glyph-name="mu" unicode="&#xb5;" horiz-adv-x="1087" 
d="M117 -453v1260h336v-414q0 -102 16.5 -134t71.5 -32q35 0 56.5 12.5t31.5 38.5t13 52.5t3 68.5v408h332v-524q0 -52 9.5 -109.5t19.5 -71.5l-25 -77l-223 -72l-58 20q-11 19 -22 43q-82 -73 -219 -73h-6v-396h-336z" />
    <glyph glyph-name="paragraph" unicode="&#xb6;" horiz-adv-x="1222" 
d="M82 881q0 114 54 214t146.5 160t198.5 60h680v-254h-143v-1321h-266v1321h-66v-1321h-266v721q-153 19 -245.5 133t-92.5 287z" />
    <glyph glyph-name="periodcentered" unicode="&#xb7;" horiz-adv-x="763" 
d="M182 446q0 82 58 139.5t141 57.5t142 -57.5t59 -139.5q0 -83 -59.5 -141.5t-141.5 -58.5t-140.5 58.5t-58.5 141.5z" />
    <glyph glyph-name="uni00B9" unicode="&#xb9;" horiz-adv-x="880" 
d="M182 1169q53 -6 143 53t115 113h232v-829h-289v477q-69 -36 -139 -49z" />
    <glyph glyph-name="ordmasculine" unicode="&#xba;" horiz-adv-x="649" 
d="M-4 1063q0 132 94.5 218.5t235.5 86.5t234 -86.5t93 -218.5q0 -105 -58.5 -182t-156.5 -107h205v-223h-637v223h205q-98 30 -156.5 107t-58.5 182zM256 1065q0 -39 19.5 -62.5t50.5 -23.5q29 0 48 24t19 62t-18 59t-49 21q-32 0 -51 -21.5t-19 -58.5z" />
    <glyph glyph-name="guillemotright" unicode="&#xbb;" horiz-adv-x="1196" 
d="M92 252q145 138 279 307q-134 169 -279 307l152 138q115 -80 237 -194t178 -200q19 -29 19 -51.5t-19 -50.5q-56 -86 -177.5 -199.5t-237.5 -193.5zM563 252q145 138 279 307q-134 169 -279 307l152 138q115 -80 237 -194t178 -200q19 -29 19 -51.5t-19 -50.5
q-56 -86 -177.5 -199.5t-237.5 -193.5z" />
    <glyph glyph-name="onequarter" unicode="&#xbc;" horiz-adv-x="1843" 
d="M113 1149q53 -6 143 53t115 113h231v-830h-289v478q-70 -37 -139 -50zM449 82l677 1280q36 -9 138 -53q30 -15 36 -17l25 -71q-199 -372 -393 -744l-262 -497l-66 -23q-9 4 -28 12.5t-23 10.5q-31 11 -80 32zM932 121v145q71 141 182 299q95 147 217 264h264v-473h70
v-235h-70v-121h-280v121h-383zM1257 356h58v88q-7 -12 -27.5 -41.5t-30.5 -46.5z" />
    <glyph glyph-name="onehalf" unicode="&#xbd;" horiz-adv-x="1769" 
d="M113 1149q51 -6 141 53t117 113h229v-809l451 850q41 -11 135 -53l37 -17l24 -72l-393 -743q-86 -166 -262 -498l-64 -22q-22 8 -53 22q-15 6 -43.5 18t-36.5 15l-22 70l217 409h-279v478q-71 -38 -139 -50zM985 686q44 71 132.5 114.5t187.5 43.5q146 0 234.5 -75.5
t88.5 -201.5q0 -78 -45.5 -149t-163.5 -178h215v-240h-643v166l19 39q103 90 268 260q55 52 55 104q-2 14 -9 18.5t-30 4.5q-39 0 -75 -26t-56 -70z" />
    <glyph glyph-name="threequarters" unicode="&#xbe;" horiz-adv-x="1622" 
d="M84 633l156 170q29 -46 69 -71t84 -25q33 0 47.5 11t14.5 36q0 30 -15.5 41.5t-56.5 11.5h-66l-51 51v178h111q59 0 59 35q0 10 -6.5 13t-34.5 3q-53 0 -98 -36l-72 6l-102 123q34 66 117.5 106.5t183.5 42.5q131 5 217 -64.5t86 -179.5q0 -92 -61 -153q84 -71 84 -189
q0 -21 -9 -61l361 680q41 -11 135 -53q28 -14 37 -17l24 -71l-393 -744q-63 -122 -262 -497l-65 -23l-52 23l-80 32l-22 70l264 500q-45 -52 -118 -81.5t-162 -29.5q-109 0 -186.5 38.5t-137.5 123.5zM827 121v145q73 146 181 299q102 151 217 264h266v-473h70v-235h-70
v-121h-281v121h-383zM1151 356h59v88q-35 -50 -59 -88z" />
    <glyph glyph-name="questiondown" unicode="&#xbf;" horiz-adv-x="790" 
d="M41 -152q0 61 32.5 119.5t79.5 105t93.5 90.5t79 91.5t32.5 91.5q0 45 -28 113h264q4 -12 12 -34.5t12 -34.5t7.5 -30t3.5 -34q0 -52 -27 -109t-65.5 -104t-77 -89t-65.5 -78t-27 -57q0 -29 26.5 -47t65.5 -18q84 0 157 76l134 -213q-56 -53 -150 -87t-192 -34
q-161 0 -264 78t-103 204zM305 666q0 66 43 107.5t111 41.5q66 0 108.5 -41.5t42.5 -107.5q0 -65 -42.5 -106.5t-108.5 -41.5q-67 0 -110.5 41.5t-43.5 106.5z" />
    <glyph glyph-name="Agrave" unicode="&#xc0;" 
d="M-8 0q82 349 254 778q115 301 241 537h334q112 -210 242 -537q172 -429 254 -778h-344q-21 83 -70 238h-497q-44 -142 -72 -238h-342zM393 1602l156 213l354 -240l-110 -162zM508 541h293q-94 256 -148 381q-38 -90 -145 -381z" />
    <glyph glyph-name="Aacute" unicode="&#xc1;" 
d="M-8 0q82 349 254 778q115 301 241 537h334q112 -210 242 -537q172 -429 254 -778h-344q-21 83 -70 238h-497q-44 -142 -72 -238h-342zM420 1575l354 240l158 -213l-400 -189zM508 541h293q-94 256 -148 381q-38 -90 -145 -381z" />
    <glyph glyph-name="Acircumflex" unicode="&#xc2;" 
d="M-8 0q82 349 254 778q115 301 241 537h334q112 -210 242 -537q172 -429 254 -778h-344q-21 83 -70 238h-497q-44 -142 -72 -238h-342zM334 1499q64 66 174 162t147 117q37 -21 147.5 -117.5t174.5 -161.5l-125 -139q-155 149 -197 174q-14 -9 -34 -24.5t-45 -38.5
t-41 -38t-44 -42t-32 -31zM508 541h293q-94 256 -148 381q-38 -90 -145 -381z" />
    <glyph glyph-name="Atilde" unicode="&#xc3;" 
d="M-8 0q82 349 254 778q115 301 241 537h334q112 -210 242 -537q172 -429 254 -778h-344q-21 83 -70 238h-497q-44 -142 -72 -238h-342zM367 1409q-15 119 30 195.5t131 76.5q43 0 122 -21.5t108 -21.5q49 0 49 50h137q15 -118 -34 -195.5t-136 -77.5q-35 0 -117 21.5
t-106 21.5q-47 0 -47 -49h-137zM508 541h293q-94 256 -148 381q-38 -90 -145 -381z" />
    <glyph glyph-name="Adieresis" unicode="&#xc4;" 
d="M-8 0q82 349 254 778q115 301 241 537h334q112 -210 242 -537q172 -429 254 -778h-344q-21 83 -70 238h-497q-44 -142 -72 -238h-342zM315 1602q0 61 44.5 103t107.5 42q61 0 104 -42t43 -103t-43.5 -105.5t-103.5 -44.5q-63 0 -107.5 44t-44.5 106zM508 541h293
q-94 256 -148 381q-38 -90 -145 -381zM696 1602q0 61 44.5 103t107.5 42q61 0 104 -42t43 -103t-43.5 -105.5t-103.5 -44.5q-63 0 -107.5 44t-44.5 106z" />
    <glyph glyph-name="Aring" unicode="&#xc5;" 
d="M-8 0q82 349 254 778q115 301 241 537h334q112 -210 242 -537q172 -429 254 -778h-344q-21 83 -70 238h-497q-44 -142 -72 -238h-342zM457 1591q0 80 58 137.5t140 57.5q83 0 142 -57.5t59 -137.5q0 -81 -58.5 -138.5t-140.5 -57.5q-83 0 -141.5 57t-58.5 139zM508 541
h293q-94 256 -148 381q-38 -90 -145 -381zM606 1591q0 -22 14.5 -36.5t36.5 -14.5q21 0 35.5 15t14.5 36q0 20 -15 34.5t-37 14.5q-20 0 -34.5 -14.5t-14.5 -34.5z" />
    <glyph glyph-name="AE" unicode="&#xc6;" horiz-adv-x="1781" 
d="M-74 0q59 148 177.5 363.5t269.5 447.5q178 283 362 504h959v-303h-484v-170h412v-303h-412v-236h523v-303h-871v272h-424q-74 -126 -145 -272h-367zM618 575h244v359q-102 -134 -244 -359z" />
    <glyph glyph-name="Ccedilla" unicode="&#xc7;" horiz-adv-x="1292" 
d="M47 670q0 191 86 343t239 237t345 85q129 0 251 -44.5t208 -123.5l-199 -260q-41 43 -109 72t-151 29q-145 -2 -229.5 -92t-84.5 -246q0 -174 85 -268.5t241 -94.5q87 0 157 32t107 89l221 -233q-144 -167 -374 -205q-14 -103 -72 -181t-174 -147l-117 129
q111 105 133 195q-260 32 -411.5 215t-151.5 469z" />
    <glyph glyph-name="Egrave" unicode="&#xc8;" horiz-adv-x="1044" 
d="M127 0v1315h829v-303h-481v-176h410v-304h-410v-229h520v-303h-868zM281 1602l155 213l355 -240l-111 -162z" />
    <glyph glyph-name="Eacute" unicode="&#xc9;" horiz-adv-x="1044" 
d="M127 0v1315h829v-303h-481v-176h410v-304h-410v-229h520v-303h-868zM307 1575l355 240l157 -213l-399 -189z" />
    <glyph glyph-name="Ecircumflex" unicode="&#xca;" horiz-adv-x="1044" 
d="M127 0v1315h829v-303h-481v-176h410v-304h-410v-229h520v-303h-868zM221 1499q64 65 174.5 161.5t147.5 117.5q37 -21 147 -117t174 -162l-125 -139q-4 4 -32 31t-44 42t-41 38t-45 38.5t-34 24.5q-42 -25 -197 -174z" />
    <glyph glyph-name="Edieresis" unicode="&#xcb;" horiz-adv-x="1044" 
d="M127 0v1315h829v-303h-481v-176h410v-304h-410v-229h520v-303h-868zM203 1602q0 61 44 103t107 42q61 0 104.5 -42t43.5 -103t-44 -105.5t-104 -44.5q-63 0 -107 44t-44 106zM584 1602q0 61 44 103t107 42q61 0 104.5 -42t43.5 -103t-44 -105.5t-104 -44.5q-63 0 -107 44
t-44 106z" />
    <glyph glyph-name="Igrave" unicode="&#xcc;" horiz-adv-x="602" 
d="M39 1602l156 213l354 -240l-111 -162zM127 0v1315h348v-1315h-348z" />
    <glyph glyph-name="Iacute" unicode="&#xcd;" horiz-adv-x="602" 
d="M66 1575l354 240l158 -213l-400 -189zM127 0v1315h348v-1315h-348z" />
    <glyph glyph-name="Icircumflex" unicode="&#xce;" horiz-adv-x="602" 
d="M-20 1499q64 66 174 162t147 117q37 -21 147.5 -117.5t174.5 -161.5l-125 -139q-155 149 -197 174q-42 -25 -197 -174zM127 0v1315h348v-1315h-348z" />
    <glyph glyph-name="Idieresis" unicode="&#xcf;" horiz-adv-x="602" 
d="M-39 1602q0 61 44.5 103t107.5 42q61 0 104 -42t43 -103t-43.5 -105.5t-103.5 -44.5q-63 0 -107.5 44t-44.5 106zM127 0v1315h348v-1315h-348zM342 1602q0 61 44.5 103t107.5 42q61 0 104 -42t43 -103t-43.5 -105.5t-103.5 -44.5q-63 0 -107.5 44t-44.5 106z" />
    <glyph glyph-name="Eth" unicode="&#xd0;" horiz-adv-x="1318" 
d="M37 506v303h90v506h498q302 0 474.5 -175.5t172.5 -484.5q0 -297 -177.5 -476t-471.5 -179h-496v506h-90zM475 303h88q192 0 272 80.5t80 273.5q0 186 -84 270.5t-268 84.5h-88v-203h207v-303h-207v-203z" />
    <glyph glyph-name="Ntilde" unicode="&#xd1;" horiz-adv-x="1540" 
d="M127 0v1339h178q205 -136 410 -317t350 -354v647h348v-1315h-297q-113 219 -268 406.5t-373 384.5v-791h-348zM481 1409q-15 119 30.5 195.5t131.5 76.5q43 0 121.5 -21.5t107.5 -21.5q50 0 50 50h137q15 -118 -34 -195.5t-136 -77.5q-35 0 -117 21.5t-106 21.5
q-48 0 -48 -49h-137z" />
    <glyph glyph-name="Ograve" unicode="&#xd2;" horiz-adv-x="1421" 
d="M47 672q0 193 84 344.5t235 235t343 83.5q194 0 345.5 -83.5t235.5 -234.5t84 -345q0 -315 -180.5 -503.5t-484.5 -188.5q-302 0 -482 188t-180 504zM403 674q0 -175 84 -281t222 -106q149 0 229 101t80 286q0 159 -85 256.5t-224 97.5q-143 0 -224.5 -93.5t-81.5 -260.5
zM449 1602l155 213l354 -240l-110 -162z" />
    <glyph glyph-name="Oacute" unicode="&#xd3;" horiz-adv-x="1421" 
d="M47 672q0 193 84 344.5t235 235t343 83.5q194 0 345.5 -83.5t235.5 -234.5t84 -345q0 -315 -180.5 -503.5t-484.5 -188.5q-302 0 -482 188t-180 504zM403 674q0 -175 84 -281t222 -106q149 0 229 101t80 286q0 159 -85 256.5t-224 97.5q-143 0 -224.5 -93.5t-81.5 -260.5
zM475 1575l354 240l158 -213l-399 -189z" />
    <glyph glyph-name="Ocircumflex" unicode="&#xd4;" horiz-adv-x="1421" 
d="M47 672q0 193 84 344.5t235 235t343 83.5q194 0 345.5 -83.5t235.5 -234.5t84 -345q0 -315 -180.5 -503.5t-484.5 -188.5q-302 0 -482 188t-180 504zM389 1499q64 65 174.5 161.5t147.5 117.5q37 -21 147 -117t174 -162l-125 -139q-4 4 -32 31t-44 42t-41 38t-45 38.5
t-34 24.5q-42 -25 -197 -174zM403 674q0 -175 84 -281t222 -106q149 0 229 101t80 286q0 159 -85 256.5t-224 97.5q-143 0 -224.5 -93.5t-81.5 -260.5z" />
    <glyph glyph-name="Otilde" unicode="&#xd5;" horiz-adv-x="1421" 
d="M47 672q0 193 84 344.5t235 235t343 83.5q194 0 345.5 -83.5t235.5 -234.5t84 -345q0 -315 -180.5 -503.5t-484.5 -188.5q-302 0 -482 188t-180 504zM403 674q0 -175 84 -281t222 -106q149 0 229 101t80 286q0 159 -85 256.5t-224 97.5q-143 0 -224.5 -93.5t-81.5 -260.5
zM422 1409q-15 119 30.5 195.5t131.5 76.5q43 0 121.5 -21.5t107.5 -21.5q49 0 49 50h137q15 -118 -34 -195.5t-136 -77.5q-35 0 -117 21.5t-106 21.5q-47 0 -47 -49h-137z" />
    <glyph glyph-name="Odieresis" unicode="&#xd6;" horiz-adv-x="1421" 
d="M47 672q0 193 84 344.5t235 235t343 83.5q194 0 345.5 -83.5t235.5 -234.5t84 -345q0 -315 -180.5 -503.5t-484.5 -188.5q-302 0 -482 188t-180 504zM371 1602q0 61 44 103t107 42q61 0 104.5 -42t43.5 -103t-44 -105.5t-104 -44.5q-63 0 -107 44t-44 106zM403 674
q0 -175 84 -281t222 -106q149 0 229 101t80 286q0 159 -85 256.5t-224 97.5q-143 0 -224.5 -93.5t-81.5 -260.5zM752 1602q0 61 44 103t107 42q61 0 104.5 -42t43.5 -103t-44 -105.5t-104 -44.5q-63 0 -107 44t-44 106z" />
    <glyph glyph-name="multiply" unicode="&#xd7;" horiz-adv-x="1193" 
d="M92 150q115 151 293 335q-163 151 -285 244l181 234q142 -105 315 -269q194 181 317 271l183 -234q-125 -90 -289 -246q171 -177 295 -335l-232 -187q-81 113 -274 313q-181 -189 -272 -311z" />
    <glyph glyph-name="Oslash" unicode="&#xd8;" horiz-adv-x="1421" 
d="M-10 35l178 207q-121 175 -121 430q0 193 84 344.5t235 235t343 83.5q188 0 335 -78l177 205l209 -180l-177 -205q121 -172 121 -405q0 -315 -180.5 -503.5t-484.5 -188.5q-190 0 -334 75l-174 -200zM403 674q0 -69 17 -139l407 471q-58 22 -118 22q-143 0 -224.5 -93.5
t-81.5 -260.5zM592 309q55 -22 117 -22q149 0 229 101t80 286q0 65 -14 114z" />
    <glyph glyph-name="Ugrave" unicode="&#xd9;" horiz-adv-x="1320" 
d="M115 522v793h348v-752q0 -164 42.5 -226.5t153.5 -62.5q116 0 157.5 60.5t41.5 228.5v752h348v-793q0 -282 -131.5 -413.5t-415.5 -131.5q-101 0 -183 17.5t-138 46t-97.5 71.5t-65 88t-37.5 103t-18.5 108t-4.5 111zM399 1602l156 213l354 -240l-110 -162z" />
    <glyph glyph-name="Uacute" unicode="&#xda;" horiz-adv-x="1320" 
d="M115 522v793h348v-752q0 -164 42.5 -226.5t153.5 -62.5q116 0 157.5 60.5t41.5 228.5v752h348v-793q0 -282 -131.5 -413.5t-415.5 -131.5q-101 0 -183 17.5t-138 46t-97.5 71.5t-65 88t-37.5 103t-18.5 108t-4.5 111zM426 1575l354 240l158 -213l-399 -189z" />
    <glyph glyph-name="Ucircumflex" unicode="&#xdb;" horiz-adv-x="1320" 
d="M115 522v793h348v-752q0 -164 42.5 -226.5t153.5 -62.5q116 0 157.5 60.5t41.5 228.5v752h348v-793q0 -282 -131.5 -413.5t-415.5 -131.5q-101 0 -183 17.5t-138 46t-97.5 71.5t-65 88t-37.5 103t-18.5 108t-4.5 111zM340 1499q64 65 174.5 161.5t147.5 117.5
q37 -21 147 -117t174 -162l-125 -139q-4 4 -32 31t-44 42t-41 38t-45 38.5t-34 24.5q-42 -25 -197 -174z" />
    <glyph glyph-name="Udieresis" unicode="&#xdc;" horiz-adv-x="1320" 
d="M115 522v793h348v-752q0 -164 42.5 -226.5t153.5 -62.5q116 0 157.5 60.5t41.5 228.5v752h348v-793q0 -282 -131.5 -413.5t-415.5 -131.5q-101 0 -183 17.5t-138 46t-97.5 71.5t-65 88t-37.5 103t-18.5 108t-4.5 111zM322 1602q0 61 44 103t107 42q61 0 104.5 -42
t43.5 -103t-44 -105.5t-104 -44.5q-63 0 -107 44t-44 106zM702 1602q0 61 44.5 103t107.5 42q61 0 104 -42t43 -103t-43.5 -105.5t-103.5 -44.5q-63 0 -107.5 44t-44.5 106z" />
    <glyph glyph-name="Yacute" unicode="&#xdd;" horiz-adv-x="1196" 
d="M-8 1315h352q56 -150 112.5 -266.5t143.5 -251.5q158 254 252 518h352q-129 -420 -430 -832v-483h-348v479q-142 193 -258 414t-176 422zM362 1575l355 240l157 -213l-399 -189z" />
    <glyph glyph-name="Thorn" unicode="&#xde;" horiz-adv-x="1148" 
d="M127 0v1315h348v-205h139q242 0 368 -114t126 -334q0 -209 -131 -328t-361 -119h-141v-215h-348zM475 504h131q74 0 110 39.5t36 122.5t-33.5 119t-110.5 36h-133v-317z" />
    <glyph glyph-name="germandbls" unicode="&#xdf;" horiz-adv-x="1093" 
d="M10 559v246h115v248q0 188 120.5 293.5t325.5 105.5q194 0 321.5 -104.5t127.5 -280.5q0 -78 -48 -160t-110 -102q116 -56 175 -149t59 -212q0 -155 -73.5 -266.5t-205 -159.5t-297.5 -20v248q119 -6 178.5 45t59.5 153q0 94 -61 144.5t-177 50.5v246q83 0 124.5 41.5
t41.5 132.5q0 55 -34.5 87t-80.5 32q-45 0 -78.5 -33t-33.5 -92v-1053h-334v559h-115z" />
    <glyph glyph-name="agrave" unicode="&#xe0;" horiz-adv-x="946" 
d="M39 244q0 89 71 154t205 100q66 18 193 32q-4 34 -33 53t-72 19q-65 0 -141.5 -23t-132.5 -59l-57 221q47 35 155 60.5t211 25.5q410 0 410 -378v-170q0 -131 41 -234l-314 -59l-28 73q-82 -82 -236 -82q-133 0 -202.5 69.5t-69.5 197.5zM147 1200l228 152l260 -361
l-168 -112zM356 258q0 -32 23 -52t59 -20q33 0 57.5 23t32.5 53v107l-61 -17q-111 -29 -111 -94z" />
    <glyph glyph-name="aacute" unicode="&#xe1;" horiz-adv-x="946" 
d="M39 244q0 89 71 154t205 100q66 18 193 32q-4 34 -33 53t-72 19q-65 0 -141.5 -23t-132.5 -59l-57 221q47 35 155 60.5t211 25.5q410 0 410 -378v-170q0 -131 41 -234l-314 -59l-28 73q-82 -82 -236 -82q-133 0 -202.5 69.5t-69.5 197.5zM301 991l260 361l225 -152
l-319 -321zM356 258q0 -32 23 -52t59 -20q33 0 57.5 23t32.5 53v107l-61 -17q-111 -29 -111 -94z" />
    <glyph glyph-name="acircumflex" unicode="&#xe2;" horiz-adv-x="946" 
d="M39 244q0 89 71 154t205 100q66 18 193 32q-4 34 -33 53t-72 19q-65 0 -141.5 -23t-132.5 -59l-57 221q47 35 155 60.5t211 25.5q410 0 410 -378v-170q0 -131 41 -234l-314 -59l-28 73q-82 -82 -236 -82q-133 0 -202.5 69.5t-69.5 197.5zM156 989q64 66 174 162t147 117
q37 -21 147.5 -117.5t174.5 -161.5l-125 -139q-155 149 -197 174q-14 -9 -34 -24.5t-45 -38.5t-41 -38t-44 -42t-32 -31zM356 258q0 -32 23 -52t59 -20q33 0 57.5 23t32.5 53v107l-61 -17q-111 -29 -111 -94z" />
    <glyph glyph-name="atilde" unicode="&#xe3;" horiz-adv-x="946" 
d="M39 244q0 89 71 154t205 100q66 18 193 32q-4 34 -33 53t-72 19q-65 0 -141.5 -23t-132.5 -59l-57 221q47 35 155 60.5t211 25.5q410 0 410 -378v-170q0 -131 41 -234l-314 -59l-28 73q-82 -82 -236 -82q-133 0 -202.5 69.5t-69.5 197.5zM188 899q-15 119 30.5 195.5
t131.5 76.5q43 0 122 -21.5t108 -21.5q49 0 49 50h137q15 -118 -34 -195.5t-136 -77.5q-35 0 -117 21.5t-106 21.5q-47 0 -47 -49h-138zM356 258q0 -32 23 -52t59 -20q33 0 57.5 23t32.5 53v107l-61 -17q-111 -29 -111 -94z" />
    <glyph glyph-name="adieresis" unicode="&#xe4;" horiz-adv-x="946" 
d="M39 244q0 89 71 154t205 100q66 18 193 32q-4 34 -33 53t-72 19q-65 0 -141.5 -23t-132.5 -59l-57 221q47 35 155 60.5t211 25.5q410 0 410 -378v-170q0 -131 41 -234l-314 -59l-28 73q-82 -82 -236 -82q-133 0 -202.5 69.5t-69.5 197.5zM137 1092q0 61 44.5 103
t107.5 42q61 0 104 -42t43 -103t-43.5 -105.5t-103.5 -44.5q-63 0 -107.5 44t-44.5 106zM356 258q0 -32 23 -52t59 -20q33 0 57.5 23t32.5 53v107l-61 -17q-111 -29 -111 -94zM518 1092q0 61 44.5 103t107.5 42q61 0 104 -42t43 -103t-43.5 -105.5t-103.5 -44.5
q-63 0 -107.5 44t-44.5 106z" />
    <glyph glyph-name="aring" unicode="&#xe5;" horiz-adv-x="946" 
d="M39 244q0 89 71 154t205 100q66 18 193 32q-4 34 -33 53t-72 19q-65 0 -141.5 -23t-132.5 -59l-57 221q47 35 155 60.5t211 25.5q410 0 410 -378v-170q0 -131 41 -234l-314 -59l-28 73q-82 -82 -236 -82q-133 0 -202.5 69.5t-69.5 197.5zM279 1081q0 80 58 137.5
t140 57.5q83 0 142 -57.5t59 -137.5q0 -81 -58.5 -138.5t-140.5 -57.5q-83 0 -141.5 57t-58.5 139zM356 258q0 -32 23 -52t59 -20q33 0 57.5 23t32.5 53v107l-61 -17q-111 -29 -111 -94zM428 1081q0 -22 14.5 -36.5t36.5 -14.5q20 0 34.5 14.5t14.5 36.5q0 20 -14.5 34.5
t-36.5 14.5q-20 0 -34.5 -14.5t-14.5 -34.5z" />
    <glyph glyph-name="ae" unicode="&#xe6;" horiz-adv-x="1394" 
d="M39 225q0 212 305 281l162 37q-28 49 -117 49q-60 0 -130.5 -21t-125.5 -51l-63 219q181 88 362 88q179 0 277 -88q98 88 243 88q193 0 297.5 -115.5t104.5 -328.5v-53h-498q16 -60 62 -89.5t110 -29.5q112 0 201 74l127 -191q-176 -117 -357 -117q-105 0 -196 39
t-148 115q-42 -67 -127 -110.5t-202 -43.5q-133 0 -210 68.5t-77 179.5zM362 264q0 -23 17 -38t45 -15q34 0 63.5 22.5t40.5 53.5v75l-84 -22q-82 -21 -82 -76zM858 516h186q-9 45 -29.5 65.5t-56.5 20.5q-44 0 -67.5 -20t-32.5 -66z" />
    <glyph glyph-name="ccedilla" unicode="&#xe7;" horiz-adv-x="794" 
d="M39 406q0 185 130 303t327 118q156 0 286 -88l-123 -223q-75 51 -139 51q-65 0 -104 -42.5t-39 -118.5q0 -84 35 -127t102 -43q84 0 150 57l122 -209q-89 -72 -196 -94q-14 -102 -72 -181t-174 -147l-117 129q110 105 133 197q-148 31 -234.5 141t-86.5 277z" />
    <glyph glyph-name="egrave" unicode="&#xe8;" horiz-adv-x="933" 
d="M39 393q0 198 119 316t313 118q203 0 311.5 -120t108.5 -324v-45h-518q13 -69 60 -102t118 -33q69 0 128 19t89 54l127 -182q-151 -114 -367 -114q-234 0 -361.5 111t-127.5 302zM129 1200l227 152l260 -361l-167 -112zM375 500h211q0 50 -25.5 84t-75.5 34
q-46 0 -75 -32.5t-35 -85.5z" />
    <glyph glyph-name="eacute" unicode="&#xe9;" horiz-adv-x="933" 
d="M39 393q0 198 119 316t313 118q203 0 311.5 -120t108.5 -324v-45h-518q13 -69 60 -102t118 -33q69 0 128 19t89 54l127 -182q-151 -114 -367 -114q-234 0 -361.5 111t-127.5 302zM283 991l260 361l225 -152l-319 -321zM375 500h211q0 50 -25.5 84t-75.5 34
q-46 0 -75 -32.5t-35 -85.5z" />
    <glyph glyph-name="ecircumflex" unicode="&#xea;" horiz-adv-x="933" 
d="M39 393q0 198 119 316t313 118q203 0 311.5 -120t108.5 -324v-45h-518q13 -69 60 -102t118 -33q69 0 128 19t89 54l127 -182q-151 -114 -367 -114q-234 0 -361.5 111t-127.5 302zM137 989q64 65 174.5 161.5t147.5 117.5q37 -21 147 -117t174 -162l-125 -139q-4 4 -32 31
t-44 42t-41 38t-45 38.5t-34 24.5q-42 -25 -197 -174zM375 500h211q0 50 -25.5 84t-75.5 34q-46 0 -75 -32.5t-35 -85.5z" />
    <glyph glyph-name="edieresis" unicode="&#xeb;" horiz-adv-x="933" 
d="M39 393q0 198 119 316t313 118q203 0 311.5 -120t108.5 -324v-45h-518q13 -69 60 -102t118 -33q69 0 128 19t89 54l127 -182q-151 -114 -367 -114q-234 0 -361.5 111t-127.5 302zM119 1092q0 61 44 103t107 42q61 0 104.5 -42t43.5 -103t-44 -105.5t-104 -44.5
q-63 0 -107 44t-44 106zM375 500h211q0 50 -25.5 84t-75.5 34q-46 0 -75 -32.5t-35 -85.5zM500 1092q0 61 44 103t107 42q61 0 104.5 -42t43.5 -103t-44 -105.5t-104 -44.5q-63 0 -107 44t-44 106z" />
    <glyph glyph-name="igrave" unicode="&#xec;" horiz-adv-x="546" 
d="M-55 1200l227 152l260 -361l-168 -112zM106 0v805h334v-805h-334z" />
    <glyph glyph-name="iacute" unicode="&#xed;" horiz-adv-x="546" 
d="M98 991l260 361l226 -152l-320 -321zM106 0v805h334v-805h-334z" />
    <glyph glyph-name="icircumflex" unicode="&#xee;" horiz-adv-x="546" 
d="M-47 989q64 66 174 162t147 117q37 -21 147.5 -117.5t174.5 -161.5l-125 -139q-155 149 -197 174q-14 -9 -34 -24.5t-45 -38.5t-41 -38t-44 -42t-32 -31zM106 0v805h334v-805h-334z" />
    <glyph glyph-name="idieresis" unicode="&#xef;" horiz-adv-x="546" 
d="M-66 1092q0 61 44.5 103t107.5 42q61 0 104 -42t43 -103t-43.5 -105.5t-103.5 -44.5q-63 0 -107.5 44t-44.5 106zM106 0v805h334v-805h-334zM315 1092q0 61 44.5 103t107.5 42q61 0 104 -42t43 -103t-43.5 -105.5t-103.5 -44.5q-63 0 -107.5 44t-44.5 106z" />
    <glyph glyph-name="eth" unicode="&#xf0;" horiz-adv-x="1050" 
d="M49 1047l187 137q-8 7 -31 28.5t-37 32.5q-13 13 -21 19l3 75q15 14 98 82q45 34 47 35h63q62 -51 111 -98q79 58 176 125q28 -27 58 -57t66 -66.5t56 -56.5l-178 -132q48 -56 81 -96.5t90 -123t92 -153t63 -164t28 -179.5q0 -205 -132.5 -338t-338.5 -133
q-209 0 -342 132t-133 339q0 192 112.5 318t301.5 149q-20 32 -47 63l-12 14l-177 -131zM395 455q0 -68 40 -117t95 -49q56 0 95 48.5t39 117.5q0 70 -39 118t-95 48t-95.5 -48.5t-39.5 -117.5z" />
    <glyph glyph-name="ntilde" unicode="&#xf1;" horiz-adv-x="1105" 
d="M82 723l278 100q50 -55 56 -112q39 53 112 84.5t154 31.5q60 0 113.5 -18t97.5 -53.5t70 -96.5t26 -139v-520h-334v412q0 80 -20 114.5t-72 34.5q-55 0 -80.5 -36t-25.5 -113v-412h-334v500q0 123 -41 223zM264 899q-15 119 30.5 195.5t131.5 76.5q43 0 121.5 -21.5
t107.5 -21.5q50 0 50 50h137q15 -118 -34 -195.5t-136 -77.5q-35 0 -117 21.5t-106 21.5q-48 0 -48 -49h-137z" />
    <glyph glyph-name="ograve" unicode="&#xf2;" horiz-adv-x="1019" 
d="M39 399q0 196 129.5 312t341.5 116t341.5 -116t129.5 -312q0 -197 -128 -309.5t-343 -112.5q-214 0 -342.5 113t-128.5 309zM180 1200l228 152l260 -361l-168 -112zM377 399q0 -92 34 -139t99 -47q133 0 133 186q0 93 -35 143t-98 50q-133 0 -133 -193z" />
    <glyph glyph-name="oacute" unicode="&#xf3;" horiz-adv-x="1019" 
d="M39 399q0 196 129.5 312t341.5 116t341.5 -116t129.5 -312q0 -197 -128 -309.5t-343 -112.5q-214 0 -342.5 113t-128.5 309zM334 991l260 361l225 -152l-319 -321zM377 399q0 -92 34 -139t99 -47q133 0 133 186q0 93 -35 143t-98 50q-133 0 -133 -193z" />
    <glyph glyph-name="ocircumflex" unicode="&#xf4;" horiz-adv-x="1019" 
d="M39 399q0 196 129.5 312t341.5 116t341.5 -116t129.5 -312q0 -197 -128 -309.5t-343 -112.5q-214 0 -342.5 113t-128.5 309zM188 989q64 65 174.5 161.5t147.5 117.5q37 -21 147 -117t174 -162l-124 -139q-155 149 -197 174q-42 -25 -197 -174zM377 399q0 -92 34 -139
t99 -47q133 0 133 186q0 93 -35 143t-98 50q-133 0 -133 -193z" />
    <glyph glyph-name="otilde" unicode="&#xf5;" horiz-adv-x="1019" 
d="M39 399q0 196 129.5 312t341.5 116t341.5 -116t129.5 -312q0 -197 -128 -309.5t-343 -112.5q-214 0 -342.5 113t-128.5 309zM221 899q-15 119 30.5 195.5t131.5 76.5q43 0 121.5 -21.5t107.5 -21.5q50 0 50 50h137q15 -118 -34 -195.5t-136 -77.5q-35 0 -117 21.5
t-106 21.5q-48 0 -48 -49h-137zM377 399q0 -92 34 -139t99 -47q133 0 133 186q0 93 -35 143t-98 50q-133 0 -133 -193z" />
    <glyph glyph-name="odieresis" unicode="&#xf6;" horiz-adv-x="1019" 
d="M39 399q0 196 129.5 312t341.5 116t341.5 -116t129.5 -312q0 -197 -128 -309.5t-343 -112.5q-214 0 -342.5 113t-128.5 309zM170 1092q0 61 44.5 103t107.5 42q61 0 104 -42t43 -103t-43.5 -105.5t-103.5 -44.5q-63 0 -107.5 44t-44.5 106zM377 399q0 -92 34 -139t99 -47
q133 0 133 186q0 93 -35 143t-98 50q-133 0 -133 -193zM551 1092q0 61 44 103t107 42q61 0 104.5 -42t43.5 -103t-44 -105.5t-104 -44.5q-63 0 -107 44t-44 106z" />
    <glyph glyph-name="divide" unicode="&#xf7;" horiz-adv-x="1157" 
d="M117 295v299h377q-45 24 -72 66.5t-27 95.5q0 75 54.5 128.5t130.5 53.5q75 0 128.5 -53.5t53.5 -128.5q0 -51 -27 -94.5t-71 -67.5h376v-299h-381q47 -22 75 -65.5t28 -96.5q0 -76 -53.5 -129t-128.5 -53q-77 0 -131 53t-54 129q0 53 28 96.5t75 65.5h-381z" />
    <glyph glyph-name="oslash" unicode="&#xf8;" horiz-adv-x="1019" 
d="M39 399q0 196 129.5 312t341.5 116q119 0 209 -34l117 135l143 -123l-102 -119q104 -110 104 -287q0 -197 -128 -309.5t-343 -112.5q-117 0 -213 35l-113 -131l-143 125l98 113q-100 109 -100 280zM377 395l166 193q-20 4 -33 4q-133 0 -133 -193v-4zM473 217
q24 -4 37 -4q133 0 133 186v15z" />
    <glyph glyph-name="ugrave" unicode="&#xf9;" horiz-adv-x="1091" 
d="M117 340v467h334v-440q0 -59 17.5 -88t66.5 -29q62 0 81 29t19 90v438h334v-528q0 -131 41 -234l-314 -59l-30 75q-89 -86 -209 -86q-161 0 -250.5 94.5t-89.5 270.5zM217 1200l227 152l261 -361l-168 -112z" />
    <glyph glyph-name="uacute" unicode="&#xfa;" horiz-adv-x="1091" 
d="M117 340v467h334v-440q0 -59 17.5 -88t66.5 -29q62 0 81 29t19 90v438h334v-528q0 -131 41 -234l-314 -59l-30 75q-89 -86 -209 -86q-161 0 -250.5 94.5t-89.5 270.5zM371 991l260 361l225 -152l-319 -321z" />
    <glyph glyph-name="ucircumflex" unicode="&#xfb;" horiz-adv-x="1091" 
d="M117 340v467h334v-440q0 -59 17.5 -88t66.5 -29q62 0 81 29t19 90v438h334v-528q0 -131 41 -234l-314 -59l-30 75q-89 -86 -209 -86q-161 0 -250.5 94.5t-89.5 270.5zM225 989q64 65 174.5 161.5t147.5 117.5q37 -21 147 -117t174 -162l-125 -139q-4 4 -32 31t-44 42
t-41 38t-45 38.5t-34 24.5q-42 -25 -197 -174z" />
    <glyph glyph-name="udieresis" unicode="&#xfc;" horiz-adv-x="1091" 
d="M117 340v467h334v-440q0 -59 17.5 -88t66.5 -29q62 0 81 29t19 90v438h334v-528q0 -131 41 -234l-314 -59l-30 75q-89 -86 -209 -86q-161 0 -250.5 94.5t-89.5 270.5zM207 1092q0 61 44 103t107 42q61 0 104.5 -42t43.5 -103t-44 -105.5t-104 -44.5q-63 0 -107 44
t-44 106zM588 1092q0 61 44 103t107 42q61 0 104.5 -42t43.5 -103t-44 -105.5t-104 -44.5q-63 0 -107 44t-44 106z" />
    <glyph glyph-name="yacute" unicode="&#xfd;" horiz-adv-x="915" 
d="M-43 -455q101 120 313 459q-103 202 -180 420.5t-102 380.5h329q17 -86 56 -226.5t84 -248.5q77 233 135 475h334q-63 -309 -211 -641q-150 -337 -363 -619h-395zM283 991l260 361l225 -152l-319 -321z" />
    <glyph glyph-name="thorn" unicode="&#xfe;" horiz-adv-x="1095" 
d="M117 -453v1889h334v-684q90 75 225 75q57 0 110.5 -14t103 -46t86.5 -79t59 -118t22 -158q0 -199 -129 -317t-338 -118q-68 0 -139 15v-445h-334zM451 346q0 -67 29 -100t91 -33q70 0 102 46.5t32 152.5q0 172 -113 172q-141 0 -141 -146v-92z" />
    <glyph glyph-name="ydieresis" unicode="&#xff;" horiz-adv-x="915" 
d="M-43 -455q101 120 313 459q-103 202 -180 420.5t-102 380.5h329q17 -86 56 -226.5t84 -248.5q77 233 135 475h334q-63 -309 -211 -641q-150 -337 -363 -619h-395zM119 1092q0 61 44 103t107 42q61 0 104.5 -42t43.5 -103t-44 -105.5t-104 -44.5q-63 0 -107 44t-44 106z
M500 1092q0 61 44 103t107 42q61 0 104.5 -42t43.5 -103t-44 -105.5t-104 -44.5q-63 0 -107 44t-44 106z" />
    <glyph glyph-name="OE" unicode="&#x152;" horiz-adv-x="1937" 
d="M47 670q0 193 84.5 345t236 236t343.5 84q185 0 307 -67v47h831v-303h-483v-172h412v-303h-412v-234h522v-303h-870v45q-124 -65 -307 -65q-305 0 -484.5 187t-179.5 503zM401 672q0 -174 85 -279.5t225 -105.5q146 0 226.5 100.5t80.5 284.5q0 160 -84.5 258t-222.5 98
q-145 0 -227.5 -94.5t-82.5 -261.5z" />
    <glyph glyph-name="oe" unicode="&#x153;" horiz-adv-x="1564" 
d="M39 399q0 198 131.5 322.5t341.5 124.5q173 0 297 -88q120 88 289 88q203 0 314.5 -122t111.5 -343v-76h-531q17 -46 62.5 -72t111.5 -26q71 0 130.5 20.5t91.5 57.5q87 -142 137 -207q-36 -52 -146 -85.5t-237 -33.5q-200 0 -330 88q-124 -88 -301 -88
q-212 0 -342.5 121t-130.5 319zM381 399q0 -184 131 -184q133 0 133 184q0 93 -34.5 142t-98.5 49q-131 0 -131 -191zM995 522h203q-17 90 -94 90q-89 0 -109 -90z" />
    <glyph glyph-name="Ydieresis" unicode="&#x178;" horiz-adv-x="1196" 
d="M-8 1315h352q56 -150 112.5 -266.5t143.5 -251.5q158 254 252 518h352q-129 -420 -430 -832v-483h-348v479q-142 193 -258 414t-176 422zM258 1602q0 61 44.5 103t107.5 42q61 0 104 -42t43 -103t-43.5 -105.5t-103.5 -44.5q-63 0 -107.5 44t-44.5 106zM639 1602
q0 61 44.5 103t107.5 42q61 0 104 -42t43 -103t-43.5 -105.5t-103.5 -44.5q-63 0 -107.5 44t-44.5 106z" />
    <glyph glyph-name="uni2000" unicode="&#x2000;" horiz-adv-x="907" 
 />
    <glyph glyph-name="uni2001" unicode="&#x2001;" horiz-adv-x="1815" 
 />
    <glyph glyph-name="uni2002" unicode="&#x2002;" horiz-adv-x="907" 
 />
    <glyph glyph-name="uni2003" unicode="&#x2003;" horiz-adv-x="1815" 
 />
    <glyph glyph-name="uni2004" unicode="&#x2004;" horiz-adv-x="605" 
 />
    <glyph glyph-name="uni2005" unicode="&#x2005;" horiz-adv-x="453" 
 />
    <glyph glyph-name="uni2006" unicode="&#x2006;" horiz-adv-x="302" 
 />
    <glyph glyph-name="uni2007" unicode="&#x2007;" horiz-adv-x="302" 
 />
    <glyph glyph-name="uni2008" unicode="&#x2008;" horiz-adv-x="226" 
 />
    <glyph glyph-name="uni2009" unicode="&#x2009;" horiz-adv-x="363" 
 />
    <glyph glyph-name="uni200A" unicode="&#x200a;" horiz-adv-x="100" 
 />
    <glyph glyph-name="uni2010" unicode="&#x2010;" horiz-adv-x="534" 
d="M0 412v293h535v-293h-535z" />
    <glyph glyph-name="uni2011" unicode="&#x2011;" horiz-adv-x="534" 
d="M0 412v293h535v-293h-535z" />
    <glyph glyph-name="figuredash" unicode="&#x2012;" horiz-adv-x="534" 
d="M0 412v293h535v-293h-535z" />
    <glyph glyph-name="endash" unicode="&#x2013;" horiz-adv-x="903" 
d="M0 410v295h903v-295h-903z" />
    <glyph glyph-name="emdash" unicode="&#x2014;" horiz-adv-x="1708" 
d="M0 410v295h1708v-295h-1708z" />
    <glyph glyph-name="quoteleft" unicode="&#x2018;" horiz-adv-x="702" 
d="M123 844l237 487l220 -18l-177 -500z" />
    <glyph glyph-name="quoteright" unicode="&#x2019;" horiz-adv-x="702" 
d="M123 831l176 500l281 -31l-238 -487z" />
    <glyph glyph-name="quotesinglbase" unicode="&#x201a;" horiz-adv-x="702" 
d="M123 -266l176 499l281 -30l-238 -488z" />
    <glyph glyph-name="quotedblleft" unicode="&#x201c;" horiz-adv-x="1005" 
d="M123 842l239 487l222 -18l-178 -500zM483 842l179 487l221 -18l-117 -500z" />
    <glyph glyph-name="quotedblright" unicode="&#x201d;" horiz-adv-x="1005" 
d="M123 829l117 500l282 -31l-178 -487zM422 829l178 500l283 -31l-240 -487z" />
    <glyph glyph-name="quotedblbase" unicode="&#x201e;" horiz-adv-x="1005" 
d="M123 -268l117 499l282 -30l-178 -488zM422 -268l178 499l283 -30l-240 -488z" />
    <glyph glyph-name="bullet" unicode="&#x2022;" horiz-adv-x="937" 
d="M164 651q0 129 89 219.5t216 90.5t216 -90.5t89 -219.5t-89 -219t-216 -90t-216 90t-89 219z" />
    <glyph glyph-name="ellipsis" unicode="&#x2026;" horiz-adv-x="1601" 
d="M164 143q0 70 47 116t119 46t119 -46t47 -116t-47 -115.5t-119 -45.5t-119 45.5t-47 115.5zM635 143q0 70 47 116t119 46t119 -46t47 -116t-47 -115.5t-119 -45.5t-119 45.5t-47 115.5zM1106 143q0 70 47 116t119 46t119 -46t47 -116t-47 -115.5t-119 -45.5t-119 45.5
t-47 115.5z" />
    <glyph glyph-name="uni202F" unicode="&#x202f;" horiz-adv-x="363" 
 />
    <glyph glyph-name="guilsinglleft" unicode="&#x2039;" horiz-adv-x="724" 
d="M47 558.5q0 22.5 19 51.5q56 86 178 200t237 194l152 -138q-145 -138 -279 -307q134 -169 279 -307l-152 -137q-116 80 -237.5 193.5t-177.5 199.5q-19 28 -19 50.5z" />
    <glyph glyph-name="guilsinglright" unicode="&#x203a;" horiz-adv-x="724" 
d="M92 252q145 138 279 307q-134 169 -279 307l152 138q115 -80 237 -194t178 -200q19 -29 19 -51.5t-19 -50.5q-56 -86 -177.5 -199.5t-237.5 -193.5z" />
    <glyph glyph-name="uni205F" unicode="&#x205f;" horiz-adv-x="453" 
 />
    <glyph glyph-name="Euro" unicode="&#x20ac;" horiz-adv-x="1445" 
d="M43 463v164h158v43v20h-158v164h180q56 218 231 349.5t416 131.5q129 0 251 -44.5t208 -123.5l-199 -260q-41 43 -109 72t-151 29q-94 -1 -163.5 -41t-108.5 -113h510v-164h-551v-20q0 -29 2 -43h549v-164h-508q78 -156 283 -156q87 0 157 32t107 89l221 -233
q-89 -104 -219 -159.5t-283 -55.5q-249 0 -418 128.5t-225 354.5h-180z" />
    <glyph glyph-name="trademark" unicode="&#x2122;" horiz-adv-x="1857" 
d="M84 1114v223h672v-223h-205v-549h-264v549h-203zM768 565v772h305q99 -120 174 -266q74 144 174 266h305v-772h-264v387q-60 -120 -86 -202h-258q-26 82 -86 202v-387h-264z" />
    <glyph glyph-name="uni25FC" unicode="&#x25fc;" horiz-adv-x="808" 
d="M0 0v809h809v-809h-809z" />
    </font>
</defs>
</svg>
