<?xml version="1.0" standalone="no"?>
<!DOCTYPE svg PUBLIC "-//W3C//DTD SVG 1.1//EN" "http://www.w3.org/Graphics/SVG/1.1/DTD/svg11.dtd" >
<svg xmlns="http://www.w3.org/2000/svg" xmlns:xlink="http://www.w3.org/1999/xlink" version="1.1">
<metadata>
Created by FontForge 20200314 at Fri Oct 17 01:28:42 2008
 By Unknown
Copyright (c) 2008 by Serge Cortesi. All rights reserved.
</metadata>
<defs>
<font id="Citroen-Bold" horiz-adv-x="549" >
  <font-face 
    font-family="Citroen"
    font-weight="700"
    font-stretch="normal"
    units-per-em="1000"
    panose-1="2 0 0 0 0 0 0 0 0 0"
    ascent="800"
    descent="-200"
    x-height="393"
    cap-height="642"
    bbox="-157 -260 1045 1008"
    underline-thickness="50"
    underline-position="-150"
    unicode-range="U+0020-FB02"
  />
<missing-glyph horiz-adv-x="500" 
d="M0 0v700h500v-700h-500zM250 395l170 255h-340zM280 350l170 -255v510zM80 50h340l-170 255zM50 605v-510l170 255z" />
    <glyph glyph-name="f_i" unicode="fi" horiz-adv-x="508" 
d="M180 513v-120h98v-79h-98v-314h-123v314h-43v79h43v121q0 55 15.5 95.5t41.5 62t56 31t64 9.5q65 0 99 -22l-24 -77q-27 12 -51 12q-78 0 -78 -112zM456 393v-393h-123v393h123zM394 620q30 0 51 -21.5t21 -50.5q0 -30 -21 -51t-51 -21q-29 0 -50.5 21t-21.5 51
q0 29 21.5 50.5t50.5 21.5z" />
    <glyph glyph-name="f_l" unicode="fl" horiz-adv-x="551" 
d="M180 513v-120h98v-79h-98v-314h-123v314h-43v79h43v121q0 55 15.5 95.5t41.5 62t56 31t64 9.5q65 0 99 -22l-24 -77q-27 12 -51 12q-78 0 -78 -112zM473 175q0 -45 18 -68.5t58 -22.5v-90q-111 -4 -154.5 40.5t-43.5 142.5v524h122v-526z" />
    <glyph glyph-name=".notdef" horiz-adv-x="500" 
d="M0 0v700h500v-700h-500zM250 395l170 255h-340zM280 350l170 -255v510zM80 50h340l-170 255zM50 605v-510l170 255z" />
    <glyph glyph-name=".null" horiz-adv-x="0" 
 />
    <glyph glyph-name="nonmarkingreturn" horiz-adv-x="333" 
 />
    <glyph glyph-name="space" unicode=" " horiz-adv-x="220" 
 />
    <glyph glyph-name="exclam" unicode="!" horiz-adv-x="338" 
d="M169 128q29 0 48.5 -20t19.5 -49t-20 -49t-48 -20q-29 0 -49.5 20t-20.5 49t20.5 49t49.5 20zM103 191v452h130v-452h-130z" />
    <glyph glyph-name="quotedbl" unicode="&#x22;" horiz-adv-x="359" 
d="M42 641h108l-17 -279h-74zM210 641h107l-16 -279h-75z" />
    <glyph glyph-name="numbersign" unicode="#" horiz-adv-x="552" 
d="M209 617h91l-34 -172h86l33 172h90l-33 -172h68v-96h-84l-20 -106h80v-96h-101l-28 -147h-90l28 147h-86l-28 -147h-90l28 147h-77v96h96l20 106h-81v96h99zM249 349l-21 -106h87l22 106h-88z" />
    <glyph glyph-name="dollar" unicode="$" horiz-adv-x="654" 
d="M591 178q0 -75 -51.5 -126.5t-157.5 -61.5v-112h-68v110q-153 6 -252 76l58 98q80 -60 194 -69v166q-70 26 -94 37q-122 55 -122 169q-1 79 58 129.5t158 58.5v88h68v-86q49 -3 99 -21t80 -47l-51 -88q-46 48 -128 56v-175q68 -28 87 -36q62 -28 92.5 -67.5t29.5 -98.5z
M298 410q2 -1 7.5 -3t8.5 -4v152q-40 -4 -60 -23.5t-20 -47.5q0 -43 64 -74zM382 95q44 3 63 22.5t19 44.5q0 36 -49 61q-15 7 -33 15v-143z" />
    <glyph glyph-name="percent" unicode="%" horiz-adv-x="695" 
d="M170 657q67 0 111 -43t44 -110q0 -66 -44 -109t-111 -43t-111 43t-44 109q0 67 44.5 110t110.5 43zM170 587q-30 0 -49.5 -26t-19.5 -57t19.5 -55.5t49.5 -24.5q31 0 50 24.5t19 55.5q0 32 -19 57.5t-50 25.5zM490 661l61 -26l-347 -658l-61 27zM525 289q67 0 111 -43
t44 -110q0 -66 -44 -109t-111 -43t-111 43t-44 109q0 67 44 110t111 43zM525 218q-30 0 -49 -25.5t-19 -56.5t19 -56t49 -25t49 25t19 56t-19 56.5t-49 25.5z" />
    <glyph glyph-name="ampersand" unicode="&#x26;" horiz-adv-x="718" 
d="M729 424v-94h-108q14 -70 -20 -139q-5 -11 -17 -30q76 -43 132 -59l-34 -118q-79 22 -178 82q-12 -9 -36 -25q-89 -53 -186 -53q-111 0 -190.5 64.5t-80.5 163.5q-1 66 40.5 126t118.5 102q-2 14 -2 20q-3 76 50.5 134t150.5 57q50 -2 96 -22q52 -25 71 -67l-77 -51
q-10 19 -35.5 33t-52.5 13q-86 -3 -86 -92q2 -30 19 -60q48 -87 180 -184q3 -3 5 -4q13 23 21 54q9 33 2 55h-69v94h286zM179 145q33 -34 77.5 -47t86 -5t73.5 32q-1 1 -4 3q-143 106 -210 225q-1 1 -1 2q-39 -26 -52 -67.5t-3.5 -79.5t33.5 -63z" />
    <glyph glyph-name="quotesingle" unicode="'" horiz-adv-x="285" 
d="M134 650l97 -10l-108 -220l-69 6z" />
    <glyph glyph-name="parenleft" unicode="(" horiz-adv-x="262" 
d="M138 703l76 -50q-73 -155 -73 -382q0 -230 73 -382l-76 -51q-90 170 -90 439q0 111 22.5 225t67.5 201z" />
    <glyph glyph-name="parenright" unicode=")" horiz-adv-x="262" 
d="M48 653l76 50q45 -87 67.5 -201t22.5 -225q0 -269 -90 -439l-76 51q73 152 73 382q0 227 -73 382z" />
    <glyph glyph-name="asterisk" unicode="*" horiz-adv-x="474" 
d="M201 641h73l-2 -87l67 45l31 -58l-70 -42l70 -44l-31 -58l-67 46l2 -85h-74l4 85l-68 -45l-31 58l68 43l-69 42l31 58l69 -44z" />
    <glyph glyph-name="plus" unicode="+" 
d="M223 435h103v-166h166v-104h-166v-165h-103v165h-166v104h166v166z" />
    <glyph glyph-name="comma" unicode="," horiz-adv-x="335" 
d="M146 105l97 -9l-109 -221l-69 7z" />
    <glyph glyph-name="hyphen" unicode="-" horiz-adv-x="229" 
d="M0 323h229v-101h-229v101z" />
    <glyph glyph-name="period" unicode="." horiz-adv-x="309" 
d="M156 131q28 0 47 -19.5t19 -47.5t-19 -48t-47 -20t-48.5 20t-20.5 48t20 47.5t49 19.5z" />
    <glyph glyph-name="slash" unicode="/" horiz-adv-x="441" 
d="M333 719l88 -27l-315 -823l-86 26z" />
    <glyph glyph-name="zero" unicode="0" 
d="M272 653q106 0 176 -88t70 -244q0 -146 -64.5 -239t-181.5 -93q-110 0 -176 87t-66 245q0 160 69.5 246t172.5 86zM272 540q-48 0 -78 -51.5t-30 -165.5q0 -109 29 -165t79 -56q51 0 81 54.5t30 166.5t-32 164.5t-79 52.5z" />
    <glyph glyph-name="one" unicode="1" 
d="M299 642h98v-642h-130v469q-71 -48 -134 -67l-31 102q54 16 111.5 57.5t85.5 80.5z" />
    <glyph glyph-name="two" unicode="2" 
d="M222 109h273v-109h-442v100q120 109 239 232q64 66 63 128q0 35 -25 55.5t-67 21.5q-68 0 -119 -58l-82 83q32 43 87.5 67t118.5 24q107 2 171 -68q51 -54 51 -129q0 -60 -38 -116t-144 -152q-18 -17 -50.5 -46.5t-35.5 -32.5z" />
    <glyph glyph-name="three" unicode="3" 
d="M498 184q0 -79 -63 -137t-170 -58q-138 0 -214 95l76 68q50 -59 124 -59q113 0 113 100q0 97 -121 97q-3 0 -23.5 -0.5t-22.5 -0.5v102h41q54 -1 81.5 22t27.5 60q0 33 -23 52.5t-69 19.5q-65 0 -105 -42l-68 66q32 40 85.5 62t112.5 22q94 0 146 -45.5t52 -121.5
q0 -94 -92 -140v-1q53 -18 82.5 -62.5t29.5 -98.5z" />
    <glyph glyph-name="four" unicode="4" 
d="M465 220h61v-104h-61v-116h-122v116h-320v61q59 122 151 251q84 123 174 214h117v-422zM343 220v262q-94 -118 -180 -262h180z" />
    <glyph glyph-name="five" unicode="5" 
d="M254 418q117 -1 178 -57t61 -149q0 -103 -71 -163.5t-177 -59.5q-105 0 -188 60l53 104q63 -51 138 -51q53 0 82 26.5t29 78.5q0 50 -37.5 81t-119.5 32q-45 0 -96 -16l-6 2v336h350v-113h-239v-112q14 1 43 1z" />
    <glyph glyph-name="six" unicode="6" 
d="M249 414q15 6 39.5 6.5t53.5 -4t58 -19.5t53 -37.5t39 -59.5t15 -84q0 -97 -62.5 -162t-167.5 -65t-170 67.5t-65 165.5q0 119 95 239q103 131 256 196l43 -108q-82 -32 -158 -105q-3 -2 -14.5 -14.5t-14.5 -15.5zM273 96q46 0 73 32t27 88q0 53 -27.5 83.5t-72.5 30.5
q-44 0 -73.5 -31t-29.5 -83t27.5 -86t75.5 -34z" />
    <glyph glyph-name="seven" unicode="7" 
d="M506 642v-84q-105 -100 -204 -266.5t-144 -302.5l-117 38q65 197 206 405q29 45 70 97h-267v113h456z" />
    <glyph glyph-name="eight" unicode="8" 
d="M274 292q-42 0 -71.5 -26t-29.5 -77q0 -41 27 -70t74 -29q48 0 74.5 30t26.5 69q0 49 -28.5 76t-72.5 27zM159 344q-86 41 -86 139q0 74 55 122t146 48q89 0 145 -46t56 -124q0 -97 -86 -139q58 -21 87.5 -65t29.5 -103q0 -75 -63 -131t-169 -56q-104 0 -168 52.5
t-64 134.5q0 63 33.5 106.5t83.5 61.5zM274 563q-33 0 -58.5 -22.5t-25.5 -60.5q0 -40 22.5 -63t61.5 -23q40 0 62 25.5t22 60.5q0 38 -24.5 60.5t-59.5 22.5z" />
    <glyph glyph-name="nine" unicode="9" 
d="M300 229q-16 -6 -40 -7t-53.5 4t-58 19.5t-52.5 36.5t-39 59t-15 84q0 97 62.5 162.5t166.5 65.5q105 0 170.5 -68t65.5 -166q0 -116 -96 -238q-100 -128 -256 -195l-42 108q81 29 157 104q3 3 15.5 16t14.5 15zM275 546q-45 0 -72 -32t-27 -89q0 -52 27.5 -82t71.5 -30
t73.5 30t29.5 82q0 53 -27.5 87t-75.5 34z" />
    <glyph glyph-name="colon" unicode=":" horiz-adv-x="309" 
d="M156 123q28 0 47 -19.5t19 -48.5q0 -28 -19 -47.5t-47 -19.5q-29 0 -49 19.5t-20 47.5t20 48t49 20zM156 404q28 0 47 -19.5t19 -47.5t-19 -48t-47 -20t-48.5 20t-20.5 48t20 47.5t49 19.5z" />
    <glyph glyph-name="semicolon" unicode=";" horiz-adv-x="362" 
d="M207 404q28 0 47 -19.5t19 -48.5q0 -28 -19 -47.5t-47 -19.5q-29 0 -49 19.5t-20 47.5t20 48t49 20zM145 105l97 -9l-109 -221l-69 7z" />
    <glyph glyph-name="less" unicode="&#x3c;" horiz-adv-x="545" 
d="M496 324q-151 -29 -320 -105q74 -34 164.5 -63t155.5 -41l-19 -102q-111 21 -257 80q-105 42 -182 86v81q71 41 182 85q146 59 257 80z" />
    <glyph glyph-name="equal" unicode="=" 
d="M57 266v104h435v-104h-435zM57 65v103h435v-103h-435z" />
    <glyph glyph-name="greater" unicode="&#x3e;" 
d="M36 324l19 101q111 -21 257 -80q111 -44 182 -85v-81q-77 -44 -182 -86q-146 -59 -257 -80l-19 102q65 12 155.5 41t164.5 63q-169 76 -320 105z" />
    <glyph glyph-name="question" unicode="?" horiz-adv-x="442" 
d="M100 524l-52 84q22 18 67 32.5t95 14.5q84 0 133.5 -39t50.5 -98q0 -67 -71 -141q-11 -12 -32 -32t-29.5 -29.5t-20 -24.5t-15.5 -29.5t-4 -31.5t6 -39h-122q-6 20 -6 40q-1 39 17 68t75 89q40 40 57 69q21 35 7.5 65.5t-56.5 30.5q-59 0 -100 -29zM167 127
q29 0 48.5 -20t19.5 -49t-20 -49t-48 -20q-29 0 -49 20.5t-20 48.5q0 29 20 49t49 20z" />
    <glyph glyph-name="at" unicode="@" horiz-adv-x="674" 
d="M421 316q1 6 1 18q0 40 -22.5 61.5t-62.5 21.5q-47 0 -75 -37t-28 -86q0 -39 20.5 -66.5t57.5 -27.5q94 0 109 116zM443 432l12 53h63l-43 -221q0 -3 -3.5 -21t-3.5 -26q0 -25 19 -25q29 0 57.5 51t28.5 112q0 106 -62.5 167.5t-162.5 61.5q-107 0 -177.5 -75.5
t-70.5 -187.5q0 -116 81 -193t193 -77q99 0 153 37q39 -32 57 -47q-54 -29 -104 -43.5t-124 -14.5q-139 0 -234.5 96.5t-95.5 241.5q0 143 94 240t231 97q114 0 204 -79t90 -194q0 -114 -57 -185t-122 -71q-41 0 -51 52q-52 -52 -115 -52q-56 0 -99 47t-43 111
q0 82 48.5 143.5t124.5 61.5q67 0 112 -60z" />
    <glyph glyph-name="A" unicode="A" horiz-adv-x="625" 
d="M385 642q52 -101 119 -267q80 -203 125 -375h-127q-16 54 -46 147h-287q-21 -62 -46 -147h-127q45 172 125 375q57 147 119 267h145zM206 254h213q-5 13 -15 38t-15 38q-42 110 -77 188q-27 -60 -76 -188q-5 -13 -15 -38.5t-15 -37.5z" />
    <glyph glyph-name="B" unicode="B" horiz-adv-x="566" 
d="M192 279v-182h82q67 0 96 23t29 73q0 49 -30.5 67.5t-100.5 18.5h-76zM62 0v642h222q100 0 149.5 -46t49.5 -116q0 -96 -84 -137q63 -12 97.5 -59t34.5 -102q0 -81 -58 -131.5t-154 -50.5h-257zM192 545v-169h71q47 0 69 19t22 64q0 86 -90 86h-72z" />
    <glyph glyph-name="C" unicode="C" horiz-adv-x="615" 
d="M556 587l-70 -92q-50 38 -129 38q-94 -1 -147 -57t-53 -148q0 -102 52 -162t148 -59q88 0 141 50l79 -81q-89 -87 -229 -87q-148 0 -236.5 90.5t-88.5 248.5q0 141 91.5 233t236.5 92q119 0 205 -66z" />
    <glyph glyph-name="D" unicode="D" horiz-adv-x="636" 
d="M62 0v642h236q150 0 232.5 -85t82.5 -237q0 -139 -82.5 -229.5t-233.5 -90.5h-235zM192 535v-429h73q113 0 163 50.5t50 164.5q0 106 -50.5 160t-162.5 54h-73z" />
    <glyph glyph-name="E" unicode="E" horiz-adv-x="492" 
d="M447 532h-255v-139h217v-109h-217v-175h276v-109h-406v642h385v-110z" />
    <glyph glyph-name="F" unicode="F" horiz-adv-x="463" 
d="M192 0h-130v642h385v-110h-255v-155h218v-109h-218v-268z" />
    <glyph glyph-name="G" unicode="G" horiz-adv-x="646" 
d="M348 339h252v-280q-29 -25 -93 -47.5t-144 -22.5q-160 0 -250 93.5t-90 245.5q0 139 94 231.5t257 93.5q132 0 218 -66l-70 -92q-52 41 -149 39q-95 0 -155.5 -53t-60.5 -153q0 -102 57.5 -162.5t161.5 -60.5q53 0 94 19v110h-122v105z" />
    <glyph glyph-name="H" unicode="H" horiz-adv-x="697" 
d="M505 642h130v-642h-130v284h-313v-284h-130v642h130v-252h313v252z" />
    <glyph glyph-name="I" unicode="I" horiz-adv-x="254" 
d="M192 642v-642h-130v642h130z" />
    <glyph glyph-name="J" unicode="J" horiz-adv-x="264" 
d="M91 642h130v-586q0 -55 -5.5 -85.5t-26.5 -57t-63.5 -36.5t-114.5 -9v79q45 0 62.5 25.5t17.5 87.5v582z" />
    <glyph glyph-name="K" unicode="K" horiz-adv-x="596" 
d="M192 0h-130v642h130v-251l231 251h164l3 -3l-279 -289q66 -48 130 -120q96 -105 168 -230h-144q-56 83 -115 147q-59 66 -124 115l-34 -34v-228z" />
    <glyph glyph-name="L" unicode="L" horiz-adv-x="447" 
d="M192 642v-533h258v-109h-388v642h130z" />
    <glyph glyph-name="M" unicode="M" horiz-adv-x="852" 
d="M607 642h183v-642h-130v502q-45 -69 -83 -146q-44 -87 -77 -179h-147q-35 93 -77 179q-40 80 -84 146v-502h-130v642h183q75 -100 141 -231q28 -58 40 -87q13 29 41 87q65 128 140 231z" />
    <glyph glyph-name="N" unicode="N" horiz-adv-x="750" 
d="M575 0q-99 184 -271 350q-57 54 -112 99v-449h-130v654h59q141 -93 268 -216q94 -91 169 -189v393h130v-642h-113z" />
    <glyph glyph-name="O" unicode="O" horiz-adv-x="694" 
d="M346 -11q-148 0 -235.5 91t-87.5 249q0 141 89 232.5t234 91.5q147 0 236 -91t89 -233q0 -149 -84.5 -244.5t-240.5 -95.5zM346 544q-87 0 -138 -57.5t-51 -156.5q0 -101 51 -166.5t138 -65.5q97 0 144 66t47 166q0 91 -51.5 152.5t-139.5 61.5z" />
    <glyph glyph-name="P" unicode="P" horiz-adv-x="541" 
d="M191 222v-222h-129v642h230q234 0 234 -210q0 -96 -59 -153t-174 -57h-102zM191 321h96q53 0 79 30t26 83q0 109 -103 109h-98v-222z" />
    <glyph glyph-name="Q" unicode="Q" horiz-adv-x="718" 
d="M713 110l-30 -119q-60 15 -127 57q-81 -59 -199 -59q-148 0 -235.5 91.5t-87.5 249.5q0 141 89 232t234 91q148 0 236.5 -90.5t88.5 -232.5q0 -109 -44 -188q46 -25 75 -32zM168 332q0 -102 51 -168t138 -66q60 0 101 27q-76 73 -106 139l111 53q20 -43 69 -92
q16 48 16 107q0 90 -51.5 151t-139.5 61q-87 0 -138 -56.5t-51 -155.5z" />
    <glyph glyph-name="R" unicode="R" horiz-adv-x="556" 
d="M474 180q57 -86 88 -180h-132q-24 62 -63 119q-64 95 -118 122h-57v-241h-130v642h219q124 0 179 -51t55 -149q0 -68 -32.5 -111.5t-85.5 -62.5q40 -31 77 -88zM192 543v-203h84q104 0 104 103q0 57 -26 78.5t-76 21.5h-86z" />
    <glyph glyph-name="S" unicode="S" horiz-adv-x="566" 
d="M508 585l-50 -87q-25 25 -68 41t-87 16q-49 0 -77 -20.5t-28 -51.5q0 -42 64 -73q17 -7 77.5 -33t76.5 -33q63 -28 93.5 -67.5t29.5 -98.5q0 -83 -63 -136t-192 -53q-72 0 -142 22t-116 54l58 98q41 -31 100.5 -50t113.5 -19q36 0 60.5 7.5t35 19t14.5 21t4 20.5
q0 36 -49 61q-28 14 -95.5 40t-83.5 33q-122 55 -122 168q-1 88 69 138.5t186 50.5q50 0 105 -18.5t86 -49.5z" />
    <glyph glyph-name="T" unicode="T" horiz-adv-x="496" 
d="M500 642v-111h-187v-531h-130v531h-187v111h504z" />
    <glyph glyph-name="U" unicode="U" horiz-adv-x="635" 
d="M449 272v370h130v-392q0 -43 -4.5 -76t-20.5 -69.5t-43 -60.5t-76.5 -39.5t-117.5 -15.5t-117.5 15t-76.5 38t-42.5 59.5t-20 70t-4.5 78.5v392h130v-370q0 -94 28.5 -137t102.5 -43q77 0 104.5 42.5t27.5 137.5z" />
    <glyph glyph-name="V" unicode="V" horiz-adv-x="596" 
d="M230 0q-53 108 -99 221q-106 261 -134 421h125q33 -156 123 -375q51 -126 53 -131q2 5 53 131q92 227 123 375h125q-28 -160 -134 -421q-46 -113 -99 -221h-136z" />
    <glyph glyph-name="W" unicode="W" horiz-adv-x="876" 
d="M755 642h124q-23 -169 -92 -387q-47 -146 -93 -255h-142q-38 75 -65 139q-10 23 -49 144q-40 -124 -49 -144q-27 -64 -65 -139h-141q-46 107 -94 255q-70 227 -92 387h125q20 -144 84 -350q25 -78 51 -150q7 14 19 42q58 137 87 279h150q29 -142 87 -279q12 -28 19 -42
q18 48 51 150q63 202 85 350z" />
    <glyph glyph-name="X" unicode="X" horiz-adv-x="617" 
d="M1 0q83 149 231 358q-137 186 -226 284h162q26 -31 139 -182q92 124 138 182h162q-93 -104 -224 -284l3 -3q159 -225 230 -355h-142q-82 135 -166 255q-65 -93 -165 -255h-142z" />
    <glyph glyph-name="Y" unicode="Y" horiz-adv-x="560" 
d="M433 642h131q-50 -145 -137 -286q-43 -68 -81 -118v-238h-130v235q-44 60 -82 121q-90 145 -138 286h131q45 -116 111 -221l42 -70q7 12 22 37t20 33q69 111 111 221z" />
    <glyph glyph-name="Z" unicode="Z" horiz-adv-x="512" 
d="M161 109h347v-109h-504v81q72 133 159 258q63 93 146 193h-259v110h442v-86q-123 -136 -228 -287q-45 -64 -103 -160z" />
    <glyph glyph-name="bracketleft" unicode="[" horiz-adv-x="270" 
d="M141 634v-648h80v-79h-174v805h174v-78h-80z" />
    <glyph glyph-name="backslash" unicode="\" horiz-adv-x="457" 
d="M22 719h98l315 -719h-99z" />
    <glyph glyph-name="bracketright" unicode="]" horiz-adv-x="270" 
d="M129 -14v648h-80v78h174v-805h-174v79h80z" />
    <glyph glyph-name="asciicircum" unicode="^" horiz-adv-x="583" 
d="M141 489q43 82 90 153h112q47 -71 90 -153q64 -118 105 -233h-111q-37 94 -85 185q-27 50 -55 96q-22 -35 -54 -96q-52 -99 -86 -185h-111q43 116 105 233z" />
    <glyph glyph-name="underscore" unicode="_" horiz-adv-x="425" 
d="M425 -93v-88h-425v88h425z" />
    <glyph glyph-name="grave" unicode="`" horiz-adv-x="817" 
d="M277 584l67 45l102 -141l-44 -30z" />
    <glyph glyph-name="a" unicode="a" horiz-adv-x="459" 
d="M411 222v-106q0 -73 20 -99l-115 -20q-8 11 -21 50h-2q-45 -58 -141 -58q-63 0 -98 30t-35 90q0 97 134 131q56 16 132 21q-4 67 -95 69q-67 0 -122 -30l-25 72q68 32 167 32q102 0 151.5 -43.5t49.5 -138.5zM288 125v64q0 8 -1 11q-25 -4 -68 -16q-76 -23 -74 -72
q-1 -24 17 -38.5t48 -15.5q65 1 78 67z" />
    <glyph glyph-name="b" unicode="b" horiz-adv-x="519" 
d="M315 402q84 0 134.5 -47.5t50.5 -150.5q0 -94 -60 -154.5t-160 -60.5q-58 0 -118.5 20.5t-87.5 57.5q-17 26 -17 51v583h122v-367h2q41 68 134 68zM274 66q100 0 100 138q0 55 -24.5 83t-65.5 28q-46 0 -75.5 -28.5t-29.5 -83.5v-40q0 -97 95 -97z" />
    <glyph glyph-name="c" unicode="c" horiz-adv-x="367" 
d="M360 373l-43 -76q-34 18 -70 18q-46 0 -74.5 -30.5t-28.5 -86.5q0 -54 26 -87.5t77 -33.5q41 0 68 21l48 -73q-51 -36 -128 -36q-107 0 -161.5 56t-54.5 153q0 91 60 148.5t158 57.5q68 0 123 -31z" />
    <glyph glyph-name="d" unicode="d" horiz-adv-x="521" 
d="M482 32q-64 -21 -118 -37q-13 15 -22 61h-4q-40 -67 -136 -67q-83 0 -133 49t-50 150q0 95 60.5 155t158.5 60q56 0 101 -17v315h123v-564q0 -77 20 -105zM235 74q45 0 74.5 29t29.5 85v44q0 51 -21.5 72t-72.5 21q-101 0 -101 -137q0 -53 24.5 -83.5t66.5 -30.5z" />
    <glyph glyph-name="e" unicode="e" horiz-adv-x="450" 
d="M270 66q66 0 110 28q26 -40 44 -66q-56 -39 -167 -39q-122 0 -180 57t-58 146q0 97 58 154.5t156 57.5q101 0 149.5 -59.5t48.5 -159.5v-13h-285q0 -44 32 -75t92 -31zM236 335q-82 0 -88 -102h167q-3 102 -79 102z" />
    <glyph glyph-name="f" unicode="f" horiz-adv-x="280" 
d="M180 513v-120h98v-79h-98v-314h-123v314h-43v79h43v121q0 55 15.5 95.5t41.5 62t56 31t64 9.5q65 0 99 -22l-24 -77q-27 12 -51 12q-78 0 -78 -112z" />
    <glyph glyph-name="g" unicode="g" horiz-adv-x="511" 
d="M454 294v-325q0 -96 -58.5 -148.5t-160.5 -52.5q-56 0 -114.5 11t-87.5 27q6 15 19 45t19 45q70 -31 136 -31q68 0 96.5 29.5t28.5 98.5v66h-2q-41 -67 -130 -67q-84 0 -132.5 48t-48.5 149q0 38 11.5 73t35.5 68.5t70.5 53.5t108.5 20q58 0 109 -17t83 -43
q17 -14 17 -50zM332 255q0 72 -91 72q-97 0 -97 -138q0 -48 21 -80t67 -32q45 0 72.5 32t27.5 83v63z" />
    <glyph glyph-name="h" unicode="h" horiz-adv-x="519" 
d="M308 403q78 0 116 -47t38 -128v-228h-123v194q0 25 -2 42t-9 34.5t-23 26.5t-40 9q-79 0 -85 -113v-193h-123v701h122v-360h2q44 62 127 62z" />
    <glyph glyph-name="i" unicode="i" horiz-adv-x="215" 
d="M169 393v-393h-123v393h123zM107 623q28 0 47 -19.5t19 -46.5q0 -28 -19 -47t-47 -19q-27 0 -46.5 19t-19.5 47q0 27 19.5 46.5t46.5 19.5z" />
    <glyph glyph-name="j" unicode="j" horiz-adv-x="243" 
d="M76 393h122v-441q0 -98 -46.5 -142t-169.5 -40v87q94 -4 94 91v445zM137 623q27 0 46.5 -19.5t19.5 -46.5q0 -28 -19.5 -47t-46.5 -19t-46.5 19t-19.5 47q0 27 19.5 46.5t46.5 19.5z" />
    <glyph glyph-name="k" unicode="k" horiz-adv-x="491" 
d="M294 229q120 -101 211 -229h-151q-87 110 -175 185v-185h-122v701h122v-440l150 132h160q-151 -126 -195 -164z" />
    <glyph glyph-name="l" unicode="l" horiz-adv-x="257" 
d="M179 175q0 -45 18 -68.5t58 -22.5v-90q-111 -4 -154.5 40.5t-43.5 142.5v524h122v-526z" />
    <glyph glyph-name="m" unicode="m" horiz-adv-x="767" 
d="M563 404q75 0 111 -42.5t36 -132.5v-229h-123v191q0 65 -15 90.5t-52 25.5q-75 0 -75 -118v-189h-122v185q0 68 -14 95.5t-52 27.5q-42 0 -58 -29t-16 -90v-189h-123v249q0 76 -20 111l117 38q13 -17 22 -64q37 70 119 70q104 0 133 -82h6q40 82 126 82z" />
    <glyph glyph-name="n" unicode="n" horiz-adv-x="521" 
d="M309 404q155 0 155 -175v-229h-123v191q0 19 -0.5 31.5t-5 30.5t-11.5 28t-22 18t-36 8q-84 0 -84 -119v-188h-122v248q0 77 -20 111l116 38q13 -17 22 -64q40 71 131 71z" />
    <glyph glyph-name="o" unicode="o" horiz-adv-x="483" 
d="M242 404q103 0 162.5 -58.5t59.5 -150.5q0 -93 -59.5 -149.5t-162.5 -56.5q-101 0 -162 56t-61 150q0 91 60 150t163 59zM242 324q-45 0 -71 -31.5t-26 -97.5q0 -62 26.5 -94t70.5 -32q45 0 71 31t26 95q0 61 -26 95t-71 34z" />
    <glyph glyph-name="p" unicode="p" horiz-adv-x="523" 
d="M320 404q84 0 134 -48t50 -150q0 -94 -60.5 -153.5t-159.5 -59.5q-51 0 -101 16v-230h-123v475q0 75 -20 105l119 38q11 -15 22 -62h4q41 69 135 69zM278 70q101 0 101 136q0 52 -24.5 82t-66.5 30q-45 0 -75 -29.5t-30 -85.5v-41q0 -50 22 -71t73 -21z" />
    <glyph glyph-name="q" unicode="q" horiz-adv-x="518" 
d="M203 -9q-84 0 -134 47.5t-50 149.5q0 90 57 153t172 63q57 0 111 -17t86 -43q16 -14 16 -49v-516h-122v280h-2q-41 -68 -134 -68zM244 327q-100 0 -100 -139q0 -52 22.5 -81.5t67.5 -29.5t75 29.5t30 84.5v63q0 73 -95 73z" />
    <glyph glyph-name="r" unicode="r" horiz-adv-x="337" 
d="M302 402q28 0 40 -6l-8 -115q-25 13 -54 13q-56 0 -76.5 -36t-20.5 -101v-157h-123v256q0 74 -20 104l118 37q13 -14 23 -67h1q39 72 120 72z" />
    <glyph glyph-name="s" unicode="s" horiz-adv-x="400" 
d="M361 374l-37 -65q-62 28 -104 28q-53 0 -53 -32q0 -23 35 -38q19 -8 55.5 -23t52.5 -23q70 -33 70 -100q0 -59 -48 -95.5t-132 -36.5q-52 0 -102 14.5t-78 35.5q19 29 42 62q65 -41 134 -41q56 0 56 37q0 22 -47 39q-79 29 -94 37q-67 36 -67 103q0 63 46 95t119 32
q94 0 152 -29z" />
    <glyph glyph-name="t" unicode="t" horiz-adv-x="318" 
d="M180 314v-172q0 -40 12 -57t43 -17q22 0 47 10l23 -71q-36 -20 -95 -20q-86 0 -119.5 43t-33.5 127v157h-43v79h43v114h123v-114h98v-79h-98z" />
    <glyph glyph-name="u" unicode="u" horiz-adv-x="519" 
d="M336 393h122v-251q0 -38 6.5 -69.5t14.5 -41.5l-118 -37q-13 18 -22 65q-38 -70 -128 -70q-154 0 -154 174v230h123v-192q0 -22 1 -36t5 -30.5t11.5 -26t22 -16t34.5 -6.5q27 0 44.5 10.5t25 30t10 36.5t2.5 41v189z" />
    <glyph glyph-name="v" unicode="v" horiz-adv-x="433" 
d="M311 393h122q-20 -84 -61.5 -195.5t-85.5 -197.5h-140q-111 225 -146 393h124q35 -146 92 -268h2q55 118 93 268z" />
    <glyph glyph-name="w" unicode="w" horiz-adv-x="669" 
d="M548 393h121q-18 -86 -54.5 -194.5t-77.5 -198.5h-139q-39 86 -65 176q-33 -101 -65 -176h-137q-97 209 -131 393h122q28 -137 79 -270q36 79 75 186q4 13 7 15t14 2h83q12 0 15 -2t7 -14q22 -75 66 -187q52 137 80 270z" />
    <glyph glyph-name="x" unicode="x" horiz-adv-x="486" 
d="M486 0h-145q-33 48 -98 132q-47 -55 -99 -132h-144q68 103 158 211q-77 105 -156 179v3h154q41 -49 81 -105q32 44 86 105h157v-4q-79 -72 -157 -175q108 -128 163 -214z" />
    <glyph glyph-name="y" unicode="y" horiz-adv-x="405" 
d="M288 393h122q-35 -149 -103 -302q-75 -168 -181 -312h-145v6q76 92 146 209q-51 98 -91 206t-57 193h121q34 -144 93 -270h2l26 59q41 109 67 211z" />
    <glyph glyph-name="z" unicode="z" horiz-adv-x="390" 
d="M388 83v-83h-386v65q62 109 140 193l49 52h-171v83h360v-69q-58 -44 -118.5 -109t-103.5 -132h230z" />
    <glyph glyph-name="braceleft" unicode="{" horiz-adv-x="275" 
d="M27 247v65q63 28 63 127v127q0 21 1 32q1 46 26.5 77.5t47.5 31.5h79v-81h-33q-13 0 -19.5 -8t-7.5 -17t-1 -27v-155q0 -43 -15 -76.5t-27.5 -45.5t-23.5 -18q11 -5 23.5 -17t27.5 -45.5t15 -77.5v-154q0 -18 1 -27t7.5 -17t19.5 -8h33v-81h-79q-22 0 -47.5 31.5
t-26.5 77.5q-1 11 -1 32v126q0 101 -63 128z" />
    <glyph glyph-name="bar" unicode="|" horiz-adv-x="323" 
d="M210 719v-719h-102v719h102z" />
    <glyph glyph-name="braceright" unicode="}" horiz-adv-x="275" 
d="M248 312v-65q-63 -27 -63 -128v-126q0 -21 -1 -32q-1 -46 -26.5 -77.5t-47.5 -31.5h-79v81h33q13 0 19.5 8t7.5 17t1 27v154q0 44 15 77.5t27.5 45.5t23.5 17q-11 6 -23.5 18t-27.5 45.5t-15 76.5v155q0 18 -1 27t-7.5 17t-19.5 8h-33v81h79q22 0 47.5 -31.5t26.5 -77.5
q1 -11 1 -32v-127q0 -99 63 -127z" />
    <glyph glyph-name="asciitilde" unicode="~" horiz-adv-x="523" 
d="M395 309l86 -77q-14 -25 -23.5 -40t-27.5 -37.5t-38 -34t-42 -11.5q-11 0 -21 2t-21 7t-16.5 8t-18.5 11t-16 10q-8 5 -23 15.5t-23.5 16t-19 10t-18.5 4.5q-20 0 -49 -67l-86 76q7 9 25.5 35.5t31 43t33.5 31t43 14.5q40 0 97 -43q47 -41 81 -41q24 0 46 67z" />
    <glyph glyph-name="exclamdown" unicode="&#xa1;" horiz-adv-x="338" 
d="M169 265q-29 0 -49.5 20t-20.5 49t20.5 49t49.5 20q28 0 48 -20t20 -49t-19.5 -49t-48.5 -20zM103 -250v452h130v-452h-130z" />
    <glyph glyph-name="cent" unicode="&#xa2;" horiz-adv-x="372" 
d="M368 25q-42 -29 -104 -35v-59h-46v59q-99 4 -149 59.5t-50 148.5q0 87 54.5 143t144.5 62v49h46v-49q52 -4 101 -31l-43 -76q-28 15 -58 18v-236q35 3 56 20zM145 195q0 -98 73 -117v230q-73 -20 -73 -113z" />
    <glyph glyph-name="sterling" unicode="&#xa3;" horiz-adv-x="575" 
d="M141 0l-95 14q40 124 128 127q8 21 8 49q0 35 -18 71h-115v57h81q-34 66 -34 128q0 93 62.5 152t155.5 59q197 0 207 -222q-4 0 -131 -12l2 29v4q0 35 -23.5 64t-57.5 29q-42 0 -65 -31.5t-23 -74.5q0 -31 11 -67t28 -58h118v-57h-98q4 -30 4 -49q0 -4 -0.5 -10t-0.5 -9
l-3 -61q72 -36 113 -36q18 0 30 14.5t16 34.5l91 -16q-30 -136 -134 -136q-35 0 -102.5 24t-97.5 24q-43 0 -57 -41z" />
    <glyph glyph-name="currency" unicode="&#xa4;" horiz-adv-x="703" 
d="M586 158l79 -82q-90 -87 -229 -87q-122 0 -205.5 63t-109.5 177h-100v64h91q-1 12 -1 35q0 25 2 37h-92v64h104q30 102 113.5 163t200.5 61q119 0 205 -66l-70 -92q-48 38 -129 38q-131 0 -179 -104h264v-64h-282q-3 -18 -3 -37q0 -11 2 -35h283v-64h-269
q44 -123 184 -122q89 0 141 51z" />
    <glyph glyph-name="yen" unicode="&#xa5;" horiz-adv-x="617" 
d="M592 642q-47 -135 -127 -267h119v-65h-159q-34 -48 -51 -71h210v-65h-210v-174h-130v174h-212v65h210q-25 32 -51 71h-159v65h118q-83 140 -126 267h131q40 -105 111 -221q5 -8 20 -33t22 -37q22 39 42 70q68 110 111 221h131z" />
    <glyph glyph-name="brokenbar" unicode="&#xa6;" horiz-adv-x="319" 
d="M211 288v-288h-103v288h103zM211 719v-287h-103v287h103z" />
    <glyph glyph-name="section" unicode="&#xa7;" horiz-adv-x="519" 
d="M468 303q31 -19 31 -46t-30 -46q-33 -19 -76 -19q-45 0 -74 19q-4 2 -14 9t-15.5 10.5t-14 6.5t-16.5 3q-9 0 -19 -4.5t-23.5 -13.5t-17.5 -12q-27 -18 -73 -18q-42 0 -75 19q-31 19 -31 46t31 46q33 19 75 19t75 -19q6 -3 18 -12t21 -13t19 -4q11 0 20 4t22.5 13.5
t17.5 11.5q30 19 74 19q42 0 75 -19z" />
    <glyph glyph-name="dieresis" unicode="&#xa8;" horiz-adv-x="305" 
d="M60 583q21 0 36 -14.5t15 -35.5t-15.5 -36.5t-35.5 -15.5q-22 0 -37.5 15t-15.5 37q0 21 15.5 35.5t37.5 14.5zM240 583q21 0 36 -14.5t15 -35.5t-15.5 -36.5t-35.5 -15.5q-22 0 -37.5 15t-15.5 37q0 21 15.5 35.5t37.5 14.5z" />
    <glyph glyph-name="copyright" unicode="&#xa9;" horiz-adv-x="675" 
d="M337 -16q-140 0 -237 98.5t-97 239.5t97 239t237 98t237.5 -98t97.5 -239t-97.5 -239.5t-237.5 -98.5zM337 58q109 0 185 76t76 188t-75.5 187.5t-185.5 75.5q-109 0 -185 -75.5t-76 -187.5t76 -188t185 -76zM509 391h-75q-7 32 -34.5 49t-60.5 17q-50 0 -82.5 -40
t-32.5 -93q0 -51 32.5 -91.5t82.5 -40.5q34 0 61.5 17t33.5 49h75q-11 -62 -56.5 -100t-113.5 -38q-81 0 -135 59.5t-54 144.5t54 144.5t135 59.5q68 0 113 -38t57 -99z" />
    <glyph glyph-name="ordfeminine" unicode="&#xaa;" horiz-adv-x="321" 
d="M293 343v-64h-282v64h282zM288 539v-68q0 -47 14 -65l-80 -13q-3 4 -15 33h-1q-32 -38 -100 -38q-93 0 -93 78q0 63 94 85q34 9 93 13q-3 43 -67 45q-45 0 -85 -20l-19 47q48 21 118 21q72 0 106.5 -28t34.5 -90zM202 477v41q0 5 -1 7q-15 -3 -48 -10q-54 -15 -52 -47
q-1 -16 12 -25t34 -10q46 1 55 44z" />
    <glyph glyph-name="guillemotleft" unicode="&#xab;" horiz-adv-x="442" 
d="M302 273q51 -76 106 -118l-55 -69q-84 66 -152 180q-4 7 1 15q64 107 149 176l55 -70q-51 -39 -104 -114zM125 273q41 -70 102 -118l-55 -69q-84 65 -148 180q-4 6 1 15q62 109 145 176l55 -70q-51 -39 -100 -114z" />
    <glyph glyph-name="logicalnot" unicode="&#xac;" horiz-adv-x="528" 
d="M371 120v146h-333v103h436v-249h-103z" />
    <glyph glyph-name="registered" unicode="&#xae;" horiz-adv-x="676" 
d="M442 245q36 -45 57 -98h-79q-19 37 -42 65q-43 54 -69 65h-34v-130h-78v350h149q82 0 113 -27t31 -78q0 -34 -24.5 -63.5t-71.5 -39.5q25 -15 48 -44zM275 442v-112h66q35 0 51.5 17t16.5 42q0 53 -67 53h-67zM338 -16q-140 0 -237.5 98.5t-97.5 239.5t97.5 239t237.5 98
t237.5 -98t97.5 -239t-97.5 -239.5t-237.5 -98.5zM338 58q109 0 185 76t76 188q0 116 -69.5 189.5t-191.5 73.5q-110 0 -185.5 -75.5t-75.5 -187.5t75.5 -188t185.5 -76z" />
    <glyph glyph-name="macron" unicode="&#xaf;" horiz-adv-x="237" 
d="M-15 532h265v-55h-265v55z" />
    <glyph glyph-name="degree" unicode="&#xb0;" horiz-adv-x="330" 
d="M290 531q0 -53 -37.5 -90.5t-90.5 -37.5t-90 37.5t-37 90.5q-1 52 37 89.5t90 37.5t90 -37.5t38 -89.5zM230 531q0 28 -20 48t-48 20t-48 -20t-20 -48q1 -29 20.5 -48.5t48.5 -19.5t48 19.5t19 48.5z" />
    <glyph glyph-name="plusminus" unicode="&#xb1;" 
d="M223 502h103v-120h166v-104h-166v-119h-103v119h-166v104h166v120zM57 0v104h436v-104h-436z" />
    <glyph glyph-name="twosuperior" unicode="&#xb2;" horiz-adv-x="346" 
d="M159 330h157v-73h-286v61q58 50 144 139q37 37 37 76q-3 38 -48 38q-42 0 -73 -35l-55 59q49 55 134 55q67 0 105.5 -32t38.5 -87q0 -36 -22.5 -69.5t-86.5 -91.5q-10 -9 -24 -21.5t-21 -18.5z" />
    <glyph glyph-name="threesuperior" unicode="&#xb3;" horiz-adv-x="347" 
d="M320 367q-1 -47 -40.5 -82.5t-113.5 -35.5q-87 0 -136 57l46 50q36 -36 82 -36q60 0 60 52q0 55 -65 55h-35v67h32q27 0 42.5 12.5t15.5 33.5q0 36 -48 36q-39 0 -70 -26l-41 49q40 49 126 51q58 1 95.5 -27.5t37.5 -74.5q0 -61 -56 -84q32 -11 50 -37.5t18 -59.5z" />
    <glyph glyph-name="acute" unicode="&#xb4;" horiz-adv-x="817" 
d="M402 629l67 -45l-125 -126l-44 30z" />
    <glyph glyph-name="mu" unicode="&#xb5;" horiz-adv-x="519" 
d="M458 142q0 -38 6.5 -69.5t14.5 -41.5l-118 -37q-13 18 -22 65q-38 -70 -128 -70q-13 0 -31 2v-211h-123v613h123v-192q0 -22 1 -36t5 -30.5t11.5 -26t22 -16t34.5 -6.5q27 0 44.5 10.5t25 30t10 36.5t2.5 41v189h122v-251z" />
    <glyph glyph-name="mu" unicode="&#x3bc;" horiz-adv-x="519" 
d="M458 142q0 -38 6.5 -69.5t14.5 -41.5l-118 -37q-13 18 -22 65q-38 -70 -128 -70q-13 0 -31 2v-211h-123v613h123v-192q0 -22 1 -36t5 -30.5t11.5 -26t22 -16t34.5 -6.5q27 0 44.5 10.5t25 30t10 36.5t2.5 41v189h122v-251z" />
    <glyph glyph-name="paragraph" unicode="&#xb6;" horiz-adv-x="670" 
d="M548 641v-80h-52v-693h-89v693h-56v-693h-87v373q-77 1 -128 53t-51 144q0 78 53.5 140.5t130.5 62.5h279z" />
    <glyph glyph-name="periodcentered" unicode="&#xb7;" horiz-adv-x="335" 
d="M167 295q32 0 55.5 -22.5t23.5 -54.5t-23.5 -55.5t-55.5 -23.5t-55 23.5t-23 55.5t23 54.5t55 22.5z" />
    <glyph glyph-name="cedilla" unicode="&#xb8;" horiz-adv-x="210" 
d="M91 -8l66 1q-17 -90 -87 -132l-40 43q46 31 61 88z" />
    <glyph glyph-name="onesuperior" unicode="&#xb9;" horiz-adv-x="389" 
d="M207 642h80v-385h-99v273q-41 -29 -81 -41l-18 70q32 10 66.5 35t51.5 48z" />
    <glyph glyph-name="ordmasculine" unicode="&#xba;" horiz-adv-x="289" 
d="M145 658q64 0 105 -38t41 -97q0 -60 -40.5 -97t-105.5 -37t-106 37t-41 97q0 59 41.5 97t105.5 38zM145 594q-28 0 -46 -19.5t-18 -50.5t17.5 -51.5t46.5 -20.5q28 0 45.5 21t17.5 51q0 31 -17 50.5t-46 19.5zM286 343v-64h-283v64h283z" />
    <glyph glyph-name="guillemotright" unicode="&#xbb;" horiz-adv-x="442" 
d="M140 273q-53 75 -104 114l55 70q85 -69 149 -176q5 -8 1 -15q-68 -114 -152 -180l-55 69q55 42 106 118zM317 273q-49 75 -100 114l55 70q83 -67 145 -176q5 -9 1 -15q-64 -115 -148 -180l-55 69q61 48 102 118z" />
    <glyph glyph-name="onequarter" unicode="&#xbc;" horiz-adv-x="903" 
d="M173 642h80v-385h-99v273q-41 -29 -81 -41l-18 70q32 10 66.5 35t51.5 48zM571 661q5 -2 68 -29q-67 -125 -187.5 -354.5t-159.5 -302.5q-7 3 -32.5 13.5t-36.5 15.5zM779 135h37v-71h-37v-64h-94v64h-203v43q36 71 91 150q50 74 104 128h102v-250zM685 135v154
q-59 -73 -106 -154h106z" />
    <glyph glyph-name="onehalf" unicode="&#xbd;" horiz-adv-x="866" 
d="M173 642h80v-385h-99v273q-41 -29 -81 -41l-18 70q32 10 66.5 35t51.5 48zM643 73h157v-73h-286v61q58 50 144 139q37 37 37 76q-3 38 -48 38q-42 0 -73 -35l-55 59q49 55 134 55q67 0 105.5 -32t38.5 -87q0 -36 -22.5 -69.5t-86.5 -91.5q-10 -9 -24 -21.5t-21 -18.5z
M531 658q5 -2 68 -29q-67 -125 -187.5 -354.5t-159.5 -302.5q-7 3 -32.5 13.5t-36.5 15.5z" />
    <glyph glyph-name="threequarters" unicode="&#xbe;" horiz-adv-x="790" 
d="M557 661q5 -2 68 -29q-67 -125 -187.5 -354.5t-159.5 -302.5q-7 3 -32.5 13.5t-36.5 15.5zM331 367q-1 -47 -40.5 -82.5t-113.5 -35.5q-87 0 -136 57l46 50q36 -36 82 -36q60 0 60 52q0 55 -65 55h-35v67h32q27 0 42.5 12.5t15.5 33.5q0 36 -48 36q-39 0 -70 -26l-41 49
q40 49 126 51q58 1 95.5 -27.5t37.5 -74.5q0 -61 -56 -84q32 -11 50 -37.5t18 -59.5zM723 135h37v-71h-37v-64h-94v64h-203v43q36 71 91 150q50 74 104 128h102v-250zM629 135v154q-59 -73 -106 -154h106z" />
    <glyph glyph-name="questiondown" unicode="&#xbf;" horiz-adv-x="442" 
d="M358 -129l52 -84q-22 -18 -67 -32.5t-95 -14.5q-84 0 -133.5 39t-50.5 98q0 67 71 141q11 12 32 32t29.5 29.5t20 24.5t15.5 29.5t4 31.5t-6 39h122q6 -20 6 -40q1 -39 -17 -68t-75 -89q-40 -40 -57 -69q-21 -34 -7.5 -65t56.5 -31q59 0 100 29zM291 268q-29 0 -48.5 20
t-19.5 49t20 49t48 20q29 0 49 -20t20 -49t-20 -49t-49 -20z" />
    <glyph glyph-name="Agrave" unicode="&#xc0;" horiz-adv-x="625" 
d="M177 793l48 66l144 -97l-31 -45zM385 642q52 -101 119 -267q80 -203 125 -375h-127q-16 54 -46 147h-287q-21 -62 -46 -147h-127q45 172 125 375q57 147 119 267h145zM206 254h213q-5 13 -15 38t-15 38q-42 110 -77 188q-27 -60 -76 -188q-5 -13 -15 -38.5t-15 -37.5z
" />
    <glyph glyph-name="Aacute" unicode="&#xc1;" horiz-adv-x="625" 
d="M410 858l48 -66l-161 -76l-31 45zM385 642q52 -101 119 -267q80 -203 125 -375h-127q-16 54 -46 147h-287q-21 -62 -46 -147h-127q45 172 125 375q57 147 119 267h145zM206 254h213q-5 13 -15 38t-15 38q-42 110 -77 188q-27 -60 -76 -188q-5 -13 -15 -38.5t-15 -37.5z
" />
    <glyph glyph-name="Acircumflex" unicode="&#xc2;" horiz-adv-x="625" 
d="M313 857q25 -15 68.5 -50t63.5 -58l-33 -38q-36 42 -99 71q-64 -32 -99 -70l-32 37q18 23 59 55.5t72 52.5zM385 642q52 -101 119 -267q80 -203 125 -375h-127q-16 54 -46 147h-287q-21 -62 -46 -147h-127q45 172 125 375q57 147 119 267h145zM206 254h213q-5 13 -15 38
t-15 38q-42 110 -77 188q-27 -60 -76 -188q-5 -13 -15 -38.5t-15 -37.5z" />
    <glyph glyph-name="Atilde" unicode="&#xc3;" horiz-adv-x="625" 
d="M249 734h-50q2 33 19 59t50 26q18 0 50.5 -13t42.5 -13q5 0 10 3t7 5t7 9t6 9h51q-4 -35 -24 -61.5t-53 -26.5q-14 0 -44.5 14.5t-43.5 14.5q-18 0 -28 -26zM385 642q52 -101 119 -267q80 -203 125 -375h-127q-16 54 -46 147h-287q-21 -62 -46 -147h-127q45 172 125 375
q57 147 119 267h145zM206 254h213q-5 13 -15 38t-15 38q-42 110 -77 188q-27 -60 -76 -188q-5 -13 -15 -38.5t-15 -37.5z" />
    <glyph glyph-name="Adieresis" unicode="&#xc4;" horiz-adv-x="625" 
d="M385 642q52 -101 119 -267q80 -203 125 -375h-127q-16 54 -46 147h-287q-21 -62 -46 -147h-127q45 172 125 375q57 147 119 267h145zM206 254h213q-5 13 -15 38t-15 38q-42 110 -77 188q-27 -60 -76 -188q-5 -13 -15 -38.5t-15 -37.5zM227 834q21 0 36 -14.5t15 -35.5
q0 -22 -15 -37t-36 -15q-22 0 -37.5 15t-15.5 37q0 21 15.5 35.5t37.5 14.5zM407 834q21 0 36 -14.5t15 -35.5q0 -22 -15 -37t-36 -15q-22 0 -37.5 15t-15.5 37q0 21 15.5 35.5t37.5 14.5z" />
    <glyph glyph-name="Aring" unicode="&#xc5;" horiz-adv-x="625" 
d="M310 844q32 0 55.5 -22t23.5 -54t-23.5 -54.5t-54.5 -22.5q-32 0 -55.5 22.5t-23.5 54.5t23.5 54t54.5 22zM311 797q-31 0 -31 -29q0 -30 31 -30q30 0 30 30q0 29 -30 29zM385 642q52 -101 119 -267q80 -203 125 -375h-127q-16 54 -46 147h-287q-21 -62 -46 -147h-127
q45 172 125 375q57 147 119 267h145zM206 254h213q-5 13 -15 38t-15 38q-42 110 -77 188q-27 -60 -76 -188q-5 -13 -15 -38.5t-15 -37.5z" />
    <glyph glyph-name="AE" unicode="&#xc6;" horiz-adv-x="876" 
d="M575 110h277v-110h-407v159h-259q-43 -73 -86 -159h-136q71 160 218 388q93 145 182 254h467v-109h-256v-139h218v-109h-218v-175zM250 265h195v273h-7q-70 -89 -153 -217q-20 -29 -35 -56z" />
    <glyph glyph-name="Ccedilla" unicode="&#xc7;" horiz-adv-x="615" 
d="M577 75q-74 -71 -182 -84q-17 -111 -112 -173l-52 55q28 20 50 51.5t29 64.5q-132 12 -209.5 101.5t-77.5 237.5q0 141 91.5 233t236.5 92q118 0 206 -66l-70 -92q-50 38 -129 38q-95 -1 -147.5 -57t-52.5 -148q0 -102 52 -162.5t147 -59.5q88 0 141 50z" />
    <glyph glyph-name="Egrave" unicode="&#xc8;" horiz-adv-x="492" 
d="M109 793l48 66l144 -97l-31 -45zM447 532h-255v-139h217v-109h-217v-175h276v-109h-406v642h385v-110z" />
    <glyph glyph-name="Eacute" unicode="&#xc9;" horiz-adv-x="492" 
d="M342 858l48 -66l-161 -76l-31 45zM447 532h-255v-139h217v-109h-217v-175h276v-109h-406v642h385v-110z" />
    <glyph glyph-name="Ecircumflex" unicode="&#xca;" horiz-adv-x="492" 
d="M260 858q25 -15 68.5 -50t63.5 -58l-33 -38q-36 42 -99 71q-64 -32 -99 -70l-32 37q18 23 59 55.5t72 52.5zM447 532h-255v-139h217v-109h-217v-175h276v-109h-406v642h385v-110z" />
    <glyph glyph-name="Edieresis" unicode="&#xcb;" horiz-adv-x="492" 
d="M447 532h-255v-139h217v-109h-217v-175h276v-109h-406v642h385v-110zM176 833q21 0 36 -14.5t15 -35.5t-15.5 -36.5t-35.5 -15.5q-22 0 -37.5 15t-15.5 37q0 21 15.5 35.5t37.5 14.5zM356 833q21 0 36 -14.5t15 -35.5t-15.5 -36.5t-35.5 -15.5q-22 0 -37.5 15t-15.5 37
q0 21 15.5 35.5t37.5 14.5z" />
    <glyph glyph-name="Igrave" unicode="&#xcc;" horiz-adv-x="254" 
d="M-19 792l48 66l144 -97l-31 -45zM192 642v-642h-130v642h130z" />
    <glyph glyph-name="Iacute" unicode="&#xcd;" horiz-adv-x="254" 
d="M215 858l48 -66l-161 -76l-31 45zM192 642v-642h-130v642h130z" />
    <glyph glyph-name="Icircumflex" unicode="&#xce;" horiz-adv-x="254" 
d="M125 858q25 -15 68.5 -50t63.5 -58l-33 -38q-36 42 -99 71q-65 -33 -98 -70l-33 37q19 23 59.5 56t71.5 52zM192 642v-642h-130v642h130z" />
    <glyph glyph-name="Idieresis" unicode="&#xcf;" horiz-adv-x="254" 
d="M192 642v-642h-130v642h130zM38 833q21 0 36 -14.5t15 -35.5t-15.5 -36.5t-35.5 -15.5q-22 0 -37.5 15t-15.5 37q0 21 15.5 35.5t37.5 14.5zM218 833q21 0 36 -14.5t15 -35.5t-15.5 -36.5t-35.5 -15.5q-22 0 -37.5 15t-15.5 37q0 21 15.5 35.5t37.5 14.5z" />
    <glyph glyph-name="Eth" unicode="&#xd0;" horiz-adv-x="627" 
d="M289 642q150 0 232.5 -85t82.5 -237q0 -139 -82 -229.5t-233 -90.5h-236v285h-62v105h62v252h236zM256 106q113 0 163.5 50.5t50.5 164.5q0 106 -51 160.5t-163 54.5h-73v-146h96v-105h-96v-179h73z" />
    <glyph glyph-name="Ntilde" unicode="&#xd1;" horiz-adv-x="750" 
d="M316 736h-50q2 33 19 59t50 26q18 0 50.5 -13t42.5 -13q5 0 10 3t7 5t7 9t6 9h51q-4 -35 -24 -61.5t-53 -26.5q-14 0 -44.5 14.5t-43.5 14.5q-18 0 -28 -26zM575 0q-99 184 -271 350q-57 54 -112 99v-449h-130v654h59q141 -93 268 -216q94 -91 169 -189v393h130v-642
h-113z" />
    <glyph glyph-name="Ograve" unicode="&#xd2;" horiz-adv-x="694" 
d="M207 793l48 66l144 -97l-31 -45zM346 -11q-148 0 -235.5 91t-87.5 249q0 141 89 232.5t234 91.5q147 0 236 -91t89 -233q0 -149 -84.5 -244.5t-240.5 -95.5zM346 544q-87 0 -138 -57.5t-51 -156.5q0 -101 51 -166.5t138 -65.5q97 0 144 66t47 166q0 91 -51.5 152.5
t-139.5 61.5z" />
    <glyph glyph-name="Oacute" unicode="&#xd3;" horiz-adv-x="694" 
d="M440 858l48 -66l-161 -76l-31 45zM346 -11q-148 0 -235.5 91t-87.5 249q0 141 89 232.5t234 91.5q147 0 236 -91t89 -233q0 -149 -84.5 -244.5t-240.5 -95.5zM346 544q-87 0 -138 -57.5t-51 -156.5q0 -101 51 -166.5t138 -65.5q97 0 144 66t47 166q0 91 -51.5 152.5
t-139.5 61.5z" />
    <glyph glyph-name="Ocircumflex" unicode="&#xd4;" horiz-adv-x="694" 
d="M342 857q25 -15 68.5 -50t63.5 -58l-33 -38q-36 42 -99 71q-64 -32 -99 -70l-32 37q18 23 59 55.5t72 52.5zM346 -11q-148 0 -235.5 91t-87.5 249q0 141 89 232.5t234 91.5q147 0 236 -91t89 -233q0 -149 -84.5 -244.5t-240.5 -95.5zM346 544q-87 0 -138 -57.5
t-51 -156.5q0 -101 51 -166.5t138 -65.5q97 0 144 66t47 166q0 91 -51.5 152.5t-139.5 61.5z" />
    <glyph glyph-name="Otilde" unicode="&#xd5;" horiz-adv-x="694" 
d="M286 734h-50q2 33 19 59t50 26q18 0 50.5 -13t42.5 -13q5 0 10 3t7 5t7 9t6 9h51q-4 -35 -24 -61.5t-53 -26.5q-14 0 -44.5 14.5t-43.5 14.5q-18 0 -28 -26zM346 -11q-148 0 -235.5 91t-87.5 249q0 141 89 232.5t234 91.5q147 0 236 -91t89 -233q0 -149 -84.5 -244.5
t-240.5 -95.5zM346 544q-87 0 -138 -57.5t-51 -156.5q0 -101 51 -166.5t138 -65.5q97 0 144 66t47 166q0 91 -51.5 152.5t-139.5 61.5z" />
    <glyph glyph-name="Odieresis" unicode="&#xd6;" horiz-adv-x="694" 
d="M346 -11q-148 0 -235.5 91t-87.5 249q0 141 89 232.5t234 91.5q147 0 236 -91t89 -233q0 -149 -84.5 -244.5t-240.5 -95.5zM346 544q-87 0 -138 -57.5t-51 -156.5q0 -101 51 -166.5t138 -65.5q97 0 144 66t47 166q0 91 -51.5 152.5t-139.5 61.5zM263 834q21 0 36 -14.5
t15 -35.5q0 -22 -15 -37t-36 -15q-22 0 -37.5 15t-15.5 37q0 21 15.5 35.5t37.5 14.5zM443 834q21 0 36 -14.5t15 -35.5q0 -22 -15 -37t-36 -15q-22 0 -37.5 15t-15.5 37q0 21 15.5 35.5t37.5 14.5z" />
    <glyph glyph-name="multiply" unicode="&#xd7;" 
d="M504 64l-80 -64q-55 69 -150 166q-88 -89 -149 -165l-80 64q60 76 156 174q-81 76 -152 133l63 81q74 -57 162 -142q89 86 163 143l63 -81q-64 -49 -153 -134q96 -99 157 -175z" />
    <glyph glyph-name="Oslash" unicode="&#xd8;" horiz-adv-x="732" 
d="M709 643l-86 -101q70 -87 70 -212q0 -149 -84.5 -245t-240.5 -96q-107 0 -181 47l-94 -108l-70 60l94 109q-73 90 -73 233q0 141 89.5 233.5t234.5 92.5q105 0 186 -51l85 98zM178 331q0 -72 28 -130l270 313q-46 33 -108 33q-87 0 -138.5 -58.5t-51.5 -157.5zM558 331
q0 59 -23 110l-269 -312q43 -31 102 -31q66 0 110 34t62 84.5t18 114.5z" />
    <glyph glyph-name="Ugrave" unicode="&#xd9;" horiz-adv-x="635" 
d="M168 792l48 66l144 -97l-31 -45zM449 272v370h130v-392q0 -43 -4.5 -76t-20.5 -69.5t-43 -60.5t-76.5 -39.5t-117.5 -15.5t-117.5 15t-76.5 38t-42.5 59.5t-20 70t-4.5 78.5v392h130v-370q0 -94 28.5 -137t102.5 -43q77 0 104.5 42.5t27.5 137.5z" />
    <glyph glyph-name="Uacute" unicode="&#xda;" horiz-adv-x="635" 
d="M410 859l48 -66l-161 -76l-31 45zM449 272v370h130v-392q0 -43 -4.5 -76t-20.5 -69.5t-43 -60.5t-76.5 -39.5t-117.5 -15.5t-117.5 15t-76.5 38t-42.5 59.5t-20 70t-4.5 78.5v392h130v-370q0 -94 28.5 -137t102.5 -43q77 0 104.5 42.5t27.5 137.5z" />
    <glyph glyph-name="Ucircumflex" unicode="&#xdb;" horiz-adv-x="635" 
d="M318 857q25 -15 68.5 -50t63.5 -58l-33 -38q-36 42 -99 71q-64 -32 -99 -70l-32 37q18 23 59 55.5t72 52.5zM449 272v370h130v-392q0 -43 -4.5 -76t-20.5 -69.5t-43 -60.5t-76.5 -39.5t-117.5 -15.5t-117.5 15t-76.5 38t-42.5 59.5t-20 70t-4.5 78.5v392h130v-370
q0 -94 28.5 -137t102.5 -43q77 0 104.5 42.5t27.5 137.5z" />
    <glyph glyph-name="Udieresis" unicode="&#xdc;" horiz-adv-x="635" 
d="M449 272v370h130v-392q0 -43 -4.5 -76t-20.5 -69.5t-43 -60.5t-76.5 -39.5t-117.5 -15.5t-117.5 15t-76.5 38t-42.5 59.5t-20 70t-4.5 78.5v392h130v-370q0 -94 28.5 -137t102.5 -43q77 0 104.5 42.5t27.5 137.5zM228 834q21 0 36 -14.5t15 -35.5q0 -22 -15.5 -37
t-35.5 -15q-22 0 -37.5 15t-15.5 37q0 21 15.5 35.5t37.5 14.5zM408 834q21 0 36 -14.5t15 -35.5q0 -22 -15.5 -37t-35.5 -15q-22 0 -37.5 15t-15.5 37q0 21 15.5 35.5t37.5 14.5z" />
    <glyph glyph-name="Yacute" unicode="&#xdd;" horiz-adv-x="560" 
d="M345 858l48 -66l-161 -76l-31 45zM433 642h131q-50 -145 -137 -286q-43 -68 -81 -118v-238h-130v235q-44 60 -82 121q-90 145 -138 286h131q45 -116 111 -221l42 -70q7 12 22 37t20 33q69 111 111 221z" />
    <glyph glyph-name="Thorn" unicode="&#xde;" horiz-adv-x="480" 
d="M192 134v-134h-130v642h130v-103h51q222 0 222 -201q0 -102 -53 -153t-154 -51h-66zM192 431v-189h26q60 0 87.5 19t27.5 77q0 57 -29 75t-89 18h-23z" />
    <glyph glyph-name="germandbls" unicode="&#xdf;" horiz-adv-x="522" 
d="M66 0v288h-50v103h50v106q0 99 48 157t149 58q91 0 145.5 -53t54.5 -136q0 -90 -71 -142q111 -48 111 -180q0 -102 -64 -157t-169 -55h-18v102q62 0 93.5 31t31.5 84q0 58 -34 87t-91 29v102q40 0 64 24.5t24 71.5q0 36 -22.5 61t-55.5 25q-74 0 -74 -123v-32v-451h-122z
" />
    <glyph glyph-name="agrave" unicode="&#xe0;" horiz-adv-x="459" 
d="M411 222v-106q0 -73 20 -99l-115 -20q-8 11 -21 50h-2q-45 -58 -141 -58q-63 0 -98 30t-35 90q0 97 134 131q56 16 132 21q-4 67 -95 69q-67 0 -122 -30l-25 72q68 32 167 32q102 0 151.5 -43.5t49.5 -138.5zM288 125v64q0 8 -1 11q-25 -4 -68 -16q-76 -23 -74 -72
q-1 -24 17 -38.5t48 -15.5q65 1 78 67zM94 584l67 45l102 -141l-44 -30z" />
    <glyph glyph-name="aacute" unicode="&#xe1;" horiz-adv-x="459" 
d="M411 222v-106q0 -73 20 -99l-115 -20q-8 11 -21 50h-2q-45 -58 -141 -58q-63 0 -98 30t-35 90q0 97 134 131q56 16 132 21q-4 67 -95 69q-67 0 -122 -30l-25 72q68 32 167 32q102 0 151.5 -43.5t49.5 -138.5zM288 125v64q0 8 -1 11q-25 -4 -68 -16q-76 -23 -74 -72
q-1 -24 17 -38.5t48 -15.5q65 1 78 67zM288 629l67 -45l-125 -126l-44 30z" />
    <glyph glyph-name="acircumflex" unicode="&#xe2;" horiz-adv-x="459" 
d="M411 222v-106q0 -73 20 -99l-115 -20q-8 11 -21 50h-2q-45 -58 -141 -58q-63 0 -98 30t-35 90q0 97 134 131q56 16 132 21q-4 67 -95 69q-67 0 -122 -30l-25 72q68 32 167 32q102 0 151.5 -43.5t49.5 -138.5zM288 125v64q0 8 -1 11q-25 -4 -68 -16q-76 -23 -74 -72
q-1 -24 17 -38.5t48 -15.5q65 1 78 67zM225 601q22 -13 66 -53t66 -66l-33 -38q-19 23 -47.5 47t-51.5 34q-21 -10 -50.5 -34.5t-47.5 -45.5l-33 37q21 26 62.5 64t68.5 55z" />
    <glyph glyph-name="atilde" unicode="&#xe3;" horiz-adv-x="459" 
d="M411 222v-106q0 -73 20 -99l-115 -20q-8 11 -21 50h-2q-45 -58 -141 -58q-63 0 -98 30t-35 90q0 97 134 131q56 16 132 21q-4 67 -95 69q-67 0 -122 -30l-25 72q68 32 167 32q102 0 151.5 -43.5t49.5 -138.5zM288 125v64q0 8 -1 11q-25 -4 -68 -16q-76 -23 -74 -72
q-1 -24 17 -38.5t48 -15.5q65 1 78 67zM153 463h-50q2 33 19 59t50 26q18 0 50.5 -13t42.5 -13q5 0 10 3t7 5t7 9t6 9h51q-4 -35 -24 -61.5t-53 -26.5q-14 0 -44.5 14.5t-43.5 14.5q-18 0 -28 -26z" />
    <glyph glyph-name="adieresis" unicode="&#xe4;" horiz-adv-x="459" 
d="M411 222v-106q0 -73 20 -99l-115 -20q-8 11 -21 50h-2q-45 -58 -141 -58q-63 0 -98 30t-35 90q0 97 134 131q56 16 132 21q-4 67 -95 69q-67 0 -122 -30l-25 72q68 32 167 32q102 0 151.5 -43.5t49.5 -138.5zM288 125v64q0 8 -1 11q-25 -4 -68 -16q-76 -23 -74 -72
q-1 -24 17 -38.5t48 -15.5q65 1 78 67zM134 583q21 0 36 -14.5t15 -35.5t-15.5 -36.5t-35.5 -15.5q-22 0 -37.5 15t-15.5 37q0 21 15.5 35.5t37.5 14.5zM314 583q21 0 36 -14.5t15 -35.5t-15.5 -36.5t-35.5 -15.5q-22 0 -37.5 15t-15.5 37q0 21 15.5 35.5t37.5 14.5z" />
    <glyph glyph-name="aring" unicode="&#xe5;" horiz-adv-x="459" 
d="M411 222v-106q0 -73 20 -99l-115 -20q-8 11 -21 50h-2q-45 -58 -141 -58q-63 0 -98 30t-35 90q0 97 134 131q56 16 132 21q-4 67 -95 69q-67 0 -122 -30l-25 72q68 32 167 32q102 0 151.5 -43.5t49.5 -138.5zM288 125v64q0 8 -1 11q-25 -4 -68 -16q-76 -23 -74 -72
q-1 -24 17 -38.5t48 -15.5q65 1 78 67zM223 604q32 0 55.5 -22t23.5 -54t-23.5 -54.5t-54.5 -22.5q-32 0 -55.5 22.5t-23.5 54.5t23.5 54t54.5 22zM224 557q-31 0 -31 -29q0 -30 31 -30q30 0 30 30q0 29 -30 29z" />
    <glyph glyph-name="ae" unicode="&#xe6;" horiz-adv-x="714" 
d="M695 185v-13h-281q0 -44 31.5 -75t90.5 -31q64 0 108 28q26 -40 44 -66q-56 -39 -165 -39q-140 0 -200 82h-2q-17 -21 -31 -35t-52.5 -30.5t-86.5 -16.5q-62 0 -97 30t-35 91q0 96 133 130q54 15 136 21q-4 66 -97 68q-68 0 -123 -30l-26 73q68 32 169 32t152 -42
q54 42 136 42q101 0 148.5 -59t47.5 -160zM291 126v64q0 7 -1 10q-38 -6 -70 -15q-78 -23 -76 -72q-1 -25 16 -39t51 -15q34 1 54 19.5t26 47.5zM416 233h163q-3 102 -77 102q-80 0 -86 -102z" />
    <glyph glyph-name="ccedilla" unicode="&#xe7;" horiz-adv-x="368" 
d="M364 26q-39 -27 -92 -33q-17 -90 -87 -132l-40 43q46 31 61 88q-93 8 -140 63t-47 144q0 91 60 148t159 57q68 0 123 -31l-43 -76q-34 18 -70 18q-46 0 -74.5 -30t-28.5 -86q0 -54 26 -87.5t77 -33.5q41 0 68 21z" />
    <glyph glyph-name="egrave" unicode="&#xe8;" horiz-adv-x="450" 
d="M270 66q66 0 110 28q26 -40 44 -66q-56 -39 -167 -39q-122 0 -180 57t-58 146q0 97 58 154.5t156 57.5q101 0 149.5 -59.5t48.5 -159.5v-13h-285q0 -44 32 -75t92 -31zM236 335q-82 0 -88 -102h167q-3 102 -79 102zM115 584l67 45l102 -141l-44 -30z" />
    <glyph glyph-name="eacute" unicode="&#xe9;" horiz-adv-x="450" 
d="M270 66q66 0 110 28q26 -40 44 -66q-56 -39 -167 -39q-122 0 -180 57t-58 146q0 97 58 154.5t156 57.5q101 0 149.5 -59.5t48.5 -159.5v-13h-285q0 -44 32 -75t92 -31zM236 335q-82 0 -88 -102h167q-3 102 -79 102zM297 629l67 -45l-125 -126l-44 30z" />
    <glyph glyph-name="ecircumflex" unicode="&#xea;" horiz-adv-x="450" 
d="M270 66q66 0 110 28q26 -40 44 -66q-56 -39 -167 -39q-122 0 -180 57t-58 146q0 97 58 154.5t156 57.5q101 0 149.5 -59.5t48.5 -159.5v-13h-285q0 -44 32 -75t92 -31zM236 335q-82 0 -88 -102h167q-3 102 -79 102zM238 601q22 -13 66 -53t66 -66l-33 -38
q-19 23 -47.5 47t-51.5 34q-21 -10 -50.5 -34.5t-47.5 -45.5l-33 37q21 26 62.5 64t68.5 55z" />
    <glyph glyph-name="edieresis" unicode="&#xeb;" horiz-adv-x="450" 
d="M270 66q66 0 110 28q26 -40 44 -66q-56 -39 -167 -39q-122 0 -180 57t-58 146q0 97 58 154.5t156 57.5q101 0 149.5 -59.5t48.5 -159.5v-13h-285q0 -44 32 -75t92 -31zM236 335q-82 0 -88 -102h167q-3 102 -79 102zM147 583q21 0 36 -14.5t15 -35.5t-15 -36.5t-36 -15.5
q-22 0 -37.5 15t-15.5 37q0 21 15.5 35.5t37.5 14.5zM327 583q21 0 36 -14.5t15 -35.5t-15 -36.5t-36 -15.5q-22 0 -37.5 15t-15.5 37q0 21 15.5 35.5t37.5 14.5z" />
    <glyph glyph-name="igrave" unicode="&#xec;" horiz-adv-x="227" 
d="M175 393v-393h-123v393h123zM-21 584l67 45l102 -141l-44 -30z" />
    <glyph glyph-name="iacute" unicode="&#xed;" horiz-adv-x="227" 
d="M175 393v-393h-123v393h123zM179 629l67 -45l-125 -126l-44 30z" />
    <glyph glyph-name="icircumflex" unicode="&#xee;" horiz-adv-x="227" 
d="M175 393v-393h-123v393h123zM114 601q22 -13 66 -53t66 -66l-33 -38q-19 23 -47.5 47t-51.5 34q-21 -10 -50.5 -34.5t-47.5 -45.5l-33 37q21 26 62.5 64t68.5 55z" />
    <glyph glyph-name="idieresis" unicode="&#xef;" horiz-adv-x="227" 
d="M175 393v-393h-123v393h123zM24 583q21 0 36 -14.5t15 -35.5t-15.5 -36.5t-35.5 -15.5q-22 0 -37.5 15t-15.5 37q0 21 15.5 35.5t37.5 14.5zM204 583q21 0 36 -14.5t15 -35.5t-15.5 -36.5t-35.5 -15.5q-22 0 -37.5 15t-15.5 37q0 21 15.5 35.5t37.5 14.5z" />
    <glyph glyph-name="eth" unicode="&#xf0;" horiz-adv-x="495" 
d="M248 325q-43 0 -70.5 -34.5t-27.5 -79.5t27.5 -80t70.5 -35q44 0 71 35t27 80t-27 79.5t-71 34.5zM35 521l98 72q-17 18 -69 66q3 2 76 61q32 -27 74 -67q53 39 92 67l57 -57l-93 -68q2 -3 24.5 -28.5t35.5 -42.5t37 -49t39.5 -60t32 -62.5t24.5 -70.5t8 -71
q0 -97 -62 -160t-161 -63t-161.5 62t-62.5 161q0 26 5.5 53t21.5 58.5t41.5 55.5t69 40t99.5 16q-16 38 -50 75l-23 26l-95 -70z" />
    <glyph glyph-name="ntilde" unicode="&#xf1;" horiz-adv-x="521" 
d="M309 404q155 0 155 -175v-229h-123v191q0 19 -0.5 31.5t-5 30.5t-11.5 28t-22 18t-36 8q-84 0 -84 -119v-188h-122v248q0 77 -20 111l116 38q13 -17 22 -64q40 71 131 71zM189 463h-50q2 33 19 59t50 26q18 0 50.5 -13t42.5 -13q5 0 10 3t7 5t7 9t6 9h51
q-4 -35 -24 -61.5t-53 -26.5q-14 0 -44.5 14.5t-43.5 14.5q-18 0 -28 -26z" />
    <glyph glyph-name="ograve" unicode="&#xf2;" horiz-adv-x="483" 
d="M242 404q103 0 162.5 -58.5t59.5 -150.5q0 -93 -59.5 -149.5t-162.5 -56.5q-101 0 -162 56t-61 150q0 91 60 150t163 59zM242 324q-45 0 -71 -31.5t-26 -97.5q0 -62 26.5 -94t70.5 -32q45 0 71 31t26 95q0 61 -26 95t-71 34zM116 584l67 45l102 -141l-44 -30z" />
    <glyph glyph-name="oacute" unicode="&#xf3;" horiz-adv-x="483" 
d="M242 404q103 0 162.5 -58.5t59.5 -150.5q0 -93 -59.5 -149.5t-162.5 -56.5q-101 0 -162 56t-61 150q0 91 60 150t163 59zM242 324q-45 0 -71 -31.5t-26 -97.5q0 -62 26.5 -94t70.5 -32q45 0 71 31t26 95q0 61 -26 95t-71 34zM324 629l67 -45l-125 -126l-44 30z" />
    <glyph glyph-name="ocircumflex" unicode="&#xf4;" horiz-adv-x="483" 
d="M242 404q103 0 162.5 -58.5t59.5 -150.5q0 -93 -59.5 -149.5t-162.5 -56.5q-101 0 -162 56t-61 150q0 91 60 150t163 59zM242 324q-45 0 -71 -31.5t-26 -97.5q0 -62 26.5 -94t70.5 -32q45 0 71 31t26 95q0 61 -26 95t-71 34zM244 601q22 -13 66 -53t66 -66l-33 -38
q-19 23 -47.5 47t-51.5 34q-21 -10 -50.5 -34.5t-47.5 -45.5l-33 37q21 26 62.5 64t68.5 55z" />
    <glyph glyph-name="otilde" unicode="&#xf5;" horiz-adv-x="483" 
d="M242 404q103 0 162.5 -58.5t59.5 -150.5q0 -93 -59.5 -149.5t-162.5 -56.5q-101 0 -162 56t-61 150q0 91 60 150t163 59zM242 324q-45 0 -71 -31.5t-26 -97.5q0 -62 26.5 -94t70.5 -32q45 0 71 31t26 95q0 61 -26 95t-71 34zM170 463h-50q2 33 19 59t50 26q18 0 50.5 -13
t42.5 -13q5 0 10 3t7 5t7 9t6 9h51q-4 -35 -24 -61.5t-53 -26.5q-14 0 -44.5 14.5t-43.5 14.5q-18 0 -28 -26z" />
    <glyph glyph-name="odieresis" unicode="&#xf6;" horiz-adv-x="483" 
d="M242 404q103 0 162.5 -58.5t59.5 -150.5q0 -93 -59.5 -149.5t-162.5 -56.5q-101 0 -162 56t-61 150q0 91 60 150t163 59zM242 324q-45 0 -71 -31.5t-26 -97.5q0 -62 26.5 -94t70.5 -32q45 0 71 31t26 95q0 61 -26 95t-71 34zM152 583q21 0 36 -14.5t15 -35.5t-15.5 -36.5
t-35.5 -15.5q-22 0 -37.5 15t-15.5 37q0 21 15.5 35.5t37.5 14.5zM332 583q21 0 36 -14.5t15 -35.5t-15.5 -36.5t-35.5 -15.5q-22 0 -37.5 15t-15.5 37q0 21 15.5 35.5t37.5 14.5z" />
    <glyph glyph-name="divide" unicode="&#xf7;" 
d="M275 121q29 0 49 -20.5t20 -48.5q0 -29 -20 -49t-49 -20t-49.5 20t-20.5 49t20.5 49t49.5 20zM275 451q29 0 49 -20.5t20 -48.5q0 -29 -20 -49.5t-49 -20.5t-49.5 20.5t-20.5 49.5t20.5 49t49.5 20zM57 165v104h435v-104h-435z" />
    <glyph glyph-name="oslash" unicode="&#xf8;" horiz-adv-x="483" 
d="M402 348q62 -57 62 -152q0 -93 -59.5 -149.5t-162.5 -56.5q-72 0 -124 29l-54 -63l-35 30l52 59q-62 56 -62 151q0 91 60 149.5t163 58.5q72 0 122 -29l50 58l35 -30zM145 196q0 -40 10 -64l147 170q-25 22 -60 22q-45 0 -71 -31t-26 -97zM242 70q45 0 71 31t26 95
q0 38 -11 66l-147 -170q23 -22 61 -22z" />
    <glyph glyph-name="ugrave" unicode="&#xf9;" horiz-adv-x="519" 
d="M336 393h122v-251q0 -38 6.5 -69.5t14.5 -41.5l-118 -37q-13 18 -22 65q-38 -70 -128 -70q-154 0 -154 174v230h123v-192q0 -22 1 -36t5 -30.5t11.5 -26t22 -16t34.5 -6.5q27 0 44.5 10.5t25 30t10 36.5t2.5 41v189zM110 584l67 45l102 -141l-44 -30z" />
    <glyph glyph-name="uacute" unicode="&#xfa;" horiz-adv-x="519" 
d="M336 393h122v-251q0 -38 6.5 -69.5t14.5 -41.5l-118 -37q-13 18 -22 65q-38 -70 -128 -70q-154 0 -154 174v230h123v-192q0 -22 1 -36t5 -30.5t11.5 -26t22 -16t34.5 -6.5q27 0 44.5 10.5t25 30t10 36.5t2.5 41v189zM305 629l67 -45l-125 -126l-44 30z" />
    <glyph glyph-name="ucircumflex" unicode="&#xfb;" horiz-adv-x="519" 
d="M336 393h122v-251q0 -38 6.5 -69.5t14.5 -41.5l-118 -37q-13 18 -22 65q-38 -70 -128 -70q-154 0 -154 174v230h123v-192q0 -22 1 -36t5 -30.5t11.5 -26t22 -16t34.5 -6.5q27 0 44.5 10.5t25 30t10 36.5t2.5 41v189zM237 601q22 -13 66 -53t66 -66l-33 -38
q-19 23 -47.5 47t-51.5 34q-21 -10 -50.5 -34.5t-47.5 -45.5l-33 37q21 26 62.5 64t68.5 55z" />
    <glyph glyph-name="udieresis" unicode="&#xfc;" horiz-adv-x="519" 
d="M336 393h122v-251q0 -38 6.5 -69.5t14.5 -41.5l-118 -37q-13 18 -22 65q-38 -70 -128 -70q-154 0 -154 174v230h123v-192q0 -22 1 -36t5 -30.5t11.5 -26t22 -16t34.5 -6.5q27 0 44.5 10.5t25 30t10 36.5t2.5 41v189zM172 583q21 0 36 -14.5t15 -35.5t-15.5 -36.5
t-35.5 -15.5q-22 0 -37.5 15t-15.5 37q0 21 15.5 35.5t37.5 14.5zM352 583q21 0 36 -14.5t15 -35.5t-15.5 -36.5t-35.5 -15.5q-22 0 -37.5 15t-15.5 37q0 21 15.5 35.5t37.5 14.5z" />
    <glyph glyph-name="yacute" unicode="&#xfd;" horiz-adv-x="405" 
d="M288 393h122q-35 -149 -103 -302q-75 -168 -181 -312h-145v6q76 92 146 209q-51 98 -91 206t-57 193h121q34 -144 93 -270h2l26 59q41 109 67 211zM273 629l67 -45l-125 -126l-44 30z" />
    <glyph glyph-name="thorn" unicode="&#xfe;" horiz-adv-x="506" 
d="M180 701v-348q43 52 117 52q88 0 139 -56.5t51 -143.5q0 -91 -51 -155t-140 -64q-34 0 -65.5 14t-48.5 39h-2v-260h-123v922h123zM267 94q47 0 71 32.5t24 77.5q0 43 -24 68t-71 25q-49 0 -73.5 -27.5t-24.5 -69.5q0 -47 24.5 -76.5t73.5 -29.5z" />
    <glyph glyph-name="ydieresis" unicode="&#xff;" horiz-adv-x="405" 
d="M288 393h122q-35 -149 -103 -302q-75 -168 -181 -312h-145v6q76 92 146 209q-51 98 -91 206t-57 193h121q34 -144 93 -270h2l26 59q41 109 67 211zM115 583q21 0 36 -14.5t15 -35.5t-15 -36.5t-36 -15.5q-22 0 -37.5 15t-15.5 37q0 21 15.5 35.5t37.5 14.5zM295 583
q21 0 36 -14.5t15 -35.5t-15 -36.5t-36 -15.5q-22 0 -37.5 15t-15.5 37q0 21 15.5 35.5t37.5 14.5z" />
    <glyph glyph-name="Amacron" unicode="&#x100;" horiz-adv-x="625" 
d="M385 642q52 -101 119 -267q80 -203 125 -375h-127q-16 54 -46 147h-287q-21 -62 -46 -147h-127q45 172 125 375q57 147 119 267h145zM206 254h213q-5 13 -15 38t-15 38q-42 110 -77 188q-27 -60 -76 -188q-5 -13 -15 -38.5t-15 -37.5zM180 801h265v-55h-265v55z" />
    <glyph glyph-name="amacron" unicode="&#x101;" horiz-adv-x="459" 
d="M411 222v-106q0 -73 20 -99l-115 -20q-8 11 -21 50h-2q-45 -58 -141 -58q-63 0 -98 30t-35 90q0 97 134 131q56 16 132 21q-4 67 -95 69q-67 0 -122 -30l-25 72q68 32 167 32q102 0 151.5 -43.5t49.5 -138.5zM288 125v64q0 8 -1 11q-25 -4 -68 -16q-76 -23 -74 -72
q-1 -24 17 -38.5t48 -15.5q65 1 78 67zM92 532h265v-55h-265v55z" />
    <glyph glyph-name="Abreve" unicode="&#x102;" horiz-adv-x="625" 
d="M385 642q52 -101 119 -267q80 -203 125 -375h-127q-16 54 -46 147h-287q-21 -62 -46 -147h-127q45 172 125 375q57 147 119 267h145zM206 254h213q-5 13 -15 38t-15 38q-42 110 -77 188q-27 -60 -76 -188q-5 -13 -15 -38.5t-15 -37.5zM197 826h64q14 -47 51 -47
q40 0 50 47h66q-4 -47 -36 -75t-80 -28q-47 0 -79 28t-36 75z" />
    <glyph glyph-name="abreve" unicode="&#x103;" horiz-adv-x="459" 
d="M411 222v-106q0 -73 20 -99l-115 -20q-8 11 -21 50h-2q-45 -58 -141 -58q-63 0 -98 30t-35 90q0 97 134 131q56 16 132 21q-4 67 -95 69q-67 0 -122 -30l-25 72q68 32 167 32q102 0 151.5 -43.5t49.5 -138.5zM288 125v64q0 8 -1 11q-25 -4 -68 -16q-76 -23 -74 -72
q-1 -24 17 -38.5t48 -15.5q65 1 78 67zM114 557h64q14 -47 51 -47q40 0 50 47h66q-4 -47 -36 -75t-80 -28q-47 0 -79 28t-36 75z" />
    <glyph glyph-name="Aogonek" unicode="&#x104;" horiz-adv-x="625" 
d="M506 -150q30 0 47 36l31 -17q-8 -27 -34 -50.5t-68 -23.5q-41 0 -66 22t-25 53q0 29 17 53t35 37t52 33q8 5 12 7h-5q-16 54 -46 147h-287q-21 -62 -46 -147h-127q45 172 125 375q57 147 119 267h145q52 -101 119 -267q80 -203 125 -375h-61l-20 -16l-22.5 -18t-19.5 -18
t-18 -21t-11 -21t-5 -24q0 -32 34 -32zM206 254h213l-30 76q-42 110 -77 188q-27 -60 -76 -188z" />
    <glyph glyph-name="aogonek" unicode="&#x105;" horiz-adv-x="459" 
d="M335 -139q29 0 48 36l30 -18q-7 -27 -33.5 -50t-67.5 -23q-42 0 -67 21.5t-25 53.5q0 39 24 64.5t70 52.5q-10 17 -19 49h-2q-45 -58 -141 -58q-63 0 -98 30t-35 90q0 97 134 131q56 16 132 21q-4 67 -95 69q-67 0 -122 -30l-25 72q68 32 167 32q102 0 151.5 -43.5
t49.5 -138.5v-106q0 -73 20 -99q-36 -9 -50 -19q-26 -20 -39 -31.5t-27 -33t-14 -41.5q0 -31 34 -31zM288 125v64q0 8 -1 11q-25 -4 -68 -16q-76 -23 -74 -72q-1 -24 17 -38.5t48 -15.5q65 1 78 67z" />
    <glyph glyph-name="Cacute" unicode="&#x106;" horiz-adv-x="615" 
d="M427 858l48 -66l-161 -76l-31 45zM556 587l-70 -92q-50 38 -129 38q-94 -1 -147 -57t-53 -148q0 -102 52 -162t148 -59q88 0 141 50l79 -81q-89 -87 -229 -87q-148 0 -236.5 90.5t-88.5 248.5q0 141 91.5 233t236.5 92q119 0 205 -66z" />
    <glyph glyph-name="cacute" unicode="&#x107;" horiz-adv-x="367" 
d="M360 373l-43 -76q-34 18 -70 18q-46 0 -74.5 -30.5t-28.5 -86.5q0 -54 26 -87.5t77 -33.5q41 0 68 21l48 -73q-51 -36 -128 -36q-107 0 -161.5 56t-54.5 153q0 91 60 148.5t158 57.5q68 0 123 -31zM294 629l67 -45l-125 -126l-44 30z" />
    <glyph glyph-name="Ccircumflex" unicode="&#x108;" horiz-adv-x="615" 
d="M330 858q25 -15 68.5 -50t63.5 -58l-33 -38q-36 42 -99 71q-64 -32 -99 -70l-32 37q18 23 59 55.5t72 52.5zM556 587l-70 -92q-50 38 -129 38q-94 -1 -147 -57t-53 -148q0 -102 52 -162t148 -59q88 0 141 50l79 -81q-89 -87 -229 -87q-148 0 -236.5 90.5t-88.5 248.5
q0 141 91.5 233t236.5 92q119 0 205 -66z" />
    <glyph glyph-name="ccircumflex" unicode="&#x109;" horiz-adv-x="367" 
d="M360 373l-43 -76q-34 18 -70 18q-46 0 -74.5 -30.5t-28.5 -86.5q0 -54 26 -87.5t77 -33.5q41 0 68 21l48 -73q-51 -36 -128 -36q-107 0 -161.5 56t-54.5 153q0 91 60 148.5t158 57.5q68 0 123 -31zM220 601q22 -13 66 -53t66 -66l-33 -38q-19 23 -47.5 47t-51.5 34
q-21 -10 -50.5 -34.5t-47.5 -45.5l-33 37q21 26 62.5 64t68.5 55z" />
    <glyph glyph-name="Cdotaccent" unicode="&#x10a;" horiz-adv-x="615" 
d="M556 587l-70 -92q-50 38 -129 38q-94 -1 -147 -57t-53 -148q0 -102 52 -162t148 -59q88 0 141 50l79 -81q-89 -87 -229 -87q-148 0 -236.5 90.5t-88.5 248.5q0 141 91.5 233t236.5 92q119 0 205 -66zM339 852q21 0 36 -14.5t15 -35.5q0 -22 -15 -37t-36 -15
q-22 0 -37.5 15t-15.5 37q0 21 15.5 35.5t37.5 14.5z" />
    <glyph glyph-name="cdotaccent" unicode="&#x10b;" horiz-adv-x="367" 
d="M360 373l-43 -76q-34 18 -70 18q-46 0 -74.5 -30.5t-28.5 -86.5q0 -54 26 -87.5t77 -33.5q41 0 68 21l48 -73q-51 -36 -128 -36q-107 0 -161.5 56t-54.5 153q0 91 60 148.5t158 57.5q68 0 123 -31zM214 583q21 0 36 -14.5t15 -35.5t-15.5 -36.5t-35.5 -15.5
q-22 0 -37.5 15t-15.5 37q0 21 15.5 35.5t37.5 14.5z" />
    <glyph glyph-name="Ccaron" unicode="&#x10c;" horiz-adv-x="615" 
d="M556 587l-70 -92q-50 38 -129 38q-94 -1 -147 -57t-53 -148q0 -102 52 -162t148 -59q88 0 141 50l79 -81q-89 -87 -229 -87q-148 0 -236.5 90.5t-88.5 248.5q0 141 91.5 233t236.5 92q119 0 205 -66zM331 714q-27 17 -68.5 55t-62.5 64l33 37q18 -21 47.5 -45.5
t50.5 -35.5q48 22 99 82l33 -38q-22 -26 -66 -66t-66 -53z" />
    <glyph glyph-name="ccaron" unicode="&#x10d;" horiz-adv-x="367" 
d="M360 373l-43 -76q-34 18 -70 18q-46 0 -74.5 -30.5t-28.5 -86.5q0 -54 26 -87.5t77 -33.5q41 0 68 21l48 -73q-51 -36 -128 -36q-107 0 -161.5 56t-54.5 153q0 91 60 148.5t158 57.5q68 0 123 -31zM213 446q-27 17 -68.5 55t-62.5 64l33 37q18 -21 47.5 -45.5t50.5 -35.5
q48 22 99 82l33 -38q-22 -26 -66 -66t-66 -53z" />
    <glyph glyph-name="Dcaron" unicode="&#x10e;" horiz-adv-x="636" 
d="M62 0v642h236q150 0 232.5 -85t82.5 -237q0 -139 -82.5 -229.5t-233.5 -90.5h-235zM192 535v-429h73q113 0 163 50.5t50 164.5q0 106 -50.5 160t-162.5 54h-73zM294 715q-27 17 -68.5 55t-62.5 64l33 37q18 -21 47.5 -45.5t50.5 -35.5q48 22 99 82l33 -38
q-22 -26 -66 -66t-66 -53z" />
    <glyph glyph-name="dcaron" unicode="&#x10f;" horiz-adv-x="629" 
d="M568 493l-46 28q33 49 33 101q0 39 -26 69l68 16q14 -9 25 -31.5t11 -49.5q0 -38 -14 -68.5t-23 -39t-28 -25.5zM482 32q-64 -21 -118 -37q-13 15 -22 61h-4q-40 -67 -136 -67q-83 0 -133 49t-50 150q0 95 60.5 155t158.5 60q56 0 101 -17v315h123v-564q0 -77 20 -105z
M235 74q45 0 74.5 29t29.5 85v44q0 51 -21.5 72t-72.5 21q-101 0 -101 -137q0 -53 24.5 -83.5t66.5 -30.5z" />
    <glyph glyph-name="Dcroat" unicode="&#x110;" horiz-adv-x="627" 
d="M289 642q150 0 232.5 -85t82.5 -237q0 -139 -82 -229.5t-233 -90.5h-236v285h-62v105h62v252h236zM256 106q113 0 163.5 50.5t50.5 164.5q0 106 -51 160.5t-163 54.5h-73v-146h96v-105h-96v-179h73z" />
    <glyph glyph-name="dcroat" unicode="&#x111;" horiz-adv-x="546" 
d="M524 514h-62v-378q0 -77 20 -105q-64 -21 -118 -37q-13 15 -22 61h-4q-40 -67 -136 -67q-83 0 -133 49t-50 150q0 95 60.5 155t158.5 60q56 0 101 -17v129h-173v84h173v102h123v-102h62v-84zM339 187v44q0 51 -21.5 72t-72.5 21q-101 0 -101 -137q0 -53 24.5 -83.5
t66.5 -30.5q45 0 74.5 29t29.5 85z" />
    <glyph glyph-name="Emacron" unicode="&#x112;" horiz-adv-x="492" 
d="M447 532h-255v-139h217v-109h-217v-175h276v-109h-406v642h385v-110zM127 801h265v-55h-265v55z" />
    <glyph glyph-name="emacron" unicode="&#x113;" horiz-adv-x="450" 
d="M270 66q66 0 110 28q26 -40 44 -66q-56 -39 -167 -39q-122 0 -180 57t-58 146q0 97 58 154.5t156 57.5q101 0 149.5 -59.5t48.5 -159.5v-13h-285q0 -44 32 -75t92 -31zM236 335q-82 0 -88 -102h167q-3 102 -79 102zM103 532h265v-55h-265v55z" />
    <glyph glyph-name="Ebreve" unicode="&#x114;" horiz-adv-x="492" 
d="M447 532h-255v-139h217v-109h-217v-175h276v-109h-406v642h385v-110zM130 827h64q14 -47 51 -47q40 0 50 47h66q-4 -47 -36 -75t-80 -28q-47 0 -79 28t-36 75z" />
    <glyph glyph-name="ebreve" unicode="&#x115;" horiz-adv-x="450" 
d="M270 66q66 0 110 28q26 -40 44 -66q-56 -39 -167 -39q-122 0 -180 57t-58 146q0 97 58 154.5t156 57.5q101 0 149.5 -59.5t48.5 -159.5v-13h-285q0 -44 32 -75t92 -31zM236 335q-82 0 -88 -102h167q-3 102 -79 102zM109 557h64q14 -47 51 -47q40 0 50 47h66
q-4 -47 -36 -75t-80 -28q-47 0 -79 28t-36 75z" />
    <glyph glyph-name="Edotaccent" unicode="&#x116;" horiz-adv-x="492" 
d="M447 532h-255v-139h217v-109h-217v-175h276v-109h-406v642h385v-110zM260 833q21 0 36 -14.5t15 -35.5t-15.5 -36.5t-35.5 -15.5q-22 0 -37.5 15t-15.5 37q0 21 15.5 35.5t37.5 14.5z" />
    <glyph glyph-name="edotaccent" unicode="&#x117;" horiz-adv-x="450" 
d="M270 66q66 0 110 28q26 -40 44 -66q-56 -39 -167 -39q-122 0 -180 57t-58 146q0 97 58 154.5t156 57.5q101 0 149.5 -59.5t48.5 -159.5v-13h-285q0 -44 32 -75t92 -31zM236 335q-82 0 -88 -102h167q-3 102 -79 102zM235 583q21 0 36 -14.5t15 -35.5t-15 -36.5t-36 -15.5
q-22 0 -37.5 15t-15.5 37q0 21 15.5 35.5t37.5 14.5z" />
    <glyph glyph-name="Eogonek" unicode="&#x118;" horiz-adv-x="492" 
d="M399 0l-20 -16l-22.5 -18t-19.5 -18t-18 -21t-11 -21t-5 -24q0 -32 34 -32q29 0 48 36l30 -17q-6 -27 -33 -50.5t-68 -23.5t-66.5 22t-25.5 53q0 29 17 53t35 37t52 33q8 5 12 7h-276v642h385v-110h-255v-139h217v-109h-217v-175h276v-109h-69z" />
    <glyph glyph-name="eogonek" unicode="&#x119;" horiz-adv-x="450" 
d="M431 185v-13h-285q0 -44 32 -75t92 -31q66 0 110 28q26 -40 44 -66q-22 -16 -64 -27q-16 -13 -20 -16q-25 -20 -37.5 -31.5t-26.5 -32.5t-14 -41q0 -32 33 -32q28 0 48 37l31 -18q-7 -27 -33.5 -50t-68.5 -23q-41 0 -66.5 21.5t-25.5 53.5q0 28 16 52t33.5 36.5
t50.5 31.5h-23q-122 0 -180 57t-58 146q0 97 58 154.5t156 57.5q101 0 149.5 -59.5t48.5 -159.5zM148 233h167q-3 102 -79 102q-82 0 -88 -102z" />
    <glyph glyph-name="Ecaron" unicode="&#x11a;" horiz-adv-x="492" 
d="M447 532h-255v-139h217v-109h-217v-175h276v-109h-406v642h385v-110zM264 717q-27 17 -68.5 55t-62.5 64l33 37q18 -21 47.5 -45.5t50.5 -35.5q48 22 99 82l33 -38q-22 -26 -66 -66t-66 -53z" />
    <glyph glyph-name="ecaron" unicode="&#x11b;" horiz-adv-x="450" 
d="M270 66q66 0 110 28q26 -40 44 -66q-56 -39 -167 -39q-122 0 -180 57t-58 146q0 97 58 154.5t156 57.5q101 0 149.5 -59.5t48.5 -159.5v-13h-285q0 -44 32 -75t92 -31zM236 335q-82 0 -88 -102h167q-3 102 -79 102zM235 446q-27 17 -68.5 55t-62.5 64l33 37
q18 -21 47.5 -45.5t50.5 -35.5q48 22 99 82l33 -38q-22 -26 -66 -66t-66 -53z" />
    <glyph glyph-name="Gcircumflex" unicode="&#x11c;" horiz-adv-x="646" 
d="M348 339h252v-280q-29 -25 -93 -47.5t-144 -22.5q-160 0 -250 93.5t-90 245.5q0 139 94 231.5t257 93.5q132 0 218 -66l-70 -92q-52 41 -149 39q-95 0 -155.5 -53t-60.5 -153q0 -102 57.5 -162.5t161.5 -60.5q53 0 94 19v110h-122v105zM364 870q22 -13 66 -53t66 -66
l-33 -38q-19 23 -47.5 47t-51.5 34q-21 -10 -50.5 -34.5t-47.5 -45.5l-33 37q21 26 62.5 64t68.5 55z" />
    <glyph glyph-name="gcircumflex" unicode="&#x11d;" horiz-adv-x="511" 
d="M454 294v-325q0 -96 -58.5 -148.5t-160.5 -52.5q-56 0 -114.5 11t-87.5 27q6 15 19 45t19 45q70 -31 136 -31q68 0 96.5 29.5t28.5 98.5v66h-2q-41 -67 -130 -67q-84 0 -132.5 48t-48.5 149q0 38 11.5 73t35.5 68.5t70.5 53.5t108.5 20q58 0 109 -17t83 -43
q17 -14 17 -50zM332 255q0 72 -91 72q-97 0 -97 -138q0 -48 21 -80t67 -32q45 0 72.5 32t27.5 83v63zM255 601q22 -13 66 -53t66 -66l-33 -38q-19 23 -47.5 47t-51.5 34q-21 -10 -50.5 -34.5t-47.5 -45.5l-33 37q21 26 62.5 64t68.5 55z" />
    <glyph glyph-name="Gbreve" unicode="&#x11e;" horiz-adv-x="646" 
d="M348 339h252v-280q-29 -25 -93 -47.5t-144 -22.5q-160 0 -250 93.5t-90 245.5q0 139 94 231.5t257 93.5q132 0 218 -66l-70 -92q-52 41 -149 39q-95 0 -155.5 -53t-60.5 -153q0 -102 57.5 -162.5t161.5 -60.5q53 0 94 19v110h-122v105zM241 828h64q14 -47 51 -47
q40 0 50 47h66q-4 -47 -36 -75t-80 -28q-47 0 -79 28t-36 75z" />
    <glyph glyph-name="gbreve" unicode="&#x11f;" horiz-adv-x="511" 
d="M454 294v-325q0 -96 -58.5 -148.5t-160.5 -52.5q-56 0 -114.5 11t-87.5 27q6 15 19 45t19 45q70 -31 136 -31q68 0 96.5 29.5t28.5 98.5v66h-2q-41 -67 -130 -67q-84 0 -132.5 48t-48.5 149q0 38 11.5 73t35.5 68.5t70.5 53.5t108.5 20q58 0 109 -17t83 -43
q17 -14 17 -50zM332 255q0 72 -91 72q-97 0 -97 -138q0 -48 21 -80t67 -32q45 0 72.5 32t27.5 83v63zM140 557h64q14 -47 51 -47q40 0 50 47h66q-4 -47 -36 -75t-80 -28q-47 0 -79 28t-36 75z" />
    <glyph glyph-name="Gdotaccent" unicode="&#x120;" horiz-adv-x="646" 
d="M348 339h252v-280q-29 -25 -93 -47.5t-144 -22.5q-160 0 -250 93.5t-90 245.5q0 139 94 231.5t257 93.5q132 0 218 -66l-70 -92q-52 41 -149 39q-95 0 -155.5 -53t-60.5 -153q0 -102 57.5 -162.5t161.5 -60.5q53 0 94 19v110h-122v105zM353 852q21 0 36 -14.5t15 -35.5
q0 -22 -15 -37t-36 -15q-22 0 -37.5 15t-15.5 37q0 21 15.5 35.5t37.5 14.5z" />
    <glyph glyph-name="gdotaccent" unicode="&#x121;" horiz-adv-x="511" 
d="M454 294v-325q0 -96 -58.5 -148.5t-160.5 -52.5q-56 0 -114.5 11t-87.5 27q6 15 19 45t19 45q70 -31 136 -31q68 0 96.5 29.5t28.5 98.5v66h-2q-41 -67 -130 -67q-84 0 -132.5 48t-48.5 149q0 38 11.5 73t35.5 68.5t70.5 53.5t108.5 20q58 0 109 -17t83 -43
q17 -14 17 -50zM332 255q0 72 -91 72q-97 0 -97 -138q0 -48 21 -80t67 -32q45 0 72.5 32t27.5 83v63zM256 583q21 0 36 -14.5t15 -35.5t-15.5 -36.5t-35.5 -15.5q-22 0 -37.5 15t-15.5 37q0 21 15.5 35.5t37.5 14.5z" />
    <glyph glyph-name="Gcommaaccent" unicode="&#x122;" horiz-adv-x="646" 
d="M306 -237l-12 36q26 5 45.5 24t19.5 47q0 35 -29 57l65 15q38 -26 38 -72q0 -53 -35 -79t-92 -28zM348 339h252v-280q-29 -25 -93 -47.5t-144 -22.5q-160 0 -250 93.5t-90 245.5q0 139 94 231.5t257 93.5q132 0 218 -66l-70 -92q-52 41 -149 39q-95 0 -155.5 -53
t-60.5 -153q0 -102 57.5 -162.5t161.5 -60.5q53 0 94 19v110h-122v105z" />
    <glyph glyph-name="gcommaaccent" unicode="&#x123;" horiz-adv-x="511" 
d="M324 647l12 -36q-26 -5 -45.5 -24t-19.5 -47q0 -35 29 -57l-65 -15q-38 26 -38 72q0 53 35 79t92 28zM454 294v-325q0 -96 -58.5 -148.5t-160.5 -52.5q-56 0 -114.5 11t-87.5 27q6 15 19 45t19 45q70 -31 136 -31q68 0 96.5 29.5t28.5 98.5v66h-2q-41 -67 -130 -67
q-84 0 -132.5 48t-48.5 149q0 38 11.5 73t35.5 68.5t70.5 53.5t108.5 20q58 0 109 -17t83 -43q17 -14 17 -50zM332 255q0 72 -91 72q-97 0 -97 -138q0 -48 21 -80t67 -32q45 0 72.5 32t27.5 83v63z" />
    <glyph glyph-name="Hcircumflex" unicode="&#x124;" horiz-adv-x="697" 
d="M342 858q25 -15 68.5 -50t63.5 -58l-33 -38q-36 42 -99 71q-64 -32 -99 -70l-32 37q18 23 59 55.5t72 52.5zM505 642h130v-642h-130v284h-313v-284h-130v642h130v-252h313v252z" />
    <glyph glyph-name="hcircumflex" unicode="&#x125;" horiz-adv-x="519" 
d="M308 403q78 0 116 -47t38 -128v-228h-123v194q0 25 -2 42t-9 34.5t-23 26.5t-40 9q-79 0 -85 -113v-193h-123v701h122v-360h2q44 62 127 62zM118 870q22 -13 66 -53t66 -66l-33 -38q-19 23 -47.5 47t-51.5 34q-21 -10 -50.5 -34.5t-47.5 -45.5l-33 37q21 26 62.5 64
t68.5 55z" />
    <glyph glyph-name="Hbar" unicode="&#x126;" horiz-adv-x="697" 
d="M505 642h130v-88h40v-70h-40v-484h-130v284h-313v-284h-130v484h-40v70h40v88h130v-88h313v88zM192 390h313v94h-313v-94z" />
    <glyph glyph-name="hbar" unicode="&#x127;" horiz-adv-x="519" 
d="M308 403q78 0 116 -47t38 -128v-228h-123v194q0 25 -2 42t-9 34.5t-23 26.5t-40 9q-79 0 -85 -113v-193h-123v487h-50v84h50v130h122v-130h197v-84h-197v-146h2q44 62 127 62z" />
    <glyph glyph-name="Itilde" unicode="&#x128;" horiz-adv-x="254" 
d="M192 642v-642h-130v642h130zM55 732h-50q2 33 19 59t50 26q18 0 50.5 -13t42.5 -13q5 0 10 3t7 5t7 9t6 9h51q-4 -35 -24 -61.5t-53 -26.5q-14 0 -44.5 14.5t-43.5 14.5q-18 0 -28 -26z" />
    <glyph glyph-name="itilde" unicode="&#x129;" horiz-adv-x="227" 
d="M175 393v-393h-123v393h123zM42 463h-50q2 33 19 59t50 26q18 0 50.5 -13t42.5 -13q5 0 10 3t7 5t7 9t6 9h51q-4 -35 -24 -61.5t-53 -26.5q-14 0 -44.5 14.5t-43.5 14.5q-18 0 -28 -26z" />
    <glyph glyph-name="imacron" unicode="&#x12b;" horiz-adv-x="227" 
d="M175 393v-393h-123v393h123zM-19 532h265v-55h-265v55z" />
    <glyph glyph-name="Ibreve" unicode="&#x12c;" horiz-adv-x="254" 
d="M192 642v-642h-130v642h130zM11 828h64q14 -47 51 -47q40 0 50 47h66q-4 -47 -36 -75t-80 -28q-47 0 -79 28t-36 75z" />
    <glyph glyph-name="ibreve" unicode="&#x12d;" horiz-adv-x="227" 
d="M175 393v-393h-123v393h123zM-2 557h64q14 -47 51 -47q40 0 50 47h66q-4 -47 -36 -75t-80 -28q-47 0 -79 28t-36 75z" />
    <glyph glyph-name="Iogonek" unicode="&#x12e;" horiz-adv-x="254" 
d="M159 0l-20 -16l-22.5 -18t-19.5 -18t-18 -21t-11 -21t-5 -24q0 -32 34 -32q30 0 47 36l31 -17q-8 -27 -34 -50.5t-68 -23.5q-41 0 -66 22t-25 53q0 29 17 53t35 37t52 33q8 5 12 7h-36v642h130v-642h-33z" />
    <glyph glyph-name="iogonek" unicode="&#x12f;" horiz-adv-x="215" 
d="M107 491q-27 0 -46.5 19t-19.5 47q0 27 19.5 46.5t46.5 19.5q28 0 47 -19.5t19 -46.5q0 -28 -19 -47t-47 -19zM46 0v393h123v-393h-29q-4 -4 -20 -16t-22.5 -18t-18.5 -18t-17.5 -20.5t-10.5 -20.5t-5 -24q0 -31 34 -31q30 0 47 36l31 -18q-8 -27 -34 -50t-68 -23
q-41 0 -66 21.5t-25 53.5q0 23 8 41.5t28.5 35.5t33 25t43.5 26h-32z" />
    <glyph glyph-name="Idotaccent" unicode="&#x130;" horiz-adv-x="254" 
d="M192 642v-642h-130v642h130zM128 852q21 0 36 -14.5t15 -35.5q0 -22 -15.5 -37t-35.5 -15q-22 0 -37.5 15t-15.5 37q0 21 15.5 35.5t37.5 14.5z" />
    <glyph glyph-name="dotlessi" unicode="&#x131;" horiz-adv-x="227" 
d="M175 393v-393h-123v393h123z" />
    <glyph glyph-name="Jcircumflex" unicode="&#x134;" horiz-adv-x="264" 
d="M155 858q25 -15 68.5 -50t63.5 -58l-33 -38q-36 42 -99 71q-65 -33 -98 -70l-33 37q19 23 59.5 56t71.5 52zM91 642h130v-586q0 -55 -5.5 -85.5t-26.5 -57t-63.5 -36.5t-114.5 -9v79q45 0 62.5 25.5t17.5 87.5v582z" />
    <glyph glyph-name="jcircumflex" unicode="&#x135;" horiz-adv-x="243" 
d="M76 393h122v-441q0 -98 -46.5 -142t-169.5 -40v87q94 -4 94 91v445zM139 601q22 -13 66 -53t66 -66l-33 -38q-19 23 -47.5 47t-51.5 34q-21 -10 -50.5 -34.5t-47.5 -45.5l-33 37q21 26 62.5 64t68.5 55z" />
    <glyph glyph-name="Kcommaaccent" unicode="&#x136;" horiz-adv-x="596" 
d="M259 -237l-12 36q26 5 45.5 24t19.5 47q0 35 -29 57l65 15q38 -26 38 -72q0 -53 -35 -79t-92 -28zM192 0h-130v642h130v-251l231 251h164l3 -3l-279 -289q66 -48 130 -120q96 -105 168 -230h-144q-56 83 -115 147q-59 66 -124 115l-34 -34v-228z" />
    <glyph glyph-name="kcommaaccent" unicode="&#x137;" horiz-adv-x="491" 
d="M209 -237l-12 36q26 5 45.5 24t19.5 47q0 35 -29 57l65 15q38 -26 38 -72q0 -53 -35 -79t-92 -28zM294 229q120 -101 211 -229h-151q-87 110 -175 185v-185h-122v701h122v-440l150 132h160q-151 -126 -195 -164z" />
    <glyph glyph-name="Lacute" unicode="&#x139;" horiz-adv-x="447" 
d="M239 858l48 -66l-161 -76l-31 45zM192 642v-533h258v-109h-388v642h130z" />
    <glyph glyph-name="lacute" unicode="&#x13a;" horiz-adv-x="257" 
d="M218 867l44 -61l-148 -69l-28 41zM179 175q0 -45 18 -68.5t58 -22.5v-90q-111 -4 -154.5 40.5t-43.5 142.5v524h122v-526z" />
    <glyph glyph-name="Lcommaaccent" unicode="&#x13b;" horiz-adv-x="447" 
d="M197 -237l-12 36q26 5 45.5 24t19.5 47q0 35 -29 57l65 15q38 -26 38 -72q0 -53 -35 -79t-92 -28zM192 642v-533h258v-109h-388v642h130z" />
    <glyph glyph-name="lcommaaccent" unicode="&#x13c;" horiz-adv-x="257" 
d="M119 -237l-12 36q26 5 45.5 24t19.5 47q0 35 -29 57l65 15q38 -26 38 -72q0 -53 -35 -79t-92 -28zM179 175q0 -45 18 -68.5t58 -22.5v-90q-111 -4 -154.5 40.5t-43.5 142.5v524h122v-526z" />
    <glyph glyph-name="Lcaron" unicode="&#x13d;" horiz-adv-x="447" 
d="M287 463l-12 37q27 6 47.5 26t20.5 49q0 36 -31 60l69 15q16 -10 27.5 -31t11.5 -44q0 -56 -36.5 -83t-96.5 -29zM192 642v-533h258v-109h-388v642h130z" />
    <glyph glyph-name="lcaron" unicode="&#x13e;" horiz-adv-x="346" 
d="M284 501l-43 27q31 45 31 96q0 37 -25 66l65 15q14 -9 24 -30t10 -47q0 -28 -6 -49.5t-18.5 -38.5t-18 -22t-19.5 -17zM179 175q0 -45 18 -68.5t58 -22.5v-90q-111 -4 -154.5 40.5t-43.5 142.5v524h122v-526z" />
    <glyph glyph-name="Lslash" unicode="&#x141;" horiz-adv-x="437" 
d="M184 109h258v-109h-388v251l-62 -43v118l62 43v273h130v-187l92 65v-118l-92 -62v-231z" />
    <glyph glyph-name="lslash" unicode="&#x142;" horiz-adv-x="283" 
d="M198 175q0 -45 18 -68.5t58 -22.5v-90q-111 -4 -155 40.5t-44 142.5v124l-66 -45v118l66 45v282h123v-200l65 44v-118l-65 -44v-208z" />
    <glyph glyph-name="Nacute" unicode="&#x143;" horiz-adv-x="750" 
d="M475 858l48 -66l-161 -76l-31 45zM575 0q-99 184 -271 350q-57 54 -112 99v-449h-130v654h59q141 -93 268 -216q94 -91 169 -189v393h130v-642h-113z" />
    <glyph glyph-name="nacute" unicode="&#x144;" horiz-adv-x="521" 
d="M309 404q155 0 155 -175v-229h-123v191q0 19 -0.5 31.5t-5 30.5t-11.5 28t-22 18t-36 8q-84 0 -84 -119v-188h-122v248q0 77 -20 111l116 38q13 -17 22 -64q40 71 131 71zM332 629l67 -45l-125 -126l-44 30z" />
    <glyph glyph-name="Ncommaaccent" unicode="&#x145;" horiz-adv-x="750" 
d="M328 -237l-12 36q26 5 45.5 24t19.5 47q0 35 -29 57l65 15q38 -26 38 -72q0 -53 -35 -79t-92 -28zM575 0q-99 184 -271 350q-57 54 -112 99v-449h-130v654h59q141 -93 268 -216q94 -91 169 -189v393h130v-642h-113z" />
    <glyph glyph-name="ncommaaccent" unicode="&#x146;" horiz-adv-x="521" 
d="M189 -237l-12 36q26 5 45.5 24t19.5 47q0 35 -29 57l65 15q38 -26 38 -72q0 -53 -35 -79t-92 -28zM309 404q155 0 155 -175v-229h-123v191q0 19 -0.5 31.5t-5 30.5t-11.5 28t-22 18t-36 8q-84 0 -84 -119v-188h-122v248q0 77 -20 111l116 38q13 -17 22 -64q40 71 131 71z
" />
    <glyph glyph-name="Ncaron" unicode="&#x147;" horiz-adv-x="750" 
d="M575 0q-99 184 -271 350q-57 54 -112 99v-449h-130v654h59q141 -93 268 -216q94 -91 169 -189v393h130v-642h-113zM378 715q-27 17 -68.5 55t-62.5 64l33 37q18 -21 47.5 -45.5t50.5 -35.5q48 22 99 82l33 -38q-22 -26 -66 -66t-66 -53z" />
    <glyph glyph-name="ncaron" unicode="&#x148;" horiz-adv-x="521" 
d="M309 404q155 0 155 -175v-229h-123v191q0 19 -0.5 31.5t-5 30.5t-11.5 28t-22 18t-36 8q-84 0 -84 -119v-188h-122v248q0 77 -20 111l116 38q13 -17 22 -64q40 71 131 71zM260 446q-27 17 -68.5 55t-62.5 64l33 37q18 -21 47.5 -45.5t50.5 -35.5q48 22 99 82l33 -38
q-22 -26 -66 -66t-66 -53z" />
    <glyph glyph-name="Eng" unicode="&#x14a;" horiz-adv-x="750" 
d="M558 642h130v-586q0 -55 -5.5 -85.5t-26.5 -57t-63.5 -36.5t-114.5 -9v79q39 0 57 19.5t22 65.5q-95 164 -253 318q-57 54 -112 99v-449h-130v654h59q141 -93 268 -216q94 -91 169 -189v393z" />
    <glyph glyph-name="eng" unicode="&#x14b;" horiz-adv-x="521" 
d="M309 404q155 0 155 -175v-277q0 -98 -46.5 -142t-169.5 -40v87q93 -4 93 91v243q0 19 -0.5 31.5t-5 30.5t-11.5 28t-22 18t-36 8q-84 0 -84 -119v-188h-122v248q0 77 -20 111l116 38q13 -17 22 -64q40 71 131 71z" />
    <glyph glyph-name="Omacron" unicode="&#x14c;" horiz-adv-x="694" 
d="M346 -11q-148 0 -235.5 91t-87.5 249q0 141 89 232.5t234 91.5q147 0 236 -91t89 -233q0 -149 -84.5 -244.5t-240.5 -95.5zM346 544q-87 0 -138 -57.5t-51 -156.5q0 -101 51 -166.5t138 -65.5q97 0 144 66t47 166q0 91 -51.5 152.5t-139.5 61.5zM221 801h265v-55h-265v55
z" />
    <glyph glyph-name="omacron" unicode="&#x14d;" horiz-adv-x="483" 
d="M242 404q103 0 162.5 -58.5t59.5 -150.5q0 -93 -59.5 -149.5t-162.5 -56.5q-101 0 -162 56t-61 150q0 91 60 150t163 59zM242 324q-45 0 -71 -31.5t-26 -97.5q0 -62 26.5 -94t70.5 -32q45 0 71 31t26 95q0 61 -26 95t-71 34zM113 532h265v-55h-265v55z" />
    <glyph glyph-name="Obreve" unicode="&#x14e;" horiz-adv-x="694" 
d="M346 -11q-148 0 -235.5 91t-87.5 249q0 141 89 232.5t234 91.5q147 0 236 -91t89 -233q0 -149 -84.5 -244.5t-240.5 -95.5zM346 544q-87 0 -138 -57.5t-51 -156.5q0 -101 51 -166.5t138 -65.5q97 0 144 66t47 166q0 91 -51.5 152.5t-139.5 61.5zM231 828h64
q14 -47 51 -47q40 0 50 47h66q-4 -47 -36 -75t-80 -28q-47 0 -79 28t-36 75z" />
    <glyph glyph-name="obreve" unicode="&#x14f;" horiz-adv-x="483" 
d="M242 404q103 0 162.5 -58.5t59.5 -150.5q0 -93 -59.5 -149.5t-162.5 -56.5q-101 0 -162 56t-61 150q0 91 60 150t163 59zM242 324q-45 0 -71 -31.5t-26 -97.5q0 -62 26.5 -94t70.5 -32q45 0 71 31t26 95q0 61 -26 95t-71 34zM126 557h64q14 -47 51 -47q40 0 50 47h66
q-4 -47 -36 -75t-80 -28q-47 0 -79 28t-36 75z" />
    <glyph glyph-name="Ohungarumlaut" unicode="&#x150;" horiz-adv-x="694" 
d="M566 858l48 -66l-161 -76l-31 45zM360 858l48 -66l-161 -76l-31 45zM346 -11q-148 0 -235.5 91t-87.5 249q0 141 89 232.5t234 91.5q147 0 236 -91t89 -233q0 -149 -84.5 -244.5t-240.5 -95.5zM346 544q-87 0 -138 -57.5t-51 -156.5q0 -101 51 -166.5t138 -65.5
q97 0 144 66t47 166q0 91 -51.5 152.5t-139.5 61.5z" />
    <glyph glyph-name="ohungarumlaut" unicode="&#x151;" horiz-adv-x="483" 
d="M242 404q103 0 162.5 -58.5t59.5 -150.5q0 -93 -59.5 -149.5t-162.5 -56.5q-101 0 -162 56t-61 150q0 91 60 150t163 59zM242 324q-45 0 -71 -31.5t-26 -97.5q0 -62 26.5 -94t70.5 -32q45 0 71 31t26 95q0 61 -26 95t-71 34zM229 630l67 -45l-124 -126l-45 30zM382 630
l67 -45l-125 -126l-44 30z" />
    <glyph glyph-name="OE" unicode="&#x152;" horiz-adv-x="968" 
d="M667 109h277v-109h-407v48q-65 -59 -190 -59q-149 0 -236.5 91t-87.5 248q0 141 89.5 233t234.5 92q128 0 190 -61v50h386v-110h-256v-139h218v-109h-218v-175zM347 98q97 0 143.5 66t46.5 165q0 91 -51 153t-139 62q-87 0 -138.5 -58t-51.5 -157q0 -101 51 -166t139 -65
z" />
    <glyph glyph-name="oe" unicode="&#x153;" horiz-adv-x="769" 
d="M750 185v-13h-285q0 -44 32 -75t92 -31q66 0 110 28q26 -40 44 -66q-56 -39 -167 -39q-113 0 -175 54q-60 -54 -159 -54q-101 0 -162 56t-61 150q0 91 60 150t163 59q96 0 158 -54q59 54 152 54q101 0 149.5 -59.5t48.5 -159.5zM242 70q97 0 97 125q0 61 -26 94.5
t-71 33.5t-71 -31t-26 -97q0 -62 26.5 -93.5t70.5 -31.5zM467 233h168q-3 102 -80 102q-82 0 -88 -102z" />
    <glyph glyph-name="Racute" unicode="&#x154;" horiz-adv-x="556" 
d="M378 858l48 -66l-161 -76l-31 45zM474 180q57 -86 88 -180h-132q-24 62 -63 119q-64 95 -118 122h-57v-241h-130v642h219q124 0 179 -51t55 -149q0 -68 -32.5 -111.5t-85.5 -62.5q40 -31 77 -88zM192 543v-203h84q104 0 104 103q0 57 -26 78.5t-76 21.5h-86z" />
    <glyph glyph-name="racute" unicode="&#x155;" horiz-adv-x="337" 
d="M302 402q28 0 40 -6l-8 -115q-25 13 -54 13q-56 0 -76.5 -36t-20.5 -101v-157h-123v256q0 74 -20 104l118 37q13 -14 23 -67h1q39 72 120 72zM258 629l67 -45l-125 -126l-44 30z" />
    <glyph glyph-name="Rcommaaccent" unicode="&#x156;" horiz-adv-x="556" 
d="M260 -237l-12 36q26 5 45.5 24t19.5 47q0 35 -29 57l65 15q38 -26 38 -72q0 -53 -35 -79t-92 -28zM474 180q57 -86 88 -180h-132q-24 62 -63 119q-64 95 -118 122h-57v-241h-130v642h219q124 0 179 -51t55 -149q0 -68 -32.5 -111.5t-85.5 -62.5q40 -31 77 -88zM192 543
v-203h84q104 0 104 103q0 57 -26 78.5t-76 21.5h-86z" />
    <glyph glyph-name="rcommaaccent" unicode="&#x157;" horiz-adv-x="337" 
d="M75 -237l-12 36q26 5 45.5 24t19.5 47q0 35 -29 57l65 15q38 -26 38 -72q0 -53 -35 -79t-92 -28zM302 402q28 0 40 -6l-8 -115q-25 13 -54 13q-56 0 -76.5 -36t-20.5 -101v-157h-123v256q0 74 -20 104l118 37q13 -14 23 -67h1q39 72 120 72z" />
    <glyph glyph-name="Rcaron" unicode="&#x158;" horiz-adv-x="556" 
d="M474 180q57 -86 88 -180h-132q-24 62 -63 119q-64 95 -118 122h-57v-241h-130v642h219q124 0 179 -51t55 -149q0 -68 -32.5 -111.5t-85.5 -62.5q40 -31 77 -88zM192 543v-203h84q104 0 104 103q0 57 -26 78.5t-76 21.5h-86zM274 717q-27 17 -68.5 55t-62.5 64l33 37
q18 -21 47.5 -45.5t50.5 -35.5q48 22 99 82l33 -38q-22 -26 -66 -66t-66 -53z" />
    <glyph glyph-name="rcaron" unicode="&#x159;" horiz-adv-x="337" 
d="M302 402q28 0 40 -6l-8 -115q-25 13 -54 13q-56 0 -76.5 -36t-20.5 -101v-157h-123v256q0 74 -20 104l118 37q13 -14 23 -67h1q39 72 120 72zM186 446q-27 17 -68.5 55t-62.5 64l33 37q18 -21 47.5 -45.5t50.5 -35.5q48 22 99 82l33 -38q-22 -26 -66 -66t-66 -53z" />
    <glyph glyph-name="Sacute" unicode="&#x15a;" horiz-adv-x="566" 
d="M405 859l48 -66l-161 -76l-31 45zM508 585l-50 -87q-25 25 -68 41t-87 16q-49 0 -77 -20.5t-28 -51.5q0 -42 64 -73q17 -7 77.5 -33t76.5 -33q63 -28 93.5 -67.5t29.5 -98.5q0 -83 -63 -136t-192 -53q-72 0 -142 22t-116 54l58 98q41 -31 100.5 -50t113.5 -19
q36 0 60.5 7.5t35 19t14.5 21t4 20.5q0 36 -49 61q-28 14 -95.5 40t-83.5 33q-122 55 -122 168q-1 88 69 138.5t186 50.5q50 0 105 -18.5t86 -49.5z" />
    <glyph glyph-name="sacute" unicode="&#x15b;" horiz-adv-x="400" 
d="M361 374l-37 -65q-62 28 -104 28q-53 0 -53 -32q0 -23 35 -38q19 -8 55.5 -23t52.5 -23q70 -33 70 -100q0 -59 -48 -95.5t-132 -36.5q-52 0 -102 14.5t-78 35.5q19 29 42 62q65 -41 134 -41q56 0 56 37q0 22 -47 39q-79 29 -94 37q-67 36 -67 103q0 63 46 95t119 32
q94 0 152 -29zM273 629l67 -45l-125 -126l-44 30z" />
    <glyph glyph-name="Scircumflex" unicode="&#x15c;" horiz-adv-x="566" 
d="M286 857q25 -15 68.5 -50t63.5 -58l-33 -38q-36 42 -99 71q-64 -32 -99 -70l-32 37q18 23 59 55.5t72 52.5zM508 585l-50 -87q-25 25 -68 41t-87 16q-49 0 -77 -20.5t-28 -51.5q0 -42 64 -73q17 -7 77.5 -33t76.5 -33q63 -28 93.5 -67.5t29.5 -98.5q0 -83 -63 -136
t-192 -53q-72 0 -142 22t-116 54l58 98q41 -31 100.5 -50t113.5 -19q36 0 60.5 7.5t35 19t14.5 21t4 20.5q0 36 -49 61q-28 14 -95.5 40t-83.5 33q-122 55 -122 168q-1 88 69 138.5t186 50.5q50 0 105 -18.5t86 -49.5z" />
    <glyph glyph-name="scircumflex" unicode="&#x15d;" horiz-adv-x="400" 
d="M361 374l-37 -65q-62 28 -104 28q-53 0 -53 -32q0 -23 35 -38q19 -8 55.5 -23t52.5 -23q70 -33 70 -100q0 -59 -48 -95.5t-132 -36.5q-52 0 -102 14.5t-78 35.5q19 29 42 62q65 -41 134 -41q56 0 56 37q0 22 -47 39q-79 29 -94 37q-67 36 -67 103q0 63 46 95t119 32
q94 0 152 -29zM199 601q22 -13 66 -53t66 -66l-33 -38q-19 23 -47.5 47t-51.5 34q-21 -10 -50.5 -34.5t-47.5 -45.5l-33 37q21 26 62.5 64t68.5 55z" />
    <glyph glyph-name="Scedilla" unicode="&#x15e;" horiz-adv-x="566" 
d="M508 585l-50 -87q-25 25 -68 41t-87 16q-49 0 -77 -20.5t-28 -51.5q0 -42 64 -73q17 -7 77.5 -33t76.5 -33q63 -28 93.5 -67.5t29.5 -98.5q0 -71 -47.5 -121.5t-145.5 -63.5q-17 -90 -87 -132l-40 43q46 32 60 85q-71 1 -140 23t-113 53l58 98q41 -31 100.5 -50
t113.5 -19q36 0 60.5 7.5t35 19t14.5 21t4 20.5q0 36 -49 61q-28 14 -95.5 40t-83.5 33q-122 55 -122 168q-1 88 69 138.5t186 50.5q50 0 105 -18.5t86 -49.5z" />
    <glyph glyph-name="scedilla" unicode="&#x15f;" horiz-adv-x="400" 
d="M361 374l-37 -65q-62 28 -104 28q-53 0 -53 -32q0 -23 35 -38q19 -8 55.5 -23t52.5 -23q70 -33 70 -100q0 -50 -35.5 -84.5t-98.5 -44.5q-17 -88 -87 -131l-40 43q45 32 60 86q-48 3 -91.5 17t-67.5 32l42 62q65 -41 134 -41q56 0 56 37q0 22 -47 39q-79 29 -94 37
q-67 36 -67 103q0 63 46 95t119 32q94 0 152 -29z" />
    <glyph glyph-name="Scaron" unicode="&#x160;" horiz-adv-x="566" 
d="M508 585l-50 -87q-25 25 -68 41t-87 16q-49 0 -77 -20.5t-28 -51.5q0 -42 64 -73q17 -7 77.5 -33t76.5 -33q63 -28 93.5 -67.5t29.5 -98.5q0 -83 -63 -136t-192 -53q-72 0 -142 22t-116 54l58 98q41 -31 100.5 -50t113.5 -19q36 0 60.5 7.5t35 19t14.5 21t4 20.5
q0 36 -49 61q-28 14 -95.5 40t-83.5 33q-122 55 -122 168q-1 88 69 138.5t186 50.5q50 0 105 -18.5t86 -49.5zM310 717q-27 17 -68.5 55t-62.5 64l33 37q18 -21 47.5 -45.5t50.5 -35.5q48 22 99 82l33 -38q-22 -26 -66 -66t-66 -53z" />
    <glyph glyph-name="scaron" unicode="&#x161;" horiz-adv-x="400" 
d="M361 374l-37 -65q-62 28 -104 28q-53 0 -53 -32q0 -23 35 -38q19 -8 55.5 -23t52.5 -23q70 -33 70 -100q0 -59 -48 -95.5t-132 -36.5q-52 0 -102 14.5t-78 35.5q19 29 42 62q65 -41 134 -41q56 0 56 37q0 22 -47 39q-79 29 -94 37q-67 36 -67 103q0 63 46 95t119 32
q94 0 152 -29zM218 446q-27 17 -68.5 55t-62.5 64l33 37q18 -21 47.5 -45.5t50.5 -35.5q48 22 99 82l33 -38q-22 -26 -66 -66t-66 -53z" />
    <glyph glyph-name="Tcommaaccent" unicode="&#x162;" horiz-adv-x="496" 
d="M183 -237l-12 36q26 5 45.5 24t19.5 47q0 35 -29 57l65 15q38 -26 38 -72q0 -53 -35 -79t-92 -28zM500 642v-111h-187v-531h-130v531h-187v111h504z" />
    <glyph glyph-name="tcommaaccent" unicode="&#x163;" horiz-adv-x="318" 
d="M115 -237l-12 36q26 5 45.5 24t19.5 47q0 35 -29 57l65 15q38 -26 38 -72q0 -53 -35 -79t-92 -28zM180 314v-172q0 -40 12 -57t43 -17q22 0 47 10l23 -71q-36 -20 -95 -20q-86 0 -119.5 43t-33.5 127v157h-43v79h43v114h123v-114h98v-79h-98z" />
    <glyph glyph-name="Tcaron" unicode="&#x164;" horiz-adv-x="496" 
d="M500 642v-111h-187v-531h-130v531h-187v111h504zM247 717q-27 17 -68.5 55t-62.5 64l33 37q18 -21 47.5 -45.5t50.5 -35.5q48 22 99 82l33 -38q-22 -26 -66 -66t-66 -53z" />
    <glyph glyph-name="tcaron" unicode="&#x165;" horiz-adv-x="318" 
d="M273 446l-46 28q33 49 33 101q0 39 -26 69l68 16q14 -9 25 -31.5t11 -49.5q0 -38 -14 -68.5t-23 -39t-28 -25.5zM180 314v-172q0 -40 12 -57t43 -17q22 0 47 10l23 -71q-36 -20 -95 -20q-86 0 -119.5 43t-33.5 127v157h-43v79h43v114h123v-114h98v-79h-98z" />
    <glyph glyph-name="Tbar" unicode="&#x166;" horiz-adv-x="496" 
d="M500 642v-111h-187v-157h110v-70h-110v-304h-130v304h-110v70h110v157h-187v111h504z" />
    <glyph glyph-name="tbar" unicode="&#x167;" horiz-adv-x="318" 
d="M180 314v-62h79v-74h-79v-36q0 -40 12 -57t43 -17q22 0 47 10l23 -71q-36 -20 -95 -20q-86 0 -119.5 43t-33.5 127v21h-40v74h40v62h-43v79h43v114h123v-114h98v-79h-98z" />
    <glyph glyph-name="Utilde" unicode="&#x168;" horiz-adv-x="635" 
d="M449 272v370h130v-392q0 -43 -4.5 -76t-20.5 -69.5t-43 -60.5t-76.5 -39.5t-117.5 -15.5t-117.5 15t-76.5 38t-42.5 59.5t-20 70t-4.5 78.5v392h130v-370q0 -94 28.5 -137t102.5 -43q77 0 104.5 42.5t27.5 137.5zM246 732h-50q2 33 19 59t50 26q18 0 50.5 -13t42.5 -13
q5 0 10 3t7 5t7 9t6 9h51q-4 -35 -24 -61.5t-53 -26.5q-14 0 -44.5 14.5t-43.5 14.5q-18 0 -28 -26z" />
    <glyph glyph-name="utilde" unicode="&#x169;" horiz-adv-x="519" 
d="M336 393h122v-251q0 -38 6.5 -69.5t14.5 -41.5l-118 -37q-13 18 -22 65q-38 -70 -128 -70q-154 0 -154 174v230h123v-192q0 -22 1 -36t5 -30.5t11.5 -26t22 -16t34.5 -6.5q27 0 44.5 10.5t25 30t10 36.5t2.5 41v189zM188 463h-50q2 33 19 59t50 26q18 0 50.5 -13
t42.5 -13q5 0 10 3t7 5t7 9t6 9h51q-4 -35 -24 -61.5t-53 -26.5q-14 0 -44.5 14.5t-43.5 14.5q-18 0 -28 -26z" />
    <glyph glyph-name="Umacron" unicode="&#x16a;" horiz-adv-x="635" 
d="M449 272v370h130v-392q0 -43 -4.5 -76t-20.5 -69.5t-43 -60.5t-76.5 -39.5t-117.5 -15.5t-117.5 15t-76.5 38t-42.5 59.5t-20 70t-4.5 78.5v392h130v-370q0 -94 28.5 -137t102.5 -43q77 0 104.5 42.5t27.5 137.5zM185 801h265v-55h-265v55z" />
    <glyph glyph-name="umacron" unicode="&#x16b;" horiz-adv-x="519" 
d="M336 393h122v-251q0 -38 6.5 -69.5t14.5 -41.5l-118 -37q-13 18 -22 65q-38 -70 -128 -70q-154 0 -154 174v230h123v-192q0 -22 1 -36t5 -30.5t11.5 -26t22 -16t34.5 -6.5q27 0 44.5 10.5t25 30t10 36.5t2.5 41v189zM127 532h265v-55h-265v55z" />
    <glyph glyph-name="Ubreve" unicode="&#x16c;" horiz-adv-x="635" 
d="M449 272v370h130v-392q0 -43 -4.5 -76t-20.5 -69.5t-43 -60.5t-76.5 -39.5t-117.5 -15.5t-117.5 15t-76.5 38t-42.5 59.5t-20 70t-4.5 78.5v392h130v-370q0 -94 28.5 -137t102.5 -43q77 0 104.5 42.5t27.5 137.5zM202 828h64q14 -47 51 -47q40 0 50 47h66q-4 -47 -36 -75
t-80 -28q-47 0 -79 28t-36 75z" />
    <glyph glyph-name="ubreve" unicode="&#x16d;" horiz-adv-x="519" 
d="M336 393h122v-251q0 -38 6.5 -69.5t14.5 -41.5l-118 -37q-13 18 -22 65q-38 -70 -128 -70q-154 0 -154 174v230h123v-192q0 -22 1 -36t5 -30.5t11.5 -26t22 -16t34.5 -6.5q27 0 44.5 10.5t25 30t10 36.5t2.5 41v189zM144 557h64q14 -47 51 -47q40 0 50 47h66
q-4 -47 -36 -75t-80 -28q-47 0 -79 28t-36 75z" />
    <glyph glyph-name="Uring" unicode="&#x16e;" horiz-adv-x="635" 
d="M449 272v370h130v-392q0 -43 -4.5 -76t-20.5 -69.5t-43 -60.5t-76.5 -39.5t-117.5 -15.5t-117.5 15t-76.5 38t-42.5 59.5t-20 70t-4.5 78.5v392h130v-370q0 -94 28.5 -137t102.5 -43q77 0 104.5 42.5t27.5 137.5zM317 842q32 0 55.5 -22t23.5 -54t-23.5 -54.5
t-54.5 -22.5q-32 0 -55.5 22.5t-23.5 54.5t23.5 54t54.5 22zM318 795q-31 0 -31 -29q0 -30 31 -30q30 0 30 30q0 29 -30 29z" />
    <glyph glyph-name="uring" unicode="&#x16f;" horiz-adv-x="519" 
d="M336 393h122v-251q0 -38 6.5 -69.5t14.5 -41.5l-118 -37q-13 18 -22 65q-38 -70 -128 -70q-154 0 -154 174v230h123v-192q0 -22 1 -36t5 -30.5t11.5 -26t22 -16t34.5 -6.5q27 0 44.5 10.5t25 30t10 36.5t2.5 41v189zM259 604q32 0 55.5 -22t23.5 -54t-23.5 -54.5
t-54.5 -22.5q-32 0 -55.5 22.5t-23.5 54.5t23.5 54t54.5 22zM260 557q-31 0 -31 -29q0 -30 31 -30q30 0 30 30q0 29 -30 29z" />
    <glyph glyph-name="Uhungarumlaut" unicode="&#x170;" horiz-adv-x="635" 
d="M522 859l48 -66l-161 -76l-31 45zM316 859l48 -66l-161 -76l-31 45zM449 272v370h130v-392q0 -43 -4.5 -76t-20.5 -69.5t-43 -60.5t-76.5 -39.5t-117.5 -15.5t-117.5 15t-76.5 38t-42.5 59.5t-20 70t-4.5 78.5v392h130v-370q0 -94 28.5 -137t102.5 -43q77 0 104.5 42.5
t27.5 137.5z" />
    <glyph glyph-name="uhungarumlaut" unicode="&#x171;" horiz-adv-x="519" 
d="M336 393h122v-251q0 -38 6.5 -69.5t14.5 -41.5l-118 -37q-13 18 -22 65q-38 -70 -128 -70q-154 0 -154 174v230h123v-192q0 -22 1 -36t5 -30.5t11.5 -26t22 -16t34.5 -6.5q27 0 44.5 10.5t25 30t10 36.5t2.5 41v189zM245 630l67 -45l-124 -126l-45 30zM398 630l67 -45
l-125 -126l-44 30z" />
    <glyph glyph-name="Uogonek" unicode="&#x172;" horiz-adv-x="635" 
d="M449 642h130v-392q0 -76 -18.5 -132.5t-72.5 -89.5q-39 -29 -61 -50q-42 -38 -42 -75q0 -31 33 -31q29 0 48 36l31 -18q-7 -27 -34 -50t-68 -23q-42 0 -67 21.5t-25 53.5q0 33 19 55.5t54 44.5q-27 -3 -59 -3q-68 0 -117.5 15t-76.5 38t-42.5 59.5t-20 70t-4.5 78.5v392
h130v-370q0 -94 28.5 -137t102.5 -43q77 0 104.5 42.5t27.5 137.5v370z" />
    <glyph glyph-name="uogonek" unicode="&#x173;" horiz-adv-x="519" 
d="M381 -131q30 0 47 36l31 -17q-8 -27 -34 -50.5t-68 -23.5q-41 0 -66.5 22t-25.5 53q0 38 23 63t68 52q-10 20 -17 55q-38 -70 -128 -70q-154 0 -154 174v230h123v-192q0 -22 1 -36t5 -30.5t11.5 -26t22 -16t34.5 -6.5q27 0 44.5 10.5t25 30t10 36.5t2.5 41v189h122v-251
q0 -38 6.5 -69.5t14.5 -41.5q-36 -12 -49 -22q-55 -44 -69 -66q-14 -21 -14 -42q0 -32 34 -32z" />
    <glyph glyph-name="Wcircumflex" unicode="&#x174;" horiz-adv-x="876" 
d="M437 858q25 -15 68.5 -50t63.5 -58l-33 -38q-36 42 -99 71q-64 -32 -99 -70l-32 37q18 23 59 55.5t72 52.5zM755 642h124q-23 -169 -92 -387q-47 -146 -93 -255h-142q-38 75 -65 139q-10 23 -49 144q-40 -124 -49 -144q-27 -64 -65 -139h-141q-46 107 -94 255
q-70 227 -92 387h125q20 -144 84 -350q25 -78 51 -150q7 14 19 42q58 137 87 279h150q29 -142 87 -279q12 -28 19 -42q18 48 51 150q63 202 85 350z" />
    <glyph glyph-name="wcircumflex" unicode="&#x175;" horiz-adv-x="669" 
d="M548 393h121q-18 -86 -54.5 -194.5t-77.5 -198.5h-139q-39 86 -65 176q-33 -101 -65 -176h-137q-97 209 -131 393h122q28 -137 79 -270q36 79 75 186q4 13 7 15t14 2h83q12 0 15 -2t7 -14q22 -75 66 -187q52 137 80 270zM334 601q22 -13 66 -53t66 -66l-33 -38
q-19 23 -47.5 47t-51.5 34q-21 -10 -50.5 -34.5t-47.5 -45.5l-33 37q21 26 62.5 64t68.5 55z" />
    <glyph glyph-name="Ycircumflex" unicode="&#x176;" horiz-adv-x="560" 
d="M433 642h131q-50 -145 -137 -286q-43 -68 -81 -118v-238h-130v235q-44 60 -82 121q-90 145 -138 286h131q45 -116 111 -221l42 -70q7 12 22 37t20 33q69 111 111 221zM279 870q22 -13 66 -53t66 -66l-33 -38q-19 23 -47.5 47t-51.5 34q-21 -10 -50.5 -34.5t-47.5 -45.5
l-33 37q21 26 62.5 64t68.5 55z" />
    <glyph glyph-name="ycircumflex" unicode="&#x177;" horiz-adv-x="405" 
d="M288 393h122q-35 -149 -103 -302q-75 -168 -181 -312h-145v6q76 92 146 209q-51 98 -91 206t-57 193h121q34 -144 93 -270h2l26 59q41 109 67 211zM202 601q22 -13 66 -53t66 -66l-33 -38q-19 23 -47.5 47t-51.5 34q-21 -10 -50.5 -34.5t-47.5 -45.5l-33 37
q21 26 62.5 64t68.5 55z" />
    <glyph glyph-name="Ydieresis" unicode="&#x178;" horiz-adv-x="560" 
d="M433 642h131q-50 -145 -137 -286q-43 -68 -81 -118v-238h-130v235q-44 60 -82 121q-90 145 -138 286h131q45 -116 111 -221l42 -70q7 12 22 37t20 33q69 111 111 221zM194 833q21 0 36 -14.5t15 -35.5t-15.5 -36.5t-35.5 -15.5q-22 0 -37.5 15t-15.5 37q0 21 15.5 35.5
t37.5 14.5zM374 833q21 0 36 -14.5t15 -35.5t-15.5 -36.5t-35.5 -15.5q-22 0 -37.5 15t-15.5 37q0 21 15.5 35.5t37.5 14.5z" />
    <glyph glyph-name="Zacute" unicode="&#x179;" horiz-adv-x="512" 
d="M364 859l48 -66l-161 -76l-31 45zM161 109h347v-109h-504v81q72 133 159 258q63 93 146 193h-259v110h442v-86q-123 -136 -228 -287q-45 -64 -103 -160z" />
    <glyph glyph-name="zacute" unicode="&#x17a;" horiz-adv-x="390" 
d="M388 83v-83h-386v65q62 109 140 193l49 52h-171v83h360v-69q-58 -44 -118.5 -109t-103.5 -132h230zM262 629l67 -45l-125 -126l-44 30z" />
    <glyph glyph-name="Zdotaccent" unicode="&#x17b;" horiz-adv-x="512" 
d="M161 109h347v-109h-504v81q72 133 159 258q63 93 146 193h-259v110h442v-86q-123 -136 -228 -287q-45 -64 -103 -160zM283 833q21 0 36 -14.5t15 -35.5t-15 -36.5t-36 -15.5q-22 0 -37.5 15t-15.5 37q0 21 15.5 35.5t37.5 14.5z" />
    <glyph glyph-name="zdotaccent" unicode="&#x17c;" horiz-adv-x="390" 
d="M388 83v-83h-386v65q62 109 140 193l49 52h-171v83h360v-69q-58 -44 -118.5 -109t-103.5 -132h230zM210 583q21 0 36 -14.5t15 -35.5t-15.5 -36.5t-35.5 -15.5q-22 0 -37.5 15t-15.5 37q0 21 15.5 35.5t37.5 14.5z" />
    <glyph glyph-name="Zcaron" unicode="&#x17d;" horiz-adv-x="512" 
d="M161 109h347v-109h-504v81q72 133 159 258q63 93 146 193h-259v110h442v-86q-123 -136 -228 -287q-45 -64 -103 -160zM285 715q-27 17 -68.5 55t-62.5 64l33 37q18 -21 47.5 -45.5t50.5 -35.5q48 22 99 82l33 -38q-22 -26 -66 -66t-66 -53z" />
    <glyph glyph-name="zcaron" unicode="&#x17e;" horiz-adv-x="390" 
d="M388 83v-83h-386v65q62 109 140 193l49 52h-171v83h360v-69q-58 -44 -118.5 -109t-103.5 -132h230zM218 446q-27 17 -68.5 55t-62.5 64l33 37q18 -21 47.5 -45.5t50.5 -35.5q48 22 99 82l33 -38q-22 -26 -66 -66t-66 -53z" />
    <glyph glyph-name="florin" unicode="&#x192;" horiz-adv-x="588" 
d="M386 428h92q-1 -10 -4.5 -31t-4.5 -31h-92l-40 -246q-11 -64 -24 -105.5t-38 -80.5t-68 -57.5t-105 -18.5l-51 3l17 111l32 -2q26 0 45 10t30.5 23.5t19.5 39t11.5 43.5t8.5 50l7 45l30 185h-54l9 62h55l16 97q16 87 55 133.5t120 46.5q46 0 80 -19l-18 -106
q-24 15 -52 15q-12 0 -22 -4t-16.5 -14.5t-10.5 -17t-8 -22.5t-4.5 -21t-3.5 -21z" />
    <glyph glyph-name="Aringacute" unicode="&#x1fa;" horiz-adv-x="625" 
d="M311 843q32 0 56 -22t24 -54t-23.5 -54.5t-54.5 -22.5q-32 0 -56 22.5t-24 54.5t23.5 54t54.5 22zM313 796q-32 0 -32 -29q0 -30 32 -30q30 0 30 30q0 29 -30 29zM351 1008l48 -66l-161 -76l-31 44zM385 642q52 -101 119 -267q80 -203 125 -375h-127q-16 54 -46 147h-287
q-21 -62 -46 -147h-127q45 172 125 375q57 147 119 267h145zM206 254h213q-5 13 -15 38t-15 38q-42 110 -77 188q-27 -60 -76 -188q-5 -13 -15 -38.5t-15 -37.5z" />
    <glyph glyph-name="aringacute" unicode="&#x1fb;" horiz-adv-x="459" 
d="M411 222v-106q0 -73 20 -99l-115 -20q-8 11 -21 50h-2q-45 -58 -141 -58q-63 0 -98 30t-35 90q0 97 134 131q56 16 132 21q-4 67 -95 69q-67 0 -122 -30l-25 72q68 32 167 32q102 0 151.5 -43.5t49.5 -138.5zM288 125v64q0 8 -1 11q-25 -4 -68 -16q-76 -23 -74 -72
q-1 -24 17 -38.5t48 -15.5q65 1 78 67zM229 604q32 0 55.5 -22t23.5 -54t-23.5 -54.5t-54.5 -22.5q-32 0 -55.5 22.5t-23.5 54.5t23.5 54t54.5 22zM230 557q-31 0 -31 -29q0 -30 31 -30q30 0 30 30q0 29 -30 29zM289 793l67 -45l-125 -126l-44 30z" />
    <glyph glyph-name="AEacute" unicode="&#x1fc;" horiz-adv-x="876" 
d="M635 859l48 -66l-161 -76l-31 45zM575 110h277v-110h-407v159h-259q-43 -73 -86 -159h-136q71 160 218 388q93 145 182 254h467v-109h-256v-139h218v-109h-218v-175zM250 265h195v273h-7q-70 -89 -153 -217q-20 -29 -35 -56z" />
    <glyph glyph-name="aeacute" unicode="&#x1fd;" horiz-adv-x="714" 
d="M695 185v-13h-281q0 -44 31.5 -75t90.5 -31q64 0 108 28q26 -40 44 -66q-56 -39 -165 -39q-140 0 -200 82h-2q-17 -21 -31 -35t-52.5 -30.5t-86.5 -16.5q-62 0 -97 30t-35 91q0 96 133 130q54 15 136 21q-4 66 -97 68q-68 0 -123 -30l-26 73q68 32 169 32t152 -42
q54 42 136 42q101 0 148.5 -59t47.5 -160zM291 126v64q0 7 -1 10q-38 -6 -70 -15q-78 -23 -76 -72q-1 -25 16 -39t51 -15q34 1 54 19.5t26 47.5zM416 233h163q-3 102 -77 102q-80 0 -86 -102zM418 629l67 -45l-125 -126l-44 30z" />
    <glyph glyph-name="Oslashacute" unicode="&#x1fe;" horiz-adv-x="732" 
d="M709 643l-86 -101q70 -87 70 -212q0 -149 -84.5 -245t-240.5 -96q-107 0 -181 47l-94 -108l-70 60l94 109q-73 90 -73 233q0 141 89.5 233.5t234.5 92.5q105 0 186 -51l85 98zM178 331q0 -72 28 -130l270 313q-46 33 -108 33q-87 0 -138.5 -58.5t-51.5 -157.5zM558 331
q0 59 -23 110l-269 -312q43 -31 102 -31q66 0 110 34t62 84.5t18 114.5zM457 858l48 -66l-161 -76l-31 45z" />
    <glyph glyph-name="oslashacute" unicode="&#x1ff;" horiz-adv-x="483" 
d="M402 348q62 -57 62 -152q0 -93 -59.5 -149.5t-162.5 -56.5q-72 0 -124 29l-54 -63l-35 30l52 59q-62 56 -62 151q0 91 60 149.5t163 58.5q72 0 122 -29l50 58l35 -30zM145 196q0 -40 10 -64l147 170q-25 22 -60 22q-45 0 -71 -31t-26 -97zM242 70q45 0 71 31t26 95
q0 38 -11 66l-147 -170q23 -22 61 -22zM302 629l67 -45l-125 -126l-44 30z" />
    <glyph glyph-name="Scommaaccent" unicode="&#x218;" horiz-adv-x="566" 
d="M230 -237l-12 36q26 5 45.5 24t19.5 47q0 35 -29 57l65 15q38 -26 38 -72q0 -53 -35 -79t-92 -28zM508 585l-50 -87q-25 25 -68 41t-87 16q-49 0 -77 -20.5t-28 -51.5q0 -42 64 -73q17 -7 77.5 -33t76.5 -33q63 -28 93.5 -67.5t29.5 -98.5q0 -83 -63 -136t-192 -53
q-72 0 -142 22t-116 54l58 98q41 -31 100.5 -50t113.5 -19q36 0 60.5 7.5t35 19t14.5 21t4 20.5q0 36 -49 61q-28 14 -95.5 40t-83.5 33q-122 55 -122 168q-1 88 69 138.5t186 50.5q50 0 105 -18.5t86 -49.5z" />
    <glyph glyph-name="scommaaccent" unicode="&#x219;" horiz-adv-x="400" 
d="M361 374l-37 -65q-62 28 -104 28q-53 0 -53 -32q0 -23 35 -38q19 -8 55.5 -23t52.5 -23q70 -33 70 -100q0 -59 -48 -95.5t-132 -36.5q-52 0 -102 14.5t-78 35.5q19 29 42 62q65 -41 134 -41q56 0 56 37q0 22 -47 39q-79 29 -94 37q-67 36 -67 103q0 63 46 95t119 32
q94 0 152 -29z" />
    <glyph glyph-name="circumflex" unicode="&#x2c6;" horiz-adv-x="269" 
d="M130 601q22 -13 66 -53t66 -66l-33 -38q-19 23 -47.5 47t-51.5 34q-21 -10 -50.5 -34.5t-47.5 -45.5l-33 37q21 26 62.5 64t68.5 55z" />
    <glyph glyph-name="caron" unicode="&#x2c7;" horiz-adv-x="269" 
d="M130 446q-27 17 -68.5 55t-62.5 64l33 37q18 -21 47.5 -45.5t50.5 -35.5q48 22 99 82l33 -38q-22 -26 -66 -66t-66 -53z" />
    <glyph glyph-name="breve" unicode="&#x2d8;" horiz-adv-x="316" 
d="M11 557h64q14 -47 51 -47q40 0 50 47h66q-4 -47 -36 -75t-80 -28q-47 0 -79 28t-36 75z" />
    <glyph glyph-name="dotaccent" unicode="&#x2d9;" horiz-adv-x="97" 
d="M49 583q21 0 36 -14.5t15 -35.5t-15 -36.5t-36 -15.5q-22 0 -37.5 15t-15.5 37q0 21 15.5 35.5t37.5 14.5z" />
    <glyph glyph-name="ring" unicode="&#x2da;" horiz-adv-x="137" 
d="M63 604q32 0 55.5 -22t23.5 -54t-23.5 -54.5t-54.5 -22.5q-32 0 -55.5 22.5t-23.5 54.5t23.5 54t54.5 22zM64 557q-31 0 -31 -29q0 -30 31 -30q30 0 30 30q0 29 -30 29z" />
    <glyph glyph-name="ogonek" unicode="&#x2db;" horiz-adv-x="155" 
d="M68 -22h36v-1q-28 -17 -28 -39q0 -10 6.5 -16.5t15.5 -6.5q12 0 25 8l-8 -39q-14 -9 -35 -9q-20 0 -34.5 12t-14.5 31q0 35 37 60z" />
    <glyph glyph-name="tilde" unicode="&#x2dc;" horiz-adv-x="243" 
d="M48 463h-50q2 33 19 59t50 26q18 0 50.5 -13t42.5 -13q5 0 10 3t7 5t7 9t6 9h51q-4 -35 -24 -61.5t-53 -26.5q-14 0 -44.5 14.5t-43.5 14.5q-18 0 -28 -26z" />
    <glyph glyph-name="hungarumlaut" unicode="&#x2dd;" horiz-adv-x="340" 
d="M111 630l67 -45l-124 -126l-45 30zM264 630l67 -45l-125 -126l-44 30z" />
    <glyph glyph-name="Delta" unicode="&#x394;" horiz-adv-x="646" 
d="M375 650l256 -650h-616l242 650h118zM316 521l-148 -417h306z" />
    <glyph glyph-name="Delta" unicode="&#x2206;" horiz-adv-x="646" 
d="M375 650l256 -650h-616l242 650h118zM316 521l-148 -417h306z" />
    <glyph glyph-name="Omega" unicode="&#x3a9;" horiz-adv-x="708" 
d="M558 100v-3h125v-97h-277v70q57 41 93.5 109t36.5 154q0 89 -48 153t-131 64q-84 0 -134.5 -63t-50.5 -155q0 -81 38 -154.5t93 -107.5v-70h-278v97h124v3q-47 38 -79 103t-32 142q0 130 93 217.5t229 87.5q137 0 224 -86.5t87 -208.5q0 -157 -113 -255z" />
    <glyph glyph-name="Omega" unicode="&#x2126;" horiz-adv-x="708" 
d="M558 100v-3h125v-97h-277v70q57 41 93.5 109t36.5 154q0 89 -48 153t-131 64q-84 0 -134.5 -63t-50.5 -155q0 -81 38 -154.5t93 -107.5v-70h-278v97h124v3q-47 38 -79 103t-32 142q0 130 93 217.5t229 87.5q137 0 224 -86.5t87 -208.5q0 -157 -113 -255z" />
    <glyph glyph-name="pi" unicode="&#x3c0;" horiz-adv-x="544" 
d="M518 300h-53v-186q0 -80 11 -124h-127q-14 23 -14 115v195h-102q-2 -77 -16 -170t-34 -140h-128q20 60 34.5 149.5t15.5 160.5q-52 0 -76 -6l-12 74q30 25 131 25h379z" />
    <glyph glyph-name="Wgrave" unicode="&#x1e80;" horiz-adv-x="876" 
d="M316 793l48 66l144 -97l-31 -45zM755 642h124q-23 -169 -92 -387q-47 -146 -93 -255h-142q-38 75 -65 139q-10 23 -49 144q-40 -124 -49 -144q-27 -64 -65 -139h-141q-46 107 -94 255q-70 227 -92 387h125q20 -144 84 -350q25 -78 51 -150q7 14 19 42q58 137 87 279h150
q29 -142 87 -279q12 -28 19 -42q18 48 51 150q63 202 85 350z" />
    <glyph glyph-name="wgrave" unicode="&#x1e81;" horiz-adv-x="669" 
d="M548 393h121q-18 -86 -54.5 -194.5t-77.5 -198.5h-139q-39 86 -65 176q-33 -101 -65 -176h-137q-97 209 -131 393h122q28 -137 79 -270q36 79 75 186q4 13 7 15t14 2h83q12 0 15 -2t7 -14q22 -75 66 -187q52 137 80 270zM238 584l67 45l102 -141l-44 -30z" />
    <glyph glyph-name="Wacute" unicode="&#x1e82;" horiz-adv-x="876" 
d="M484 859l48 -66l-161 -76l-31 45zM755 642h124q-23 -169 -92 -387q-47 -146 -93 -255h-142q-38 75 -65 139q-10 23 -49 144q-40 -124 -49 -144q-27 -64 -65 -139h-141q-46 107 -94 255q-70 227 -92 387h125q20 -144 84 -350q25 -78 51 -150q7 14 19 42q58 137 87 279h150
q29 -142 87 -279q12 -28 19 -42q18 48 51 150q63 202 85 350z" />
    <glyph glyph-name="wacute" unicode="&#x1e83;" horiz-adv-x="669" 
d="M548 393h121q-18 -86 -54.5 -194.5t-77.5 -198.5h-139q-39 86 -65 176q-33 -101 -65 -176h-137q-97 209 -131 393h122q28 -137 79 -270q36 79 75 186q4 13 7 15t14 2h83q12 0 15 -2t7 -14q22 -75 66 -187q52 137 80 270zM363 629l67 -45l-125 -126l-44 30z" />
    <glyph glyph-name="Wdieresis" unicode="&#x1e84;" horiz-adv-x="876" 
d="M755 642h124q-23 -169 -92 -387q-47 -146 -93 -255h-142q-38 75 -65 139q-10 23 -49 144q-40 -124 -49 -144q-27 -64 -65 -139h-141q-46 107 -94 255q-70 227 -92 387h125q20 -144 84 -350q25 -78 51 -150q7 14 19 42q58 137 87 279h150q29 -142 87 -279q12 -28 19 -42
q18 48 51 150q63 202 85 350zM353 834q21 0 36 -14.5t15 -35.5q0 -22 -15 -37t-36 -15q-22 0 -37.5 15t-15.5 37q0 21 15.5 35.5t37.5 14.5zM533 834q21 0 36 -14.5t15 -35.5q0 -22 -15 -37t-36 -15q-22 0 -37.5 15t-15.5 37q0 21 15.5 35.5t37.5 14.5z" />
    <glyph glyph-name="wdieresis" unicode="&#x1e85;" horiz-adv-x="669" 
d="M548 393h121q-18 -86 -54.5 -194.5t-77.5 -198.5h-139q-39 86 -65 176q-33 -101 -65 -176h-137q-97 209 -131 393h122q28 -137 79 -270q36 79 75 186q4 13 7 15t14 2h83q12 0 15 -2t7 -14q22 -75 66 -187q52 137 80 270zM245 583q21 0 36 -14.5t15 -35.5t-15 -36.5
t-36 -15.5q-22 0 -37.5 15t-15.5 37q0 21 15.5 35.5t37.5 14.5zM425 583q21 0 36 -14.5t15 -35.5t-15 -36.5t-36 -15.5q-22 0 -37.5 15t-15.5 37q0 21 15.5 35.5t37.5 14.5z" />
    <glyph glyph-name="Ygrave" unicode="&#x1ef2;" horiz-adv-x="560" 
d="M168 793l48 66l144 -97l-31 -45zM433 642h131q-50 -145 -137 -286q-43 -68 -81 -118v-238h-130v235q-44 60 -82 121q-90 145 -138 286h131q45 -116 111 -221l42 -70q7 12 22 37t20 33q69 111 111 221z" />
    <glyph glyph-name="ygrave" unicode="&#x1ef3;" horiz-adv-x="405" 
d="M288 393h122q-35 -149 -103 -302q-75 -168 -181 -312h-145v6q76 92 146 209q-51 98 -91 206t-57 193h121q34 -144 93 -270h2l26 59q41 109 67 211zM106 584l67 45l102 -141l-44 -30z" />
    <glyph glyph-name="endash" unicode="&#x2013;" horiz-adv-x="425" 
d="M0 323h425v-102h-425v102z" />
    <glyph glyph-name="emdash" unicode="&#x2014;" horiz-adv-x="850" 
d="M0 323h850v-102h-850v102z" />
    <glyph glyph-name="quoteleft" unicode="&#x2018;" horiz-adv-x="285" 
d="M151 413l-97 10l108 220l69 -6z" />
    <glyph glyph-name="quoteright" unicode="&#x2019;" horiz-adv-x="285" 
d="M134 643l97 -10l-108 -220l-69 6z" />
    <glyph glyph-name="quotesinglbase" unicode="&#x201a;" horiz-adv-x="335" 
d="M146 105l97 -9l-109 -221l-69 7z" />
    <glyph glyph-name="quotedblleft" unicode="&#x201c;" horiz-adv-x="451" 
d="M317 413l-97 10l108 220l69 -6zM151 413l-97 10l108 220l69 -6z" />
    <glyph glyph-name="quotedblright" unicode="&#x201d;" horiz-adv-x="451" 
d="M134 643l97 -10l-108 -220l-69 6zM300 643l97 -10l-108 -220l-69 6z" />
    <glyph glyph-name="quotedblbase" unicode="&#x201e;" horiz-adv-x="503" 
d="M146 105l97 -9l-109 -221l-69 7zM314 105l97 -9l-109 -221l-69 7z" />
    <glyph glyph-name="dagger" unicode="&#x2020;" horiz-adv-x="569" 
d="M219 712h116v-201h138v-101h-138v-501h-116v501h-138v101h138v201z" />
    <glyph glyph-name="daggerdbl" unicode="&#x2021;" horiz-adv-x="554" 
d="M220 711h115v-177h138v-102h-138v-113h138v-102h-138v-307h-115v307h-139v102h139v113h-139v102h139v177z" />
    <glyph glyph-name="bullet" unicode="&#x2022;" horiz-adv-x="534" 
d="M256 438q51 0 85 -35t34 -85q0 -49 -34.5 -83.5t-84.5 -34.5t-84.5 34.5t-34.5 83.5q0 50 34 85t85 35z" />
    <glyph glyph-name="ellipsis" unicode="&#x2026;" horiz-adv-x="1049" 
d="M175 139q31 0 52.5 -22t21.5 -53t-21.5 -53t-52.5 -22t-53.5 22t-22.5 53t22 53t54 22zM516 139q31 0 52.5 -22t21.5 -53t-21.5 -53t-52.5 -22t-53.5 22t-22.5 53t22 53t54 22zM857 139q31 0 52.5 -22t21.5 -53t-21.5 -53t-52.5 -22t-53.5 22t-22.5 53t22 53t54 22z" />
    <glyph glyph-name="perthousand" unicode="&#x2030;" horiz-adv-x="1057" 
d="M170 657q67 0 111 -43t44 -110q0 -66 -44 -109t-111 -43t-111 43t-44 109q0 67 44.5 110t110.5 43zM170 587q-30 0 -49.5 -26t-19.5 -57t19.5 -55.5t49.5 -24.5q31 0 50 24.5t19 55.5q0 32 -19 57.5t-50 25.5zM490 661l61 -26l-347 -658l-61 27zM525 289q67 0 111 -43
t44 -110q0 -66 -44 -109t-111 -43t-111 43t-44 109q0 67 44 110t111 43zM525 218q-30 0 -49 -25.5t-19 -56.5t19 -56t49 -25t49 25t19 56t-19 56.5t-49 25.5zM890 289q67 0 111 -43t44 -110q0 -66 -44 -109t-111 -43t-111 43t-44 109q0 67 44 110t111 43zM890 218
q-30 0 -49 -25.5t-19 -56.5t19 -56t49 -25t49 25t19 56t-19 56.5t-49 25.5z" />
    <glyph glyph-name="guilsinglleft" unicode="&#x2039;" horiz-adv-x="275" 
d="M123 273q50 -73 106 -118l-55 -69q-84 66 -152 180q-3 7 1 15q64 107 149 176l55 -70q-51 -39 -104 -114z" />
    <glyph glyph-name="guilsinglright" unicode="&#x203a;" horiz-adv-x="276" 
d="M151 273q-53 75 -104 114l55 70q85 -69 149 -176q4 -8 1 -15q-68 -114 -152 -180l-55 69q56 45 106 118z" />
    <glyph glyph-name="fraction" unicode="&#x2044;" horiz-adv-x="115" 
d="M191 660l61 -25l-347 -658l-62 26z" />
    <glyph glyph-name="Euro" unicode="&#x20ac;" horiz-adv-x="703" 
d="M586 158l79 -82q-90 -87 -229 -87q-122 0 -205.5 63t-109.5 177h-100v64h91q-1 12 -1 35q0 25 2 37h-92v64h104q30 102 113.5 163t200.5 61q119 0 205 -66l-70 -92q-48 38 -129 38q-131 0 -179 -104h264v-64h-282q-3 -18 -3 -37q0 -11 2 -35h283v-64h-269
q44 -123 184 -122q89 0 141 51z" />
    <glyph glyph-name="trademark" unicode="&#x2122;" horiz-adv-x="921" 
d="M735 642h122v-355h-86v278q-25 -37 -48 -81q-27 -53 -44 -99h-98q-17 46 -44 99q-23 44 -48 81v-278h-86v355h122q47 -60 81 -128q11 -18 24 -48q12 27 23 48q36 70 82 128zM343 642v-64h-108v-291h-86v291h-108v64h302z" />
    <glyph glyph-name="partialdiff" unicode="&#x2202;" horiz-adv-x="544" 
d="M95 573l-36 83q77 54 180 54q117 0 198 -94.5t81 -252.5q0 -175 -82 -273.5t-200 -98.5q-98 0 -154 64t-56 147q0 100 63 169.5t156 69.5q54 0 93 -24t58 -55h1v24q0 103 -48.5 163.5t-122.5 60.5q-78 0 -131 -37zM248 90h1q45 0 79 39t49 99q10 39 -5 62q-35 55 -102 55
q-50 0 -84 -41t-34 -102q0 -53 26.5 -82.5t69.5 -29.5z" />
    <glyph glyph-name="product" unicode="&#x220f;" horiz-adv-x="662" 
d="M637 544h-89v-631h-130v631h-174v-631h-130v631h-89v106h612v-106z" />
    <glyph glyph-name="summation" unicode="&#x2211;" horiz-adv-x="522" 
d="M172 20h344v-108h-501v94q40 72 99 148t106 123q-47 50 -108 130.5t-91 133.5v101h468v-109h-308q31 -55 101 -139t104 -111v-6q-42 -38 -112.5 -119t-101.5 -138z" />
    <glyph glyph-name="minus" unicode="&#x2212;" 
d="M56 166v104h436v-104h-436z" />
    <glyph glyph-name="radical" unicode="&#x221a;" horiz-adv-x="514" 
d="M522 701l-197 -922h-105l-139 286l-47 -23l-42 89l148 67l113 -243l152 746h117z" />
    <glyph glyph-name="infinity" unicode="&#x221e;" horiz-adv-x="880" 
d="M669 395q82 0 135.5 -57.5t53.5 -134.5q0 -47 -20.5 -85.5t-52 -61t-65 -34.5t-62.5 -12q-58 0 -109 34t-109 94l-16 -16t-19.5 -18.5t-20.5 -18t-24 -19.5t-25 -17t-29 -16t-29.5 -11.5t-33.5 -9t-34 -2.5q-78 0 -132.5 54t-54.5 139q0 78 58.5 135t138.5 57
q59 0 106 -30.5t114 -97.5q58 60 112 94t118 34zM214 105q70 0 161 96q-55 56 -87 77.5t-71 21.5q-40 0 -69.5 -28t-29.5 -69q0 -42 27 -69t69 -29zM663 105q37 0 68 27.5t31 70.5q0 41 -28.5 69t-68.5 28q-68 0 -161 -97q92 -98 158 -98h1z" />
    <glyph glyph-name="integral" unicode="&#x222b;" horiz-adv-x="588" 
d="M398 495q-3 -20 -21.5 -128.5t-39.5 -246.5q-7 -50 -16 -85.5t-26.5 -71t-42 -57t-62.5 -35t-88 -13.5l-51 3l17 111l32 -2q25 0 45 12t31 27t20 42t12 42.5t7 42.5l63 389q16 87 55 133.5t120 46.5h5q41 0 75 -19l-18 -106q-24 15 -52 15q-12 0 -22 -4t-16.5 -14.5
t-10.5 -17t-8 -22.5t-4.5 -21t-3.5 -21z" />
    <glyph glyph-name="approxequal" unicode="&#x2248;" horiz-adv-x="523" 
d="M395 261l86 -77q-14 -25 -23.5 -40t-27.5 -37.5t-38 -34t-42 -11.5q-11 0 -21 2t-21 7t-16.5 8t-18.5 11t-16 10q-8 5 -23 15.5t-23.5 16t-19 10t-18.5 4.5q-20 0 -49 -67l-86 76q7 9 25.5 35.5t31 43t33.5 31t43 14.5q40 0 97 -43q47 -41 81 -41q24 0 46 67zM397 261
l86 -77q-14 -25 -23.5 -40t-27.5 -37.5t-38 -34t-42 -11.5q-11 0 -21 2t-21 7t-16.5 8t-18.5 11t-16 10q-8 5 -23 15.5t-23.5 16t-19 10t-18.5 4.5q-20 0 -49 -67l-86 76q7 9 25.5 35.5t31 43t33.5 31t43 14.5q40 0 97 -43q47 -41 81 -41q24 0 46 67zM395 507l86 -77
q-14 -25 -23.5 -40t-27.5 -37.5t-38 -34t-42 -11.5q-11 0 -21 2t-21 7t-16.5 8t-18.5 11t-16 10q-8 5 -23 15.5t-23.5 16t-19 10t-18.5 4.5q-20 0 -49 -67l-86 76q7 9 25.5 35.5t31 43t33.5 31t43 14.5q40 0 97 -43q47 -41 81 -41q24 0 46 67z" />
    <glyph glyph-name="notequal" unicode="&#x2260;" 
d="M492 263h-152l-52 -78h204v-103h-272l-67 -101l-45 30l47 71h-98v103h166l51 78h-217v104h286l58 87l45 -30l-37 -57h83v-104z" />
    <glyph glyph-name="lessequal" unicode="&#x2264;" horiz-adv-x="565" 
d="M523 102v-102h-470v102h470zM181 335q151 -52 345 -67l-8 -103q-254 24 -476 120v100q204 90 476 119l8 -104q-196 -15 -345 -65z" />
    <glyph glyph-name="greaterequal" unicode="&#x2265;" horiz-adv-x="565" 
d="M45 0v102h470v-102h-470zM387 335q-149 50 -345 65l8 104q272 -29 476 -119v-100q-222 -96 -476 -120l-8 103q194 15 345 67z" />
    <glyph glyph-name="lozenge" unicode="&#x25ca;" horiz-adv-x="568" 
d="M456 302l-172 -314l-172 314l172 314z" />
    <glyph glyph-name="Imacron" unicode="&#xe000;" horiz-adv-x="254" 
d="M192 642v-642h-130v642h130zM-6 801h265v-55h-265v55z" />
    <glyph glyph-name="fi" unicode="&#xfb01;" horiz-adv-x="508" 
d="M180 513v-120h98v-79h-98v-314h-123v314h-43v79h43v121q0 55 15.5 95.5t41.5 62t56 31t64 9.5q65 0 99 -22l-24 -77q-27 12 -51 12q-78 0 -78 -112zM456 393v-393h-123v393h123zM394 620q30 0 51 -21.5t21 -50.5q0 -30 -21 -51t-51 -21q-29 0 -50.5 21t-21.5 51
q0 29 21.5 50.5t50.5 21.5z" />
    <glyph glyph-name="fl" unicode="&#xfb02;" horiz-adv-x="551" 
d="M180 513v-120h98v-79h-98v-314h-123v314h-43v79h43v121q0 55 15.5 95.5t41.5 62t56 31t64 9.5q65 0 99 -22l-24 -77q-27 12 -51 12q-78 0 -78 -112zM473 175q0 -45 18 -68.5t58 -22.5v-90q-111 -4 -154.5 40.5t-43.5 142.5v524h122v-526z" />
    </font>
</defs>
</svg>
